<svg width="425" height="383" viewBox="0 0 425 383" fill="none" xmlns="http://www.w3.org/2000/svg">
<g filter="url(#filter0_d_62_13627)">
<g clip-path="url(#clip0_62_13627)">
<path d="M4.5 13.5C4.5 7.97716 8.97715 3.5 14.5 3.5H410.5C416.023 3.5 420.5 7.97715 420.5 13.5V367.5C420.5 373.023 416.023 377.5 410.5 377.5H14.5C8.97714 377.5 4.5 373.023 4.5 367.5V13.5Z" fill="white"/>
<path d="M4.5 3.5H420.5V59.5H4.5V3.5Z" stroke="#E5ECF3"/>
<path d="M20.5 19.5C20.5 17.2909 22.2909 15.5 24.5 15.5H48.5C50.7091 15.5 52.5 17.2909 52.5 19.5V43.5C52.5 45.7091 50.7091 47.5 48.5 47.5H24.5C22.2909 47.5 20.5 45.7091 20.5 43.5V19.5Z" fill="#EDF2F7"/>
<path d="M20.5 19.5C20.5 17.2909 22.2909 15.5 24.5 15.5H48.5C50.7091 15.5 52.5 17.2909 52.5 19.5V43.5C52.5 45.7091 50.7091 47.5 48.5 47.5H24.5C22.2909 47.5 20.5 45.7091 20.5 43.5V19.5Z" stroke="#EDF2F7"/>
<path d="M33.875 24.25C34.3398 24.25 34.75 24.6602 34.75 25.125V26H38.25V25.125C38.25 24.6602 38.6328 24.25 39.125 24.25C39.5898 24.25 40 24.6602 40 25.125V26H41.3125C42.0234 26 42.625 26.6016 42.625 27.3125V28.625H30.375V27.3125C30.375 26.6016 30.9492 26 31.6875 26H33V25.125C33 24.6602 33.3828 24.25 33.875 24.25ZM30.375 29.5H42.625V36.9375C42.625 37.6758 42.0234 38.25 41.3125 38.25H31.6875C30.9492 38.25 30.375 37.6758 30.375 36.9375V29.5ZM32.5625 31.25C32.3164 31.25 32.125 31.4688 32.125 31.6875V33.4375C32.125 33.6836 32.3164 33.875 32.5625 33.875H40.4375C40.6562 33.875 40.875 33.6836 40.875 33.4375V31.6875C40.875 31.4688 40.6562 31.25 40.4375 31.25H32.5625Z" fill="#2C8DFF"/>
<path d="M62.4787 36.5H60.848L64.5121 26.3182H66.2869L69.951 36.5H68.3203L65.4418 28.1676H65.3622L62.4787 36.5ZM62.7521 32.5128H68.0419V33.8054H62.7521V32.5128ZM74.3807 39.5227C73.7741 39.5227 73.2521 39.4432 72.8146 39.2841C72.3804 39.125 72.0258 38.9145 71.7507 38.6527C71.4756 38.3909 71.2701 38.1042 71.1342 37.7926L72.4119 37.2656C72.5014 37.4115 72.6207 37.5656 72.7699 37.728C72.9223 37.8937 73.1278 38.0346 73.3864 38.1506C73.6482 38.2666 73.9846 38.3246 74.3956 38.3246C74.959 38.3246 75.4247 38.187 75.7926 37.9119C76.1605 37.6402 76.3445 37.206 76.3445 36.6094V35.108H76.25C76.1605 35.2704 76.0313 35.451 75.8622 35.6499C75.6965 35.8487 75.4678 36.0211 75.1761 36.1669C74.8845 36.3127 74.505 36.3857 74.0376 36.3857C73.4344 36.3857 72.8909 36.2448 72.407 35.9631C71.9264 35.678 71.5452 35.2588 71.2635 34.7053C70.9851 34.1484 70.8459 33.464 70.8459 32.652C70.8459 31.84 70.9834 31.1439 71.2585 30.5639C71.5369 29.9839 71.9181 29.5398 72.402 29.2315C72.8859 28.92 73.4344 28.7642 74.0476 28.7642C74.5215 28.7642 74.9044 28.8438 75.196 29.0028C75.4877 29.1586 75.7147 29.3409 75.8771 29.5497C76.0429 29.7585 76.1705 29.9425 76.2599 30.1016H76.3693V28.8636H77.826V36.669C77.826 37.3253 77.6735 37.8639 77.3686 38.2848C77.0637 38.7057 76.651 39.0173 76.1307 39.2195C75.6136 39.4216 75.0303 39.5227 74.3807 39.5227ZM74.3658 35.1527C74.7933 35.1527 75.1546 35.0533 75.4496 34.8544C75.7479 34.6522 75.9732 34.3639 76.1257 33.9893C76.2815 33.6115 76.3594 33.1591 76.3594 32.6321C76.3594 32.1184 76.2831 31.666 76.1307 31.2749C75.9782 30.8838 75.7545 30.5788 75.4595 30.3601C75.1645 30.138 74.8 30.027 74.3658 30.027C73.9183 30.027 73.5455 30.143 73.2472 30.375C72.9489 30.6037 72.7235 30.9152 72.571 31.3097C72.4219 31.7041 72.3473 32.1449 72.3473 32.6321C72.3473 33.1326 72.4235 33.5717 72.576 33.9496C72.7285 34.3274 72.9538 34.6224 73.2521 34.8345C73.5537 35.0466 73.925 35.1527 74.3658 35.1527ZM83.1108 36.6541C82.3584 36.6541 81.7105 36.4934 81.1669 36.1719C80.6267 35.8471 80.209 35.3913 79.9141 34.8047C79.6224 34.2147 79.4766 33.5237 79.4766 32.7315C79.4766 31.9493 79.6224 31.2599 79.9141 30.6634C80.209 30.0668 80.62 29.6011 81.147 29.2663C81.6773 28.9316 82.2971 28.7642 83.0064 28.7642C83.4373 28.7642 83.8549 28.8355 84.2592 28.978C84.6636 29.1205 85.0265 29.3442 85.348 29.6491C85.6695 29.9541 85.9231 30.3501 86.1087 30.8374C86.2943 31.3213 86.3871 31.9096 86.3871 32.6023V33.1293H80.3168V32.0156H84.9304C84.9304 31.6245 84.8509 31.2782 84.6918 30.9766C84.5327 30.6716 84.3089 30.4313 84.0206 30.2557C83.7356 30.08 83.4008 29.9922 83.0163 29.9922C82.5987 29.9922 82.2341 30.0949 81.9226 30.3004C81.6143 30.5026 81.3757 30.7678 81.2067 31.0959C81.041 31.4207 80.9581 31.7737 80.9581 32.1548V33.0249C80.9581 33.5353 81.0476 33.9695 81.2266 34.3274C81.4089 34.6854 81.6624 34.9588 81.9872 35.1477C82.312 35.3333 82.6915 35.4261 83.1257 35.4261C83.4074 35.4261 83.6643 35.3864 83.8963 35.3068C84.1283 35.224 84.3288 35.1013 84.4979 34.9389C84.6669 34.7765 84.7962 34.576 84.8857 34.3374L86.2926 34.5909C86.1799 35.0052 85.9777 35.3681 85.6861 35.6797C85.3977 35.9879 85.0348 36.2282 84.5973 36.4006C84.1631 36.5696 83.6676 36.6541 83.1108 36.6541ZM89.5229 31.9659V36.5H88.0364V28.8636H89.4632V30.1065H89.5577C89.7334 29.7022 90.0085 29.3774 90.383 29.1321C90.7608 28.8868 91.2364 28.7642 91.8098 28.7642C92.3302 28.7642 92.7859 28.8736 93.177 29.0923C93.5681 29.3078 93.8714 29.6293 94.0868 30.0568C94.3023 30.4844 94.41 31.013 94.41 31.6428V36.5H92.9235V31.8217C92.9235 31.2682 92.7793 30.8357 92.4909 30.5241C92.2026 30.2093 91.8065 30.0518 91.3027 30.0518C90.958 30.0518 90.6515 30.1264 90.383 30.2756C90.1178 30.4247 89.9074 30.6435 89.7516 30.9318C89.5991 31.2169 89.5229 31.5616 89.5229 31.9659ZM99.2623 36.6491C98.6458 36.6491 98.0956 36.4917 97.6117 36.1768C97.1311 35.8587 96.7533 35.4062 96.4782 34.8196C96.2064 34.2296 96.0705 33.522 96.0705 32.6967C96.0705 31.8714 96.208 31.1655 96.4831 30.5788C96.7615 29.9922 97.1427 29.5431 97.6266 29.2315C98.1105 28.92 98.659 28.7642 99.2722 28.7642C99.7462 28.7642 100.127 28.8438 100.416 29.0028C100.707 29.1586 100.933 29.3409 101.092 29.5497C101.254 29.7585 101.38 29.9425 101.47 30.1016H101.559V26.3182H103.046V36.5H101.594V35.3118H101.47C101.38 35.4742 101.251 35.6598 101.082 35.8686C100.916 36.0774 100.687 36.2597 100.396 36.4155C100.104 36.5713 99.7263 36.6491 99.2623 36.6491ZM99.5904 35.3814C100.018 35.3814 100.379 35.2687 100.674 35.0433C100.972 34.8146 101.198 34.4981 101.35 34.0938C101.506 33.6894 101.584 33.2187 101.584 32.6818C101.584 32.1515 101.508 31.6875 101.355 31.2898C101.203 30.892 100.979 30.5821 100.684 30.3601C100.389 30.138 100.025 30.027 99.5904 30.027C99.1429 30.027 98.7701 30.143 98.4718 30.375C98.1735 30.607 97.9481 30.9235 97.7956 31.3246C97.6465 31.7256 97.5719 32.178 97.5719 32.6818C97.5719 33.1922 97.6481 33.6513 97.8006 34.0589C97.9531 34.4666 98.1784 34.7898 98.4767 35.0284C98.7783 35.2637 99.1496 35.3814 99.5904 35.3814ZM107.39 36.669C106.906 36.669 106.468 36.5795 106.077 36.4006C105.686 36.2183 105.376 35.9548 105.147 35.6101C104.922 35.2654 104.809 34.8428 104.809 34.3423C104.809 33.9115 104.892 33.5568 105.058 33.2784C105.224 33 105.447 32.7796 105.729 32.6172C106.011 32.4548 106.326 32.3321 106.674 32.2493C107.022 32.1664 107.376 32.1035 107.738 32.0604C108.195 32.0073 108.566 31.9643 108.851 31.9311C109.136 31.8946 109.343 31.8366 109.473 31.7571C109.602 31.6776 109.667 31.5483 109.667 31.3693V31.3345C109.667 30.9003 109.544 30.5639 109.299 30.3253C109.057 30.0866 108.695 29.9673 108.215 29.9673C107.714 29.9673 107.32 30.0784 107.032 30.3004C106.747 30.5192 106.549 30.7628 106.44 31.0312L105.043 30.7131C105.209 30.2491 105.451 29.8745 105.769 29.5895C106.09 29.3011 106.46 29.0923 106.877 28.9631C107.295 28.8305 107.734 28.7642 108.195 28.7642C108.5 28.7642 108.823 28.8007 109.164 28.8736C109.509 28.9432 109.831 29.0724 110.129 29.2614C110.431 29.4503 110.677 29.7204 110.87 30.0717C111.062 30.4197 111.158 30.8722 111.158 31.429V36.5H109.706V35.456H109.647C109.551 35.6482 109.406 35.8371 109.214 36.0227C109.022 36.2083 108.775 36.3625 108.473 36.4851C108.172 36.6077 107.81 36.669 107.39 36.669ZM107.713 35.4759C108.124 35.4759 108.475 35.3946 108.767 35.2322C109.062 35.0698 109.285 34.8577 109.438 34.5959C109.594 34.3307 109.672 34.0473 109.672 33.7457V32.7614C109.618 32.8144 109.516 32.8641 109.363 32.9105C109.214 32.9536 109.043 32.9917 108.851 33.0249C108.659 33.0547 108.472 33.0829 108.289 33.1094C108.107 33.1326 107.955 33.1525 107.832 33.169C107.544 33.2055 107.28 33.2668 107.042 33.353C106.806 33.4392 106.617 33.5634 106.475 33.7259C106.336 33.8849 106.266 34.0971 106.266 34.3622C106.266 34.7301 106.402 35.0085 106.674 35.1974C106.945 35.383 107.292 35.4759 107.713 35.4759Z" fill="#000F30"/>
<rect x="366.5" y="26.25" width="38" height="10.5" rx="5.25" fill="#E5ECF3"/>
<path d="M20.5 81.5C20.5 78.1863 23.1863 75.5 26.5 75.5H398.5C401.814 75.5 404.5 78.1863 404.5 81.5V131.5C404.5 134.814 401.814 137.5 398.5 137.5H26.5C23.1863 137.5 20.5 134.814 20.5 131.5V81.5Z" fill="#FBFCFE"/>
<path d="M40.8107 87.2273H42.1424L44.4577 92.8807H44.543L46.8583 87.2273H48.19V94.5H47.146V89.2372H47.0785L44.9336 94.4893H44.0671L41.9222 89.2337H41.8548V94.5H40.8107V87.2273ZM51.9977 94.6101C51.4863 94.6101 51.0401 94.4929 50.6589 94.2585C50.2778 94.0241 49.9818 93.6963 49.7711 93.2749C49.5604 92.8535 49.4551 92.361 49.4551 91.7976C49.4551 91.2318 49.5604 90.737 49.7711 90.3132C49.9818 89.8894 50.2778 89.5604 50.6589 89.326C51.0401 89.0916 51.4863 88.9744 51.9977 88.9744C52.5091 88.9744 52.9553 89.0916 53.3365 89.326C53.7176 89.5604 54.0136 89.8894 54.2243 90.3132C54.435 90.737 54.5403 91.2318 54.5403 91.7976C54.5403 92.361 54.435 92.8535 54.2243 93.2749C54.0136 93.6963 53.7176 94.0241 53.3365 94.2585C52.9553 94.4929 52.5091 94.6101 51.9977 94.6101ZM52.0012 93.7188C52.3327 93.7188 52.6073 93.6312 52.8251 93.456C53.0429 93.2808 53.2039 93.0476 53.3081 92.7564C53.4146 92.4652 53.4679 92.1444 53.4679 91.794C53.4679 91.446 53.4146 91.1264 53.3081 90.8352C53.2039 90.5417 53.0429 90.3061 52.8251 90.1286C52.6073 89.951 52.3327 89.8622 52.0012 89.8622C51.6674 89.8622 51.3904 89.951 51.1703 90.1286C50.9525 90.3061 50.7903 90.5417 50.6838 90.8352C50.5796 91.1264 50.5275 91.446 50.5275 91.794C50.5275 92.1444 50.5796 92.4652 50.6838 92.7564C50.7903 93.0476 50.9525 93.2808 51.1703 93.456C51.3904 93.6312 51.6674 93.7188 52.0012 93.7188ZM56.7873 91.2614V94.5H55.7255V89.0455H56.7447V89.9332H56.8121C56.9376 89.6444 57.1341 89.4124 57.4016 89.2372C57.6715 89.062 58.0112 88.9744 58.4208 88.9744C58.7925 88.9744 59.118 89.0526 59.3974 89.2088C59.6767 89.3627 59.8933 89.5923 60.0472 89.8977C60.2011 90.2031 60.2781 90.5807 60.2781 91.0305V94.5H59.2163V91.1584C59.2163 90.763 59.1133 90.4541 58.9073 90.2315C58.7013 90.0066 58.4184 89.8942 58.0586 89.8942C57.8124 89.8942 57.5934 89.9474 57.4016 90.054C57.2122 90.1605 57.0619 90.3168 56.9506 90.5227C56.8417 90.7263 56.7873 90.9725 56.7873 91.2614Z" fill="#6C869F"/>
<path d="M47.0874 103.864V115.5H44.9794V105.915H44.9112L42.1896 107.653V105.722L45.0817 103.864H47.0874ZM54.343 115.722C53.4074 115.722 52.6044 115.485 51.9339 115.011C51.2673 114.534 50.754 113.847 50.3942 112.949C50.0381 112.047 49.8601 110.962 49.8601 109.693C49.8639 108.424 50.0438 107.345 50.3999 106.455C50.7597 105.561 51.273 104.879 51.9396 104.409C52.6101 103.939 53.4112 103.705 54.343 103.705C55.2749 103.705 56.076 103.939 56.7464 104.409C57.4169 104.879 57.9302 105.561 58.2862 106.455C58.6461 107.348 58.826 108.428 58.826 109.693C58.826 110.966 58.6461 112.053 58.2862 112.955C57.9302 113.852 57.4169 114.538 56.7464 115.011C56.0798 115.485 55.2786 115.722 54.343 115.722ZM54.343 113.943C55.0703 113.943 55.6442 113.585 56.0646 112.869C56.4889 112.15 56.701 111.091 56.701 109.693C56.701 108.769 56.6044 107.992 56.4112 107.364C56.218 106.735 55.9453 106.261 55.593 105.943C55.2408 105.621 54.8241 105.46 54.343 105.46C53.6196 105.46 53.0476 105.82 52.6271 106.54C52.2067 107.256 51.9946 108.307 51.9908 109.693C51.987 110.621 52.0798 111.402 52.2692 112.034C52.4624 112.667 52.7351 113.144 53.0874 113.466C53.4396 113.784 53.8582 113.943 54.343 113.943Z" fill="#476887"/>
<circle cx="50.5" cy="123.5" r="2" fill="#6C869F"/>
<path d="M96.1464 88.1719V87.2273H101.775V88.1719H99.5058V94.5H98.412V88.1719H96.1464ZM105.647 92.2379V89.0455H106.712V94.5H105.668V93.5554H105.611C105.486 93.8466 105.284 94.0893 105.007 94.2834C104.733 94.4751 104.391 94.571 103.981 94.571C103.631 94.571 103.321 94.4941 103.051 94.3402C102.783 94.1839 102.572 93.9531 102.419 93.6477C102.267 93.3423 102.191 92.9647 102.191 92.5149V89.0455H103.253V92.3871C103.253 92.7588 103.356 93.0547 103.562 93.2749C103.768 93.495 104.036 93.6051 104.365 93.6051C104.563 93.6051 104.761 93.5554 104.958 93.456C105.157 93.3565 105.321 93.2062 105.451 93.005C105.584 92.8037 105.649 92.5481 105.647 92.2379ZM110.489 94.6101C109.952 94.6101 109.489 94.4953 109.101 94.2656C108.715 94.0336 108.417 93.7081 108.206 93.2891C107.998 92.8677 107.894 92.3741 107.894 91.8082C107.894 91.2495 107.998 90.7571 108.206 90.331C108.417 89.9048 108.71 89.5722 109.087 89.3331C109.466 89.094 109.908 88.9744 110.415 88.9744C110.723 88.9744 111.021 89.0253 111.31 89.1271C111.599 89.2289 111.858 89.3887 112.087 89.6065C112.317 89.8243 112.498 90.1072 112.631 90.4553C112.763 90.8009 112.83 91.2211 112.83 91.7159V92.0923H108.494V91.2969H111.789C111.789 91.0175 111.732 90.7701 111.619 90.5547C111.505 90.3369 111.345 90.1652 111.139 90.0398C110.936 89.9143 110.697 89.8516 110.422 89.8516C110.124 89.8516 109.863 89.925 109.641 90.0717C109.421 90.2161 109.25 90.4055 109.129 90.6399C109.011 90.8719 108.952 91.1241 108.952 91.3963V92.0178C108.952 92.3823 109.016 92.6925 109.144 92.9482C109.274 93.2038 109.455 93.3991 109.687 93.5341C109.919 93.6667 110.19 93.733 110.5 93.733C110.701 93.733 110.885 93.7045 111.051 93.6477C111.216 93.5885 111.359 93.5009 111.48 93.3849C111.601 93.2689 111.693 93.1257 111.757 92.9553L112.762 93.1364C112.682 93.4323 112.537 93.6915 112.329 93.9141C112.123 94.1342 111.864 94.3059 111.551 94.429C111.241 94.5497 110.887 94.6101 110.489 94.6101Z" fill="#6C869F"/>
<path d="M102.58 103.864V115.5H100.472V105.915H100.403L97.6818 107.653V105.722L100.574 103.864H102.58ZM110.267 103.864V115.5H108.159V105.915H108.091L105.369 107.653V105.722L108.261 103.864H110.267Z" fill="#476887"/>
<path d="M150.039 94.5L148.022 87.2273H149.176L150.593 92.8594H150.661L152.135 87.2273H153.278L154.752 92.8629H154.819L156.233 87.2273H157.39L155.37 94.5H154.265L152.735 89.0526H152.678L151.147 94.5H150.039ZM160.119 94.6101C159.582 94.6101 159.119 94.4953 158.731 94.2656C158.345 94.0336 158.047 93.7081 157.836 93.2891C157.628 92.8677 157.523 92.3741 157.523 91.8082C157.523 91.2495 157.628 90.7571 157.836 90.331C158.047 89.9048 158.34 89.5722 158.717 89.3331C159.095 89.094 159.538 88.9744 160.045 88.9744C160.353 88.9744 160.651 89.0253 160.94 89.1271C161.228 89.2289 161.488 89.3887 161.717 89.6065C161.947 89.8243 162.128 90.1072 162.261 90.4553C162.393 90.8009 162.46 91.2211 162.46 91.7159V92.0923H158.124V91.2969H161.419C161.419 91.0175 161.362 90.7701 161.249 90.5547C161.135 90.3369 160.975 90.1652 160.769 90.0398C160.566 89.9143 160.326 89.8516 160.052 89.8516C159.754 89.8516 159.493 89.925 159.271 90.0717C159.05 90.2161 158.88 90.4055 158.759 90.6399C158.641 90.8719 158.582 91.1241 158.582 91.3963V92.0178C158.582 92.3823 158.646 92.6925 158.773 92.9482C158.904 93.2038 159.085 93.3991 159.317 93.5341C159.549 93.6667 159.82 93.733 160.13 93.733C160.331 93.733 160.515 93.7045 160.68 93.6477C160.846 93.5885 160.989 93.5009 161.11 93.3849C161.231 93.2689 161.323 93.1257 161.387 92.9553L162.392 93.1364C162.312 93.4323 162.167 93.6915 161.959 93.9141C161.753 94.1342 161.494 94.3059 161.181 94.429C160.871 94.5497 160.517 94.6101 160.119 94.6101ZM165.68 94.6065C165.239 94.6065 164.846 94.4941 164.501 94.2692C164.157 94.0419 163.887 93.7187 163.691 93.2997C163.497 92.8783 163.4 92.3729 163.4 91.7834C163.4 91.1939 163.498 90.6896 163.694 90.2706C163.893 89.8516 164.166 89.5308 164.511 89.3082C164.857 89.0857 165.249 88.9744 165.687 88.9744C166.025 88.9744 166.297 89.0312 166.503 89.1449C166.712 89.2562 166.873 89.3864 166.986 89.5355C167.102 89.6847 167.192 89.8161 167.256 89.9297H167.32V87.2273H168.382V94.5H167.345V93.6513H167.256C167.192 93.7673 167.1 93.8999 166.979 94.049C166.861 94.1982 166.698 94.3284 166.489 94.4396C166.281 94.5509 166.011 94.6065 165.68 94.6065ZM165.914 93.701C166.219 93.701 166.477 93.6205 166.688 93.4595C166.901 93.2962 167.062 93.0701 167.171 92.7812C167.282 92.4924 167.338 92.1562 167.338 91.7727C167.338 91.3939 167.283 91.0625 167.175 90.7784C167.066 90.4943 166.906 90.273 166.695 90.1143C166.484 89.9557 166.224 89.8764 165.914 89.8764C165.594 89.8764 165.328 89.9593 165.115 90.125C164.902 90.2907 164.741 90.5168 164.632 90.8033C164.525 91.0897 164.472 91.4129 164.472 91.7727C164.472 92.1373 164.527 92.4652 164.635 92.7564C164.744 93.0476 164.905 93.2784 165.118 93.4489C165.334 93.617 165.599 93.701 165.914 93.701Z" fill="#000F30"/>
<path d="M140.5 101.5C140.5 99.2909 142.291 97.5 144.5 97.5H172.5C174.709 97.5 176.5 99.2909 176.5 101.5V125.5C176.5 127.709 174.709 129.5 172.5 129.5H144.5C142.291 129.5 140.5 127.709 140.5 125.5V101.5Z" fill="#2C8DFF" fill-opacity="0.1"/>
<path d="M155.455 103.864V115.5H153.347V105.915H153.278L150.557 107.653V105.722L153.449 103.864H155.455ZM158.409 115.5V113.977L162.449 110.017C162.835 109.627 163.157 109.28 163.415 108.977C163.672 108.674 163.866 108.381 163.994 108.097C164.123 107.812 164.188 107.509 164.188 107.188C164.188 106.82 164.104 106.506 163.938 106.244C163.771 105.979 163.542 105.775 163.25 105.631C162.958 105.487 162.627 105.415 162.256 105.415C161.873 105.415 161.538 105.494 161.25 105.653C160.962 105.809 160.739 106.03 160.58 106.318C160.424 106.606 160.347 106.949 160.347 107.347H158.341C158.341 106.608 158.509 105.966 158.847 105.42C159.184 104.875 159.648 104.453 160.239 104.153C160.833 103.854 161.515 103.705 162.284 103.705C163.064 103.705 163.75 103.85 164.341 104.142C164.932 104.434 165.39 104.833 165.716 105.341C166.045 105.848 166.21 106.428 166.21 107.08C166.21 107.515 166.127 107.943 165.96 108.364C165.794 108.784 165.5 109.25 165.08 109.761C164.663 110.273 164.078 110.892 163.324 111.619L161.318 113.659V113.739H166.386V115.5H158.409Z" fill="#2C8DFF"/>
<circle cx="158.5" cy="123.5" r="2" fill="#2C8DFF"/>
<path d="M203.702 88.1719V87.2273H209.331V88.1719H207.061V94.5H205.968V88.1719H203.702ZM211.551 91.2614V94.5H210.489V87.2273H211.537V89.9332H211.604C211.732 89.6397 211.927 89.4065 212.19 89.2337C212.453 89.0608 212.796 88.9744 213.22 88.9744C213.594 88.9744 213.921 89.0514 214.2 89.2053C214.482 89.3591 214.7 89.5888 214.854 89.8942C215.01 90.1972 215.088 90.576 215.088 91.0305V94.5H214.026V91.1584C214.026 90.7583 213.923 90.4482 213.717 90.228C213.511 90.0054 213.225 89.8942 212.858 89.8942C212.607 89.8942 212.382 89.9474 212.183 90.054C211.987 90.1605 211.831 90.3168 211.718 90.5227C211.607 90.7263 211.551 90.9725 211.551 91.2614ZM219.96 92.2379V89.0455H221.025V94.5H219.981V93.5554H219.925C219.799 93.8466 219.598 94.0893 219.321 94.2834C219.046 94.4751 218.704 94.571 218.295 94.571C217.944 94.571 217.634 94.4941 217.364 94.3402C217.097 94.1839 216.886 93.9531 216.732 93.6477C216.581 93.3423 216.505 92.9647 216.505 92.5149V89.0455H217.567V92.3871C217.567 92.7588 217.67 93.0547 217.876 93.2749C218.081 93.495 218.349 93.6051 218.678 93.6051C218.877 93.6051 219.075 93.5554 219.271 93.456C219.47 93.3565 219.635 93.2062 219.765 93.005C219.897 92.8037 219.962 92.5481 219.96 92.2379Z" fill="#6C869F"/>
<path d="M209.212 103.864V115.5H207.104V105.915H207.036L204.315 107.653V105.722L207.207 103.864H209.212ZM216.343 115.659C215.525 115.659 214.798 115.519 214.161 115.239C213.529 114.958 213.029 114.568 212.661 114.068C212.294 113.568 212.099 112.991 212.076 112.335H214.212C214.231 112.65 214.335 112.924 214.525 113.159C214.714 113.39 214.966 113.57 215.281 113.699C215.595 113.828 215.947 113.892 216.337 113.892C216.754 113.892 217.123 113.82 217.445 113.676C217.767 113.528 218.019 113.324 218.201 113.062C218.383 112.801 218.472 112.5 218.468 112.159C218.472 111.807 218.381 111.496 218.195 111.227C218.01 110.958 217.741 110.748 217.388 110.597C217.04 110.445 216.62 110.369 216.127 110.369H215.099V108.744H216.127C216.532 108.744 216.887 108.674 217.19 108.534C217.496 108.394 217.737 108.197 217.911 107.943C218.085 107.686 218.171 107.388 218.167 107.051C218.171 106.722 218.097 106.436 217.945 106.193C217.798 105.947 217.587 105.756 217.315 105.619C217.046 105.483 216.729 105.415 216.366 105.415C216.01 105.415 215.68 105.479 215.377 105.608C215.074 105.737 214.83 105.92 214.644 106.159C214.459 106.394 214.36 106.674 214.349 107H212.32C212.335 106.348 212.523 105.777 212.883 105.284C213.246 104.788 213.731 104.402 214.337 104.125C214.943 103.845 215.623 103.705 216.377 103.705C217.154 103.705 217.828 103.85 218.4 104.142C218.976 104.43 219.421 104.818 219.735 105.307C220.049 105.795 220.207 106.335 220.207 106.926C220.21 107.581 220.017 108.131 219.627 108.574C219.241 109.017 218.733 109.307 218.104 109.443V109.534C218.923 109.648 219.549 109.951 219.985 110.443C220.424 110.932 220.642 111.54 220.638 112.267C220.638 112.919 220.453 113.502 220.082 114.017C219.714 114.528 219.207 114.93 218.559 115.222C217.915 115.513 217.176 115.659 216.343 115.659Z" fill="#476887"/>
<path d="M261.239 94.5V87.2273H265.749V88.1719H262.337V90.3878H265.426V91.3288H262.337V94.5H261.239ZM266.945 94.5V89.0455H267.972V89.9119H268.028C268.128 89.6184 268.303 89.3875 268.554 89.2195C268.807 89.049 269.094 88.9638 269.413 88.9638C269.48 88.9638 269.558 88.9661 269.648 88.9709C269.74 88.9756 269.812 88.9815 269.864 88.9886V90.0043C269.822 89.9924 269.746 89.9794 269.637 89.9652C269.528 89.9486 269.419 89.9403 269.31 89.9403C269.059 89.9403 268.836 89.9936 268.639 90.1001C268.445 90.2043 268.291 90.3499 268.177 90.5369C268.064 90.7216 268.007 90.9323 268.007 91.169V94.5H266.945ZM270.783 94.5V89.0455H271.845V94.5H270.783ZM271.319 88.2038C271.135 88.2038 270.976 88.1423 270.843 88.0192C270.713 87.8937 270.648 87.7446 270.648 87.5717C270.648 87.3965 270.713 87.2474 270.843 87.1243C270.976 86.9988 271.135 86.9361 271.319 86.9361C271.504 86.9361 271.661 86.9988 271.792 87.1243C271.924 87.2474 271.991 87.3965 271.991 87.5717C271.991 87.7446 271.924 87.8937 271.792 88.0192C271.661 88.1423 271.504 88.2038 271.319 88.2038Z" fill="#6C869F"/>
<path d="M263.095 103.864V115.5H260.987V105.915H260.919L258.197 107.653V105.722L261.089 103.864H263.095ZM265.839 113.341V111.665L270.777 103.864H272.175V106.25H271.322L267.999 111.517V111.608H274.891V113.341H265.839ZM271.391 115.5V112.83L271.413 112.08V103.864H273.402V115.5H271.391Z" fill="#476887"/>
<path d="M298.5 87.5C298.5 84.1863 301.186 81.5 304.5 81.5H336.5C339.814 81.5 342.5 84.1863 342.5 87.5V125.5C342.5 128.814 339.814 131.5 336.5 131.5H304.5C301.186 131.5 298.5 128.814 298.5 125.5V87.5Z" fill="#EDF2F7"/>
<path d="M317.341 89.1378C317.303 88.8016 317.147 88.5412 316.872 88.3565C316.597 88.1695 316.252 88.076 315.835 88.076C315.537 88.076 315.279 88.1233 315.061 88.218C314.843 88.3104 314.674 88.4382 314.553 88.6016C314.435 88.7625 314.376 88.946 314.376 89.152C314.376 89.3248 314.416 89.474 314.496 89.5994C314.579 89.7249 314.687 89.8303 314.82 89.9155C314.954 89.9983 315.099 90.0682 315.253 90.125C315.407 90.1795 315.555 90.2244 315.697 90.2599L316.407 90.4446C316.639 90.5014 316.877 90.5784 317.121 90.6754C317.364 90.7725 317.591 90.9003 317.799 91.0589C318.007 91.2176 318.175 91.4141 318.303 91.6484C318.433 91.8828 318.498 92.1634 318.498 92.4901C318.498 92.902 318.392 93.2678 318.179 93.5874C317.968 93.907 317.662 94.1591 317.259 94.3438C316.859 94.5284 316.375 94.6207 315.807 94.6207C315.262 94.6207 314.791 94.5343 314.393 94.3615C313.996 94.1887 313.684 93.9437 313.459 93.6264C313.235 93.3068 313.11 92.928 313.087 92.4901H314.187C314.209 92.7528 314.294 92.9718 314.443 93.147C314.595 93.3198 314.788 93.4489 315.022 93.5341C315.259 93.617 315.518 93.6584 315.8 93.6584C316.11 93.6584 316.386 93.6098 316.627 93.5128C316.871 93.4134 317.063 93.276 317.202 93.1009C317.342 92.9233 317.412 92.7161 317.412 92.4794C317.412 92.264 317.35 92.0876 317.227 91.9503C317.106 91.813 316.942 91.6993 316.734 91.6094C316.528 91.5194 316.294 91.4401 316.034 91.3714L315.175 91.1371C314.592 90.9785 314.131 90.7453 313.79 90.4375C313.451 90.1297 313.282 89.7225 313.282 89.2159C313.282 88.7969 313.396 88.4311 313.623 88.1186C313.85 87.8061 314.158 87.5634 314.546 87.3906C314.934 87.2154 315.372 87.1278 315.86 87.1278C316.352 87.1278 316.787 87.2143 317.163 87.3871C317.542 87.5599 317.84 87.7978 318.058 88.1009C318.276 88.4015 318.39 88.7472 318.399 89.1378H317.341ZM321.312 94.6207C320.966 94.6207 320.654 94.5568 320.374 94.429C320.095 94.2988 319.874 94.1106 319.71 93.8643C319.549 93.6181 319.469 93.3163 319.469 92.9588C319.469 92.651 319.528 92.3977 319.646 92.1989C319.765 92 319.925 91.8426 320.126 91.7266C320.327 91.6106 320.552 91.523 320.801 91.4638C321.049 91.4046 321.302 91.3596 321.56 91.3288C321.887 91.291 322.152 91.2602 322.356 91.2365C322.56 91.2105 322.707 91.169 322.8 91.1122C322.892 91.0554 322.938 90.9631 322.938 90.8352V90.8104C322.938 90.5002 322.851 90.2599 322.676 90.0895C322.503 89.919 322.245 89.8338 321.901 89.8338C321.544 89.8338 321.262 89.9131 321.056 90.0717C320.853 90.228 320.712 90.402 320.634 90.5938L319.636 90.3665C319.754 90.035 319.927 89.7675 320.154 89.5639C320.384 89.358 320.648 89.2088 320.946 89.1165C321.244 89.0218 321.558 88.9744 321.887 88.9744C322.105 88.9744 322.336 89.0005 322.58 89.0526C322.826 89.1023 323.055 89.1946 323.269 89.3295C323.484 89.4645 323.66 89.6574 323.798 89.9084C323.935 90.157 324.004 90.4801 324.004 90.8778V94.5H322.967V93.7543H322.924C322.855 93.8916 322.752 94.0265 322.615 94.1591C322.478 94.2917 322.301 94.4018 322.086 94.4893C321.871 94.5769 321.613 94.6207 321.312 94.6207ZM321.543 93.7685C321.836 93.7685 322.087 93.7105 322.296 93.5945C322.506 93.4785 322.666 93.3269 322.775 93.1399C322.886 92.9505 322.942 92.7481 322.942 92.5327V91.8295C322.904 91.8674 322.831 91.9029 322.722 91.9361C322.615 91.9669 322.493 91.9941 322.356 92.0178C322.219 92.0391 322.085 92.0592 321.955 92.0781C321.824 92.0947 321.716 92.1089 321.628 92.1207C321.422 92.1468 321.234 92.1906 321.063 92.2521C320.895 92.3137 320.76 92.4025 320.658 92.5185C320.559 92.6321 320.509 92.7836 320.509 92.973C320.509 93.2358 320.606 93.4347 320.801 93.5696C320.995 93.7022 321.242 93.7685 321.543 93.7685ZM327.964 89.0455V89.8977H324.985V89.0455H327.964ZM325.784 87.7386H326.845V92.8984C326.845 93.1044 326.876 93.2595 326.938 93.3636C326.999 93.4654 327.079 93.5353 327.176 93.5732C327.275 93.6087 327.383 93.6264 327.499 93.6264C327.584 93.6264 327.659 93.6205 327.723 93.6087C327.786 93.5968 327.836 93.5874 327.872 93.5803L328.063 94.4574C328.002 94.4811 327.914 94.5047 327.801 94.5284C327.687 94.5545 327.545 94.5687 327.375 94.571C327.095 94.5758 326.835 94.526 326.593 94.4219C326.352 94.3177 326.157 94.1567 326.007 93.9389C325.858 93.7211 325.784 93.4477 325.784 93.1186V87.7386Z" fill="#6C869F"/>
<path d="M317.361 103.864V115.5H315.253V105.915H315.185L312.463 107.653V105.722L315.355 103.864H317.361ZM324.361 115.659C323.603 115.659 322.925 115.517 322.327 115.233C321.728 114.945 321.253 114.551 320.901 114.051C320.552 113.551 320.366 112.979 320.344 112.335H322.389C322.427 112.812 322.634 113.203 323.009 113.506C323.384 113.805 323.834 113.955 324.361 113.955C324.774 113.955 325.141 113.86 325.463 113.67C325.785 113.481 326.039 113.218 326.224 112.881C326.41 112.544 326.501 112.159 326.497 111.727C326.501 111.288 326.408 110.898 326.219 110.557C326.029 110.216 325.77 109.949 325.44 109.756C325.111 109.559 324.732 109.46 324.304 109.46C323.955 109.456 323.613 109.521 323.276 109.653C322.938 109.786 322.671 109.96 322.474 110.176L320.571 109.864L321.179 103.864H327.929V105.625H322.923L322.588 108.71H322.656C322.872 108.456 323.177 108.246 323.571 108.08C323.965 107.909 324.397 107.824 324.866 107.824C325.571 107.824 326.2 107.991 326.753 108.324C327.306 108.653 327.741 109.108 328.06 109.688C328.378 110.267 328.537 110.93 328.537 111.676C328.537 112.445 328.359 113.131 328.003 113.733C327.651 114.331 327.16 114.803 326.531 115.148C325.906 115.489 325.183 115.659 324.361 115.659Z" fill="#476887"/>
<path d="M352.5 87.5C352.5 84.1863 355.186 81.5 358.5 81.5H390.5C393.814 81.5 396.5 84.1863 396.5 87.5V125.5C396.5 128.814 393.814 131.5 390.5 131.5H358.5C355.186 131.5 352.5 128.814 352.5 125.5V87.5Z" fill="#EDF2F7"/>
<path d="M370.086 89.1378C370.048 88.8016 369.892 88.5412 369.617 88.3565C369.343 88.1695 368.997 88.076 368.58 88.076C368.282 88.076 368.024 88.1233 367.806 88.218C367.588 88.3104 367.419 88.4382 367.298 88.6016C367.18 88.7625 367.121 88.946 367.121 89.152C367.121 89.3248 367.161 89.474 367.241 89.5994C367.324 89.7249 367.432 89.8303 367.565 89.9155C367.7 89.9983 367.844 90.0682 367.998 90.125C368.152 90.1795 368.3 90.2244 368.442 90.2599L369.152 90.4446C369.384 90.5014 369.622 90.5784 369.866 90.6754C370.11 90.7725 370.336 90.9003 370.544 91.0589C370.752 91.2176 370.92 91.4141 371.048 91.6484C371.179 91.8828 371.244 92.1634 371.244 92.4901C371.244 92.902 371.137 93.2678 370.924 93.5874C370.713 93.907 370.407 94.1591 370.004 94.3438C369.604 94.5284 369.12 94.6207 368.552 94.6207C368.007 94.6207 367.536 94.5343 367.138 94.3615C366.741 94.1887 366.429 93.9437 366.205 93.6264C365.98 93.3068 365.855 92.928 365.832 92.4901H366.933C366.954 92.7528 367.039 92.9718 367.188 93.147C367.34 93.3198 367.533 93.4489 367.767 93.5341C368.004 93.617 368.263 93.6584 368.545 93.6584C368.855 93.6584 369.131 93.6098 369.372 93.5128C369.616 93.4134 369.808 93.276 369.947 93.1009C370.087 92.9233 370.157 92.7161 370.157 92.4794C370.157 92.264 370.095 92.0876 369.972 91.9503C369.852 91.813 369.687 91.6993 369.479 91.6094C369.273 91.5194 369.04 91.4401 368.779 91.3714L367.92 91.1371C367.337 90.9785 366.876 90.7453 366.535 90.4375C366.196 90.1297 366.027 89.7225 366.027 89.2159C366.027 88.7969 366.141 88.4311 366.368 88.1186C366.595 87.8061 366.903 87.5634 367.291 87.3906C367.679 87.2154 368.117 87.1278 368.605 87.1278C369.098 87.1278 369.532 87.2143 369.908 87.3871C370.287 87.5599 370.585 87.7978 370.803 88.1009C371.021 88.4015 371.135 88.7472 371.144 89.1378H370.086ZM375.925 92.2379V89.0455H376.99V94.5H375.946V93.5554H375.889C375.764 93.8466 375.563 94.0893 375.286 94.2834C375.011 94.4751 374.669 94.571 374.259 94.571C373.909 94.571 373.599 94.4941 373.329 94.3402C373.061 94.1839 372.851 93.9531 372.697 93.6477C372.545 93.3423 372.47 92.9647 372.47 92.5149V89.0455H373.531V92.3871C373.531 92.7588 373.634 93.0547 373.84 93.2749C374.046 93.495 374.314 93.6051 374.643 93.6051C374.842 93.6051 375.039 93.5554 375.236 93.456C375.435 93.3565 375.599 93.2062 375.73 93.005C375.862 92.8037 375.927 92.5481 375.925 92.2379ZM379.479 91.2614V94.5H378.417V89.0455H379.436V89.9332H379.504C379.629 89.6444 379.826 89.4124 380.093 89.2372C380.363 89.062 380.703 88.9744 381.112 88.9744C381.484 88.9744 381.809 89.0526 382.089 89.2088C382.368 89.3627 382.585 89.5923 382.739 89.8977C382.893 90.2031 382.969 90.5807 382.969 91.0305V94.5H381.908V91.1584C381.908 90.763 381.805 90.4541 381.599 90.2315C381.393 90.0066 381.11 89.8942 380.75 89.8942C380.504 89.8942 380.285 89.9474 380.093 90.054C379.904 90.1605 379.753 90.3168 379.642 90.5227C379.533 90.7263 379.479 90.9725 379.479 91.2614Z" fill="#6C869F"/>
<path d="M371.236 103.864V115.5H369.128V105.915H369.06L366.338 107.653V105.722L369.23 103.864H371.236ZM378.452 115.659C377.895 115.655 377.351 115.559 376.821 115.369C376.291 115.176 375.813 114.864 375.389 114.432C374.965 113.996 374.628 113.419 374.378 112.699C374.128 111.975 374.005 111.08 374.009 110.011C374.009 109.015 374.115 108.127 374.327 107.347C374.539 106.566 374.844 105.907 375.241 105.369C375.639 104.828 376.118 104.415 376.679 104.131C377.243 103.847 377.874 103.705 378.571 103.705C379.302 103.705 379.95 103.848 380.514 104.136C381.082 104.424 381.541 104.818 381.889 105.318C382.238 105.814 382.454 106.375 382.537 107H380.463C380.357 106.553 380.139 106.197 379.81 105.932C379.484 105.663 379.071 105.528 378.571 105.528C377.764 105.528 377.143 105.879 376.707 106.58C376.276 107.28 376.058 108.242 376.054 109.466H376.134C376.319 109.133 376.56 108.847 376.855 108.608C377.151 108.369 377.484 108.186 377.855 108.057C378.23 107.924 378.626 107.858 379.043 107.858C379.724 107.858 380.336 108.021 380.878 108.347C381.423 108.672 381.855 109.121 382.173 109.693C382.491 110.261 382.649 110.913 382.645 111.648C382.649 112.413 382.474 113.1 382.122 113.71C381.77 114.316 381.279 114.794 380.651 115.142C380.022 115.491 379.289 115.663 378.452 115.659ZM378.44 113.955C378.853 113.955 379.223 113.854 379.548 113.653C379.874 113.453 380.132 113.182 380.321 112.841C380.51 112.5 380.603 112.117 380.599 111.693C380.603 111.277 380.512 110.9 380.327 110.562C380.145 110.225 379.893 109.958 379.571 109.761C379.249 109.564 378.882 109.466 378.469 109.466C378.162 109.466 377.876 109.525 377.611 109.642C377.346 109.759 377.115 109.922 376.918 110.131C376.721 110.335 376.565 110.574 376.452 110.847C376.342 111.116 376.285 111.403 376.281 111.71C376.285 112.116 376.38 112.489 376.565 112.83C376.751 113.17 377.007 113.443 377.332 113.648C377.658 113.852 378.027 113.955 378.44 113.955Z" fill="#476887"/>
<rect x="350" y="154" width="49" height="9.5" rx="4.75" fill="#E5ECF3" stroke="#E5ECF3"/>
<rect x="25.5" y="153.5" width="109" height="10.5" rx="5.25" fill="#E5ECF3"/>
<path d="M25.5 189.5C25.5 183.843 25.5 181.015 27.2574 179.257C29.0147 177.5 31.8431 177.5 37.5 177.5H387.5C393.157 177.5 395.985 177.5 397.743 179.257C399.5 181.015 399.5 183.843 399.5 189.5V205.5C399.5 211.157 399.5 213.985 397.743 215.743C395.985 217.5 393.157 217.5 387.5 217.5H37.5C31.8431 217.5 29.0147 217.5 27.2574 215.743C25.5 213.985 25.5 211.157 25.5 205.5V189.5Z" fill="#D1FAE0"/>
<path d="M40.0469 187.102L41.3164 189.699L44.1094 190.109C44.3438 190.148 44.5391 190.305 44.6172 190.539C44.6953 190.754 44.6367 191.008 44.4609 191.164L42.4297 193.176L42.918 196.027C42.957 196.262 42.8594 196.496 42.6641 196.633C42.4688 196.789 42.2148 196.789 42 196.691L39.5 195.344L36.9805 196.691C36.7852 196.789 36.5312 196.789 36.3359 196.633C36.1406 196.496 36.043 196.262 36.082 196.027L36.5508 193.176L34.5195 191.164C34.3633 191.008 34.3047 190.754 34.3633 190.539C34.4414 190.305 34.6367 190.148 34.8711 190.109L37.6836 189.699L38.9336 187.102C39.0312 186.887 39.2461 186.75 39.5 186.75C39.7344 186.75 39.9492 186.887 40.0469 187.102Z" fill="#00E353"/>
<rect x="53.5" y="199.5" width="32" height="8.75" rx="4.375" fill="#A8F2C6"/>
<path d="M55.7756 186.773V195.5H54.4588V186.773H55.7756ZM58.8651 191.614V195.5H57.5909V188.955H58.8139V190.02H58.8949C59.0455 189.673 59.2813 189.395 59.6023 189.185C59.9261 188.974 60.3338 188.869 60.8253 188.869C61.2713 188.869 61.6619 188.963 61.9972 189.151C62.3324 189.335 62.5923 189.611 62.777 189.977C62.9616 190.344 63.054 190.797 63.054 191.337V195.5H61.7798V191.49C61.7798 191.016 61.6563 190.645 61.4091 190.378C61.1619 190.108 60.8224 189.973 60.3906 189.973C60.0952 189.973 59.8324 190.037 59.6023 190.165C59.375 190.293 59.1946 190.48 59.0611 190.727C58.9304 190.972 58.8651 191.267 58.8651 191.614ZM67.2131 195.628C66.6847 195.628 66.2131 195.493 65.7983 195.223C65.3864 194.95 65.0625 194.562 64.8267 194.06C64.5938 193.554 64.4773 192.947 64.4773 192.24C64.4773 191.533 64.5952 190.928 64.831 190.425C65.0696 189.922 65.3963 189.537 65.8111 189.27C66.2259 189.003 66.696 188.869 67.2216 188.869C67.6278 188.869 67.9545 188.938 68.2017 189.074C68.4517 189.207 68.6449 189.364 68.7812 189.543C68.9205 189.722 69.0284 189.879 69.1051 190.016H69.1818V186.773H70.456V195.5H69.2116V194.482H69.1051C69.0284 194.621 68.9176 194.78 68.7727 194.959C68.6307 195.138 68.4347 195.294 68.1847 195.428C67.9347 195.561 67.6108 195.628 67.2131 195.628ZM67.4943 194.541C67.8608 194.541 68.1705 194.445 68.4233 194.251C68.679 194.055 68.8722 193.784 69.0028 193.438C69.1364 193.091 69.2031 192.687 69.2031 192.227C69.2031 191.773 69.1378 191.375 69.0071 191.034C68.8764 190.693 68.6847 190.428 68.4318 190.237C68.179 190.047 67.8665 189.952 67.4943 189.952C67.1108 189.952 66.7912 190.051 66.5355 190.25C66.2798 190.449 66.0866 190.72 65.956 191.064C65.8281 191.408 65.7642 191.795 65.7642 192.227C65.7642 192.665 65.8295 193.058 65.9602 193.408C66.0909 193.757 66.2841 194.034 66.5398 194.239C66.7983 194.44 67.1165 194.541 67.4943 194.541ZM75.0955 195.632C74.4506 195.632 73.8952 195.494 73.4293 195.219C72.9663 194.94 72.6083 194.55 72.3555 194.047C72.1055 193.541 71.9805 192.949 71.9805 192.27C71.9805 191.599 72.1055 191.009 72.3555 190.497C72.6083 189.986 72.9606 189.587 73.4123 189.3C73.8668 189.013 74.3981 188.869 75.006 188.869C75.3754 188.869 75.7333 188.93 76.0799 189.053C76.4265 189.175 76.7376 189.366 77.0131 189.628C77.2887 189.889 77.506 190.229 77.6651 190.646C77.8242 191.061 77.9038 191.565 77.9038 192.159V192.611H72.7006V191.656H76.6552C76.6552 191.321 76.587 191.024 76.4506 190.766C76.3143 190.504 76.1225 190.298 75.8754 190.148C75.631 189.997 75.3441 189.922 75.0146 189.922C74.6566 189.922 74.3441 190.01 74.0771 190.186C73.8129 190.359 73.6083 190.587 73.4634 190.868C73.3214 191.146 73.2504 191.449 73.2504 191.776V192.521C73.2504 192.959 73.3271 193.331 73.4805 193.638C73.6367 193.945 73.854 194.179 74.1325 194.341C74.4109 194.5 74.7362 194.58 75.1083 194.58C75.3498 194.58 75.57 194.545 75.7688 194.477C75.9677 194.406 76.1396 194.301 76.2844 194.162C76.4293 194.023 76.5401 193.851 76.6168 193.646L77.8228 193.864C77.7262 194.219 77.5529 194.53 77.3029 194.797C77.0558 195.061 76.7447 195.267 76.3697 195.415C75.9975 195.56 75.5728 195.632 75.0955 195.632ZM79.3175 197.955V188.955H80.5618V190.016H80.6683C80.7422 189.879 80.8487 189.722 80.9879 189.543C81.1271 189.364 81.3203 189.207 81.5675 189.074C81.8146 188.938 82.1413 188.869 82.5476 188.869C83.076 188.869 83.5476 189.003 83.9624 189.27C84.3771 189.537 84.7024 189.922 84.9382 190.425C85.1768 190.928 85.2962 191.533 85.2962 192.24C85.2962 192.947 85.1783 193.554 84.9425 194.06C84.7067 194.562 84.3828 194.95 83.9709 195.223C83.5589 195.493 83.0888 195.628 82.5604 195.628C82.1626 195.628 81.8374 195.561 81.5845 195.428C81.3345 195.294 81.1385 195.138 80.9964 194.959C80.8544 194.78 80.745 194.621 80.6683 194.482H80.5916V197.955H79.3175ZM80.5661 192.227C80.5661 192.687 80.6328 193.091 80.7663 193.438C80.8999 193.784 81.093 194.055 81.3459 194.251C81.5987 194.445 81.9084 194.541 82.2749 194.541C82.6555 194.541 82.9737 194.44 83.2294 194.239C83.4851 194.034 83.6783 193.757 83.8089 193.408C83.9425 193.058 84.0092 192.665 84.0092 192.227C84.0092 191.795 83.9439 191.408 83.8132 191.064C83.6854 190.72 83.4922 190.449 83.2337 190.25C82.978 190.051 82.6584 189.952 82.2749 189.952C81.9055 189.952 81.593 190.047 81.3374 190.237C81.0845 190.428 80.8928 190.693 80.7621 191.034C80.6314 191.375 80.5661 191.773 80.5661 192.227ZM89.5447 195.632C88.8999 195.632 88.3445 195.494 87.8786 195.219C87.4155 194.94 87.0575 194.55 86.8047 194.047C86.5547 193.541 86.4297 192.949 86.4297 192.27C86.4297 191.599 86.5547 191.009 86.8047 190.497C87.0575 189.986 87.4098 189.587 87.8615 189.3C88.3161 189.013 88.8473 188.869 89.4553 188.869C89.8246 188.869 90.1825 188.93 90.5291 189.053C90.8757 189.175 91.1868 189.366 91.4624 189.628C91.7379 189.889 91.9553 190.229 92.1143 190.646C92.2734 191.061 92.353 191.565 92.353 192.159V192.611H87.1499V191.656H91.1044C91.1044 191.321 91.0362 191.024 90.8999 190.766C90.7635 190.504 90.5717 190.298 90.3246 190.148C90.0803 189.997 89.7933 189.922 89.4638 189.922C89.1058 189.922 88.7933 190.01 88.5263 190.186C88.2621 190.359 88.0575 190.587 87.9126 190.868C87.7706 191.146 87.6996 191.449 87.6996 191.776V192.521C87.6996 192.959 87.7763 193.331 87.9297 193.638C88.0859 193.945 88.3033 194.179 88.5817 194.341C88.8601 194.5 89.1854 194.58 89.5575 194.58C89.799 194.58 90.0192 194.545 90.218 194.477C90.4169 194.406 90.5888 194.301 90.7337 194.162C90.8786 194.023 90.9893 193.851 91.0661 193.646L92.272 193.864C92.1754 194.219 92.0021 194.53 91.7521 194.797C91.505 195.061 91.1939 195.267 90.8189 195.415C90.4467 195.56 90.022 195.632 89.5447 195.632ZM95.0408 191.614V195.5H93.7667V188.955H94.9897V190.02H95.0707C95.2212 189.673 95.457 189.395 95.7781 189.185C96.1019 188.974 96.5096 188.869 97.0011 188.869C97.4471 188.869 97.8377 188.963 98.1729 189.151C98.5082 189.335 98.7681 189.611 98.9528 189.977C99.1374 190.344 99.2298 190.797 99.2298 191.337V195.5H97.9556V191.49C97.9556 191.016 97.832 190.645 97.5849 190.378C97.3377 190.108 96.9982 189.973 96.5664 189.973C96.271 189.973 96.0082 190.037 95.7781 190.165C95.5508 190.293 95.3704 190.48 95.2369 190.727C95.1062 190.972 95.0408 191.267 95.0408 191.614ZM103.389 195.628C102.86 195.628 102.389 195.493 101.974 195.223C101.562 194.95 101.238 194.562 101.002 194.06C100.77 193.554 100.653 192.947 100.653 192.24C100.653 191.533 100.771 190.928 101.007 190.425C101.245 189.922 101.572 189.537 101.987 189.27C102.402 189.003 102.872 188.869 103.397 188.869C103.804 188.869 104.13 188.938 104.377 189.074C104.627 189.207 104.821 189.364 104.957 189.543C105.096 189.722 105.204 189.879 105.281 190.016H105.358V186.773H106.632V195.5H105.387V194.482H105.281C105.204 194.621 105.093 194.78 104.949 194.959C104.806 195.138 104.61 195.294 104.36 195.428C104.11 195.561 103.787 195.628 103.389 195.628ZM103.67 194.541C104.037 194.541 104.346 194.445 104.599 194.251C104.855 194.055 105.048 193.784 105.179 193.438C105.312 193.091 105.379 192.687 105.379 192.227C105.379 191.773 105.314 191.375 105.183 191.034C105.052 190.693 104.86 190.428 104.608 190.237C104.355 190.047 104.042 189.952 103.67 189.952C103.287 189.952 102.967 190.051 102.711 190.25C102.456 190.449 102.262 190.72 102.132 191.064C102.004 191.408 101.94 191.795 101.94 192.227C101.94 192.665 102.005 193.058 102.136 193.408C102.267 193.757 102.46 194.034 102.716 194.239C102.974 194.44 103.292 194.541 103.67 194.541ZM111.271 195.632C110.626 195.632 110.071 195.494 109.605 195.219C109.142 194.94 108.784 194.55 108.531 194.047C108.281 193.541 108.156 192.949 108.156 192.27C108.156 191.599 108.281 191.009 108.531 190.497C108.784 189.986 109.136 189.587 109.588 189.3C110.043 189.013 110.574 188.869 111.182 188.869C111.551 188.869 111.909 188.93 112.256 189.053C112.602 189.175 112.913 189.366 113.189 189.628C113.464 189.889 113.682 190.229 113.841 190.646C114 191.061 114.08 191.565 114.08 192.159V192.611H108.876V191.656H112.831C112.831 191.321 112.763 191.024 112.626 190.766C112.49 190.504 112.298 190.298 112.051 190.148C111.807 189.997 111.52 189.922 111.19 189.922C110.832 189.922 110.52 190.01 110.253 190.186C109.989 190.359 109.784 190.587 109.639 190.868C109.497 191.146 109.426 191.449 109.426 191.776V192.521C109.426 192.959 109.503 193.331 109.656 193.638C109.812 193.945 110.03 194.179 110.308 194.341C110.587 194.5 110.912 194.58 111.284 194.58C111.526 194.58 111.746 194.545 111.945 194.477C112.143 194.406 112.315 194.301 112.46 194.162C112.605 194.023 112.716 193.851 112.793 193.646L113.999 193.864C113.902 194.219 113.729 194.53 113.479 194.797C113.232 195.061 112.92 195.267 112.545 195.415C112.173 195.56 111.749 195.632 111.271 195.632ZM116.767 191.614V195.5H115.493V188.955H116.716V190.02H116.797C116.948 189.673 117.184 189.395 117.505 189.185C117.828 188.974 118.236 188.869 118.728 188.869C119.174 188.869 119.564 188.963 119.9 189.151C120.235 189.335 120.495 189.611 120.679 189.977C120.864 190.344 120.956 190.797 120.956 191.337V195.5H119.682V191.49C119.682 191.016 119.559 190.645 119.311 190.378C119.064 190.108 118.725 189.973 118.293 189.973C117.998 189.973 117.735 190.037 117.505 190.165C117.277 190.293 117.097 190.48 116.963 190.727C116.833 190.972 116.767 191.267 116.767 191.614ZM125.422 195.632C124.789 195.632 124.243 195.489 123.786 195.202C123.331 194.912 122.982 194.513 122.738 194.004C122.493 193.496 122.371 192.913 122.371 192.257C122.371 191.592 122.496 191.006 122.746 190.497C122.996 189.986 123.348 189.587 123.803 189.3C124.257 189.013 124.793 188.869 125.409 188.869C125.907 188.869 126.35 188.962 126.739 189.146C127.128 189.328 127.442 189.584 127.681 189.913C127.922 190.243 128.066 190.628 128.111 191.068H126.871C126.803 190.761 126.647 190.497 126.402 190.276C126.161 190.054 125.837 189.943 125.431 189.943C125.076 189.943 124.765 190.037 124.498 190.224C124.233 190.409 124.027 190.673 123.88 191.017C123.732 191.358 123.658 191.761 123.658 192.227C123.658 192.705 123.73 193.116 123.875 193.463C124.02 193.81 124.225 194.078 124.489 194.268C124.756 194.459 125.07 194.554 125.431 194.554C125.672 194.554 125.891 194.51 126.087 194.422C126.286 194.331 126.452 194.202 126.586 194.034C126.722 193.866 126.817 193.665 126.871 193.429H128.111C128.066 193.852 127.928 194.23 127.698 194.562C127.468 194.895 127.159 195.156 126.773 195.347C126.39 195.537 125.939 195.632 125.422 195.632ZM132.295 195.632C131.65 195.632 131.094 195.494 130.629 195.219C130.165 194.94 129.808 194.55 129.555 194.047C129.305 193.541 129.18 192.949 129.18 192.27C129.18 191.599 129.305 191.009 129.555 190.497C129.808 189.986 130.16 189.587 130.612 189.3C131.066 189.013 131.597 188.869 132.205 188.869C132.575 188.869 132.933 188.93 133.279 189.053C133.626 189.175 133.937 189.366 134.212 189.628C134.488 189.889 134.705 190.229 134.864 190.646C135.023 191.061 135.103 191.565 135.103 192.159V192.611H129.9V191.656H133.854C133.854 191.321 133.786 191.024 133.65 190.766C133.513 190.504 133.322 190.298 133.075 190.148C132.83 189.997 132.543 189.922 132.214 189.922C131.856 189.922 131.543 190.01 131.276 190.186C131.012 190.359 130.808 190.587 130.663 190.868C130.521 191.146 130.45 191.449 130.45 191.776V192.521C130.45 192.959 130.526 193.331 130.68 193.638C130.836 193.945 131.053 194.179 131.332 194.341C131.61 194.5 131.935 194.58 132.308 194.58C132.549 194.58 132.769 194.545 132.968 194.477C133.167 194.406 133.339 194.301 133.484 194.162C133.629 194.023 133.739 193.851 133.816 193.646L135.022 193.864C134.925 194.219 134.752 194.53 134.502 194.797C134.255 195.061 133.944 195.267 133.569 195.415C133.197 195.56 132.772 195.632 132.295 195.632ZM142.62 195.5H139.795V186.773H142.71C143.565 186.773 144.299 186.947 144.913 187.297C145.526 187.643 145.996 188.142 146.323 188.793C146.653 189.44 146.817 190.217 146.817 191.124C146.817 192.033 146.651 192.814 146.319 193.467C145.989 194.121 145.512 194.624 144.887 194.976C144.262 195.325 143.506 195.5 142.62 195.5ZM141.112 194.349H142.548C143.212 194.349 143.765 194.224 144.205 193.974C144.646 193.722 144.975 193.357 145.194 192.879C145.413 192.399 145.522 191.814 145.522 191.124C145.522 190.439 145.413 189.858 145.194 189.381C144.978 188.903 144.656 188.541 144.227 188.294C143.798 188.047 143.265 187.923 142.629 187.923H141.112V194.349ZM150.257 195.645C149.843 195.645 149.468 195.568 149.132 195.415C148.797 195.259 148.532 195.033 148.336 194.737C148.142 194.442 148.046 194.08 148.046 193.651C148.046 193.281 148.117 192.977 148.259 192.739C148.401 192.5 148.593 192.311 148.834 192.172C149.076 192.033 149.346 191.928 149.644 191.857C149.942 191.786 150.246 191.732 150.556 191.695C150.948 191.649 151.266 191.612 151.51 191.584C151.755 191.553 151.932 191.503 152.043 191.435C152.154 191.366 152.209 191.256 152.209 191.102V191.072C152.209 190.7 152.104 190.412 151.894 190.207C151.686 190.003 151.377 189.901 150.965 189.901C150.536 189.901 150.198 189.996 149.951 190.186C149.706 190.374 149.537 190.582 149.444 190.812L148.246 190.54C148.388 190.142 148.596 189.821 148.868 189.577C149.144 189.33 149.461 189.151 149.819 189.04C150.176 188.926 150.553 188.869 150.948 188.869C151.209 188.869 151.486 188.901 151.779 188.963C152.074 189.023 152.35 189.134 152.605 189.295C152.864 189.457 153.076 189.689 153.24 189.99C153.405 190.288 153.488 190.676 153.488 191.153V195.5H152.243V194.605H152.192C152.11 194.77 151.986 194.932 151.821 195.091C151.657 195.25 151.445 195.382 151.186 195.487C150.928 195.592 150.618 195.645 150.257 195.645ZM150.534 194.622C150.887 194.622 151.188 194.553 151.438 194.413C151.691 194.274 151.882 194.092 152.013 193.868C152.147 193.641 152.213 193.398 152.213 193.139V192.295C152.168 192.341 152.08 192.384 151.949 192.423C151.821 192.46 151.675 192.493 151.51 192.521C151.346 192.547 151.185 192.571 151.029 192.594C150.873 192.614 150.742 192.631 150.637 192.645C150.39 192.676 150.164 192.729 149.959 192.803C149.757 192.876 149.596 192.983 149.473 193.122C149.354 193.259 149.294 193.44 149.294 193.668C149.294 193.983 149.411 194.222 149.644 194.384C149.877 194.543 150.174 194.622 150.534 194.622ZM155.756 197.955C155.565 197.955 155.392 197.939 155.236 197.908C155.08 197.879 154.963 197.848 154.886 197.814L155.193 196.77C155.426 196.832 155.634 196.859 155.815 196.851C155.997 196.842 156.158 196.774 156.297 196.646C156.439 196.518 156.564 196.31 156.672 196.02L156.83 195.585L154.435 188.955H155.798L157.456 194.034H157.524L159.182 188.955H160.55L157.852 196.374C157.727 196.714 157.568 197.003 157.375 197.239C157.182 197.477 156.952 197.656 156.685 197.776C156.418 197.895 156.108 197.955 155.756 197.955Z" fill="#000F30"/>
<path d="M25.5 237.5C25.5 231.843 25.5 229.015 27.2574 227.257C29.0147 225.5 31.8431 225.5 37.5 225.5H387.5C393.157 225.5 395.985 225.5 397.743 227.257C399.5 229.015 399.5 231.843 399.5 237.5V253.5C399.5 259.157 399.5 261.985 397.743 263.743C395.985 265.5 393.157 265.5 387.5 265.5H37.5C31.8431 265.5 29.0147 265.5 27.2574 263.743C25.5 261.985 25.5 259.157 25.5 253.5V237.5Z" fill="#D4F6FA"/>
<path d="M33.875 237.25C33.875 236.566 34.4219 236 35.125 236H40.125C40.8086 236 41.375 236.566 41.375 237.25V242.25C41.375 242.953 40.8086 243.5 40.125 243.5H35.125C34.4219 243.5 33.875 242.953 33.875 242.25V237.25ZM44.793 236.703C44.9883 236.82 45.125 237.035 45.125 237.25V242.25C45.125 242.484 44.9883 242.699 44.793 242.816C44.5781 242.914 44.3438 242.914 44.1484 242.777L42.2734 241.527L42 241.352V241V238.5V238.168L42.2734 237.992L44.1484 236.742C44.3438 236.605 44.5781 236.605 44.793 236.703Z" fill="#0ECAE4"/>
<rect x="53.5" y="247.5" width="128" height="8.75" rx="4.375" fill="#BAE6FD"/>
<path d="M57.6506 234.773V243.5H56.3295V236.094H56.2784L54.1903 237.457V236.196L56.3679 234.773H57.6506ZM63.8849 239.26V240.364H60.0156V239.26H63.8849ZM68.3402 243.632C67.7266 243.632 67.1911 243.491 66.7337 243.21C66.2763 242.929 65.9212 242.536 65.6683 242.03C65.4155 241.524 65.2891 240.933 65.2891 240.257C65.2891 239.578 65.4155 238.984 65.6683 238.476C65.9212 237.967 66.2763 237.572 66.7337 237.291C67.1911 237.01 67.7266 236.869 68.3402 236.869C68.9538 236.869 69.4893 237.01 69.9467 237.291C70.4041 237.572 70.7592 237.967 71.0121 238.476C71.2649 238.984 71.3913 239.578 71.3913 240.257C71.3913 240.933 71.2649 241.524 71.0121 242.03C70.7592 242.536 70.4041 242.929 69.9467 243.21C69.4893 243.491 68.9538 243.632 68.3402 243.632ZM68.3445 242.562C68.7422 242.562 69.0717 242.457 69.3331 242.247C69.5945 242.037 69.7876 241.757 69.9126 241.408C70.0405 241.058 70.1044 240.673 70.1044 240.253C70.1044 239.835 70.0405 239.452 69.9126 239.102C69.7876 238.75 69.5945 238.467 69.3331 238.254C69.0717 238.041 68.7422 237.935 68.3445 237.935C67.9439 237.935 67.6115 238.041 67.3473 238.254C67.0859 238.467 66.8913 238.75 66.7635 239.102C66.6385 239.452 66.576 239.835 66.576 240.253C66.576 240.673 66.6385 241.058 66.7635 241.408C66.8913 241.757 67.0859 242.037 67.3473 242.247C67.6115 242.457 67.9439 242.562 68.3445 242.562ZM74.0877 239.614V243.5H72.8136V236.955H74.0366V238.02H74.1175C74.2681 237.673 74.5039 237.395 74.8249 237.185C75.1488 236.974 75.5565 236.869 76.0479 236.869C76.494 236.869 76.8846 236.963 77.2198 237.151C77.555 237.335 77.815 237.611 77.9996 237.977C78.1843 238.344 78.2766 238.797 78.2766 239.337V243.5H77.0025V239.49C77.0025 239.016 76.8789 238.645 76.6317 238.378C76.3846 238.108 76.0451 237.973 75.6133 237.973C75.3178 237.973 75.055 238.037 74.8249 238.165C74.5977 238.293 74.4173 238.48 74.2837 238.727C74.1531 238.972 74.0877 239.267 74.0877 239.614ZM83.842 239.26V240.364H79.9727V239.26H83.842ZM88.8342 234.773V243.5H87.5131V236.094H87.462L85.3739 237.457V236.196L87.5515 234.773H88.8342ZM95.8068 243.5L93.8807 236.955H95.1974L96.4801 241.761H96.544L97.831 236.955H99.1477L100.426 241.74H100.49L101.764 236.955H103.081L101.159 243.5H99.8594L98.5298 238.774H98.4318L97.1023 243.5H95.8068ZM104.29 243.5V236.955H105.564V243.5H104.29ZM104.934 235.945C104.712 235.945 104.522 235.871 104.363 235.723C104.206 235.572 104.128 235.393 104.128 235.186C104.128 234.976 104.206 234.797 104.363 234.649C104.522 234.499 104.712 234.423 104.934 234.423C105.155 234.423 105.344 234.499 105.5 234.649C105.659 234.797 105.739 234.976 105.739 235.186C105.739 235.393 105.659 235.572 105.5 235.723C105.344 235.871 105.155 235.945 104.934 235.945ZM110.334 236.955V237.977H106.759V236.955H110.334ZM107.717 235.386H108.991V241.578C108.991 241.825 109.028 242.011 109.102 242.136C109.176 242.259 109.271 242.342 109.388 242.388C109.507 242.43 109.636 242.452 109.776 242.452C109.878 242.452 109.967 242.445 110.044 242.43C110.121 242.416 110.18 242.405 110.223 242.396L110.453 243.449C110.379 243.477 110.274 243.506 110.138 243.534C110.001 243.565 109.831 243.582 109.626 243.585C109.291 243.591 108.979 243.531 108.689 243.406C108.399 243.281 108.165 243.088 107.986 242.827C107.807 242.565 107.717 242.237 107.717 241.842V235.386ZM113.158 239.614V243.5H111.884V234.773H113.141V238.02H113.222C113.375 237.668 113.61 237.388 113.925 237.18C114.24 236.973 114.652 236.869 115.161 236.869C115.61 236.869 116.002 236.962 116.337 237.146C116.675 237.331 116.936 237.607 117.121 237.973C117.309 238.337 117.402 238.791 117.402 239.337V243.5H116.128V239.49C116.128 239.01 116.005 238.638 115.757 238.374C115.51 238.107 115.167 237.973 114.726 237.973C114.425 237.973 114.155 238.037 113.917 238.165C113.681 238.293 113.495 238.48 113.358 238.727C113.225 238.972 113.158 239.267 113.158 239.614ZM122.381 243.5V234.773H123.697V238.565H128.048V234.773H129.369V243.5H128.048V239.695H123.697V243.5H122.381ZM133.089 243.645C132.675 243.645 132.3 243.568 131.964 243.415C131.629 243.259 131.364 243.033 131.168 242.737C130.974 242.442 130.878 242.08 130.878 241.651C130.878 241.281 130.949 240.977 131.091 240.739C131.233 240.5 131.425 240.311 131.666 240.172C131.908 240.033 132.178 239.928 132.476 239.857C132.774 239.786 133.078 239.732 133.388 239.695C133.78 239.649 134.098 239.612 134.342 239.584C134.587 239.553 134.764 239.503 134.875 239.435C134.986 239.366 135.041 239.256 135.041 239.102V239.072C135.041 238.7 134.936 238.412 134.726 238.207C134.518 238.003 134.209 237.901 133.797 237.901C133.368 237.901 133.03 237.996 132.783 238.186C132.538 238.374 132.369 238.582 132.276 238.812L131.078 238.54C131.22 238.142 131.428 237.821 131.7 237.577C131.976 237.33 132.293 237.151 132.651 237.04C133.009 236.926 133.385 236.869 133.78 236.869C134.041 236.869 134.318 236.901 134.611 236.963C134.906 237.023 135.182 237.134 135.438 237.295C135.696 237.457 135.908 237.689 136.072 237.99C136.237 238.288 136.32 238.676 136.32 239.153V243.5H135.075V242.605H135.024C134.942 242.77 134.818 242.932 134.653 243.091C134.489 243.25 134.277 243.382 134.018 243.487C133.76 243.592 133.45 243.645 133.089 243.645ZM133.366 242.622C133.719 242.622 134.02 242.553 134.27 242.413C134.523 242.274 134.714 242.092 134.845 241.868C134.979 241.641 135.045 241.398 135.045 241.139V240.295C135 240.341 134.912 240.384 134.781 240.423C134.653 240.46 134.507 240.493 134.342 240.521C134.178 240.547 134.017 240.571 133.861 240.594C133.705 240.614 133.574 240.631 133.469 240.645C133.222 240.676 132.996 240.729 132.791 240.803C132.589 240.876 132.428 240.983 132.305 241.122C132.186 241.259 132.126 241.44 132.126 241.668C132.126 241.983 132.243 242.222 132.476 242.384C132.709 242.543 133.006 242.622 133.366 242.622ZM139.291 239.614V243.5H138.017V236.955H139.24V238.02H139.321C139.471 237.673 139.707 237.395 140.028 237.185C140.352 236.974 140.76 236.869 141.251 236.869C141.697 236.869 142.088 236.963 142.423 237.151C142.758 237.335 143.018 237.611 143.203 237.977C143.387 238.344 143.48 238.797 143.48 239.337V243.5H142.206V239.49C142.206 239.016 142.082 238.645 141.835 238.378C141.588 238.108 141.248 237.973 140.816 237.973C140.521 237.973 140.258 238.037 140.028 238.165C139.801 238.293 139.62 238.48 139.487 238.727C139.356 238.972 139.291 239.267 139.291 239.614ZM146.463 239.614V243.5H145.189V236.955H146.412V238.02H146.493C146.643 237.673 146.879 237.395 147.2 237.185C147.524 236.974 147.931 236.869 148.423 236.869C148.869 236.869 149.26 236.963 149.595 237.151C149.93 237.335 150.19 237.611 150.375 237.977C150.559 238.344 150.652 238.797 150.652 239.337V243.5H149.377V239.49C149.377 239.016 149.254 238.645 149.007 238.378C148.76 238.108 148.42 237.973 147.988 237.973C147.693 237.973 147.43 238.037 147.2 238.165C146.973 238.293 146.792 238.48 146.659 238.727C146.528 238.972 146.463 239.267 146.463 239.614ZM154.265 243.645C153.85 243.645 153.475 243.568 153.14 243.415C152.805 243.259 152.539 243.033 152.343 242.737C152.15 242.442 152.054 242.08 152.054 241.651C152.054 241.281 152.125 240.977 152.267 240.739C152.409 240.5 152.6 240.311 152.842 240.172C153.083 240.033 153.353 239.928 153.652 239.857C153.95 239.786 154.254 239.732 154.564 239.695C154.956 239.649 155.274 239.612 155.518 239.584C155.762 239.553 155.94 239.503 156.051 239.435C156.162 239.366 156.217 239.256 156.217 239.102V239.072C156.217 238.7 156.112 238.412 155.902 238.207C155.694 238.003 155.385 237.901 154.973 237.901C154.544 237.901 154.206 237.996 153.958 238.186C153.714 238.374 153.545 238.582 153.451 238.812L152.254 238.54C152.396 238.142 152.603 237.821 152.876 237.577C153.152 237.33 153.468 237.151 153.826 237.04C154.184 236.926 154.561 236.869 154.956 236.869C155.217 236.869 155.494 236.901 155.787 236.963C156.082 237.023 156.358 237.134 156.613 237.295C156.872 237.457 157.083 237.689 157.248 237.99C157.413 238.288 157.495 238.676 157.495 239.153V243.5H156.251V242.605H156.2C156.118 242.77 155.994 242.932 155.829 243.091C155.664 243.25 155.453 243.382 155.194 243.487C154.936 243.592 154.626 243.645 154.265 243.645ZM154.542 242.622C154.895 242.622 155.196 242.553 155.446 242.413C155.699 242.274 155.89 242.092 156.021 241.868C156.154 241.641 156.221 241.398 156.221 241.139V240.295C156.176 240.341 156.088 240.384 155.957 240.423C155.829 240.46 155.683 240.493 155.518 240.521C155.353 240.547 155.193 240.571 155.037 240.594C154.88 240.614 154.75 240.631 154.645 240.645C154.397 240.676 154.172 240.729 153.967 240.803C153.765 240.876 153.603 240.983 153.481 241.122C153.362 241.259 153.302 241.44 153.302 241.668C153.302 241.983 153.419 242.222 153.652 242.384C153.885 242.543 154.181 242.622 154.542 242.622Z" fill="#000F30"/>
<path d="M25.5 285.5C25.5 279.843 25.5 277.015 27.2574 275.257C29.0147 273.5 31.8431 273.5 37.5 273.5H387.5C393.157 273.5 395.985 273.5 397.743 275.257C399.5 277.015 399.5 279.843 399.5 285.5V301.5C399.5 307.157 399.5 309.985 397.743 311.743C395.985 313.5 393.157 313.5 387.5 313.5H37.5C31.8431 313.5 29.0147 313.5 27.2574 311.743C25.5 309.985 25.5 307.157 25.5 301.5V285.5Z" fill="#D4F6FA"/>
<path d="M33.875 285.25C33.875 284.566 34.4219 284 35.125 284H40.125C40.8086 284 41.375 284.566 41.375 285.25V290.25C41.375 290.953 40.8086 291.5 40.125 291.5H35.125C34.4219 291.5 33.875 290.953 33.875 290.25V285.25ZM44.793 284.703C44.9883 284.82 45.125 285.035 45.125 285.25V290.25C45.125 290.484 44.9883 290.699 44.793 290.816C44.5781 290.914 44.3438 290.914 44.1484 290.777L42.2734 289.527L42 289.352V289V286.5V286.168L42.2734 285.992L44.1484 284.742C44.3438 284.605 44.5781 284.605 44.793 284.703Z" fill="#0ECAE4"/>
<rect x="53.5" y="295.5" width="128" height="8.75" rx="4.375" fill="#BAE6FD"/>
<path d="M55.7756 282.773V291.5H54.4588V282.773H55.7756ZM58.8651 287.614V291.5H57.5909V284.955H58.8139V286.02H58.8949C59.0455 285.673 59.2813 285.395 59.6023 285.185C59.9261 284.974 60.3338 284.869 60.8253 284.869C61.2713 284.869 61.6619 284.963 61.9972 285.151C62.3324 285.335 62.5923 285.611 62.777 285.977C62.9616 286.344 63.054 286.797 63.054 287.337V291.5H61.7798V287.49C61.7798 287.016 61.6563 286.645 61.4091 286.378C61.1619 286.108 60.8224 285.973 60.3906 285.973C60.0952 285.973 59.8324 286.037 59.6023 286.165C59.375 286.293 59.1946 286.48 59.0611 286.727C58.9304 286.972 58.8651 287.267 58.8651 287.614ZM67.8182 284.955V285.977H64.2429V284.955H67.8182ZM65.2017 283.386H66.4759V289.578C66.4759 289.825 66.5128 290.011 66.5866 290.136C66.6605 290.259 66.7557 290.342 66.8722 290.388C66.9915 290.43 67.1207 290.452 67.2599 290.452C67.3622 290.452 67.4517 290.445 67.5284 290.43C67.6051 290.416 67.6648 290.405 67.7074 290.396L67.9375 291.449C67.8636 291.477 67.7585 291.506 67.6222 291.534C67.4858 291.565 67.3153 291.582 67.1108 291.585C66.7756 291.591 66.4631 291.531 66.1733 291.406C65.8835 291.281 65.6491 291.088 65.4702 290.827C65.2912 290.565 65.2017 290.237 65.2017 289.842V283.386ZM71.9783 291.632C71.3335 291.632 70.7781 291.494 70.3121 291.219C69.8491 290.94 69.4911 290.55 69.2383 290.047C68.9883 289.541 68.8633 288.949 68.8633 288.27C68.8633 287.599 68.9883 287.009 69.2383 286.497C69.4911 285.986 69.8434 285.587 70.2951 285.3C70.7496 285.013 71.2809 284.869 71.8888 284.869C72.2582 284.869 72.6161 284.93 72.9627 285.053C73.3093 285.175 73.6204 285.366 73.896 285.628C74.1715 285.889 74.3888 286.229 74.5479 286.646C74.707 287.061 74.7866 287.565 74.7866 288.159V288.611H69.5835V287.656H73.538C73.538 287.321 73.4698 287.024 73.3335 286.766C73.1971 286.504 73.0053 286.298 72.7582 286.148C72.5138 285.997 72.2269 285.922 71.8974 285.922C71.5394 285.922 71.2269 286.01 70.9599 286.186C70.6957 286.359 70.4911 286.587 70.3462 286.868C70.2042 287.146 70.1332 287.449 70.1332 287.776V288.521C70.1332 288.959 70.2099 289.331 70.3633 289.638C70.5195 289.945 70.7369 290.179 71.0153 290.341C71.2937 290.5 71.619 290.58 71.9911 290.58C72.2326 290.58 72.4528 290.545 72.6516 290.477C72.8505 290.406 73.0224 290.301 73.1673 290.162C73.3121 290.023 73.4229 289.851 73.4996 289.646L74.7056 289.864C74.609 290.219 74.4357 290.53 74.1857 290.797C73.9386 291.061 73.6275 291.267 73.2525 291.415C72.8803 291.56 72.4556 291.632 71.9783 291.632ZM76.2003 291.5V284.955H77.4318V285.994H77.5C77.6193 285.642 77.8295 285.365 78.1307 285.163C78.4347 284.959 78.7784 284.857 79.1619 284.857C79.2415 284.857 79.3352 284.859 79.4432 284.865C79.554 284.871 79.6406 284.878 79.7031 284.886V286.105C79.652 286.091 79.5611 286.075 79.4304 286.058C79.2997 286.038 79.169 286.028 79.0384 286.028C78.7372 286.028 78.4688 286.092 78.233 286.22C78 286.345 77.8153 286.52 77.679 286.744C77.5426 286.966 77.4744 287.219 77.4744 287.503V291.5H76.2003ZM86.6044 284.955L84.2308 291.5H82.8672L80.4893 284.955H81.8572L83.5149 289.991H83.5831L85.2365 284.955H86.6044ZM87.8018 291.5V284.955H89.076V291.5H87.8018ZM88.4453 283.945C88.2237 283.945 88.0334 283.871 87.8743 283.723C87.718 283.572 87.6399 283.393 87.6399 283.186C87.6399 282.976 87.718 282.797 87.8743 282.649C88.0334 282.499 88.2237 282.423 88.4453 282.423C88.6669 282.423 88.8558 282.499 89.0121 282.649C89.1712 282.797 89.2507 282.976 89.2507 283.186C89.2507 283.393 89.1712 283.572 89.0121 283.723C88.8558 283.871 88.6669 283.945 88.4453 283.945ZM93.6112 291.632C92.9663 291.632 92.4109 291.494 91.945 291.219C91.4819 290.94 91.1239 290.55 90.8711 290.047C90.6211 289.541 90.4961 288.949 90.4961 288.27C90.4961 287.599 90.6211 287.009 90.8711 286.497C91.1239 285.986 91.4762 285.587 91.9279 285.3C92.3825 285.013 92.9137 284.869 93.5217 284.869C93.891 284.869 94.2489 284.93 94.5955 285.053C94.9421 285.175 95.2532 285.366 95.5288 285.628C95.8043 285.889 96.0217 286.229 96.1808 286.646C96.3398 287.061 96.4194 287.565 96.4194 288.159V288.611H91.2163V287.656H95.1708C95.1708 287.321 95.1026 287.024 94.9663 286.766C94.8299 286.504 94.6381 286.298 94.391 286.148C94.1467 285.997 93.8597 285.922 93.5302 285.922C93.1722 285.922 92.8597 286.01 92.5927 286.186C92.3285 286.359 92.1239 286.587 91.979 286.868C91.837 287.146 91.766 287.449 91.766 287.776V288.521C91.766 288.959 91.8427 289.331 91.9961 289.638C92.1523 289.945 92.3697 290.179 92.6481 290.341C92.9265 290.5 93.2518 290.58 93.6239 290.58C93.8654 290.58 94.0856 290.545 94.2844 290.477C94.4833 290.406 94.6552 290.301 94.8001 290.162C94.945 290.023 95.0558 289.851 95.1325 289.646L96.3384 289.864C96.2418 290.219 96.0685 290.53 95.8185 290.797C95.5714 291.061 95.2603 291.267 94.8853 291.415C94.5131 291.56 94.0884 291.632 93.6112 291.632ZM99.2404 291.5L97.3143 284.955H98.631L99.9137 289.761H99.9776L101.265 284.955H102.581L103.86 289.74H103.924L105.198 284.955H106.515L104.593 291.5H103.293L101.963 286.774H101.865L100.536 291.5H99.2404ZM112.319 291.5L110.392 284.955H111.709L112.992 289.761H113.056L114.343 284.955H115.659L116.938 289.74H117.002L118.276 284.955H119.593L117.671 291.5H116.371L115.042 286.774H114.944L113.614 291.5H112.319ZM120.802 291.5V284.955H122.076V291.5H120.802ZM121.445 283.945C121.224 283.945 121.033 283.871 120.874 283.723C120.718 283.572 120.64 283.393 120.64 283.186C120.64 282.976 120.718 282.797 120.874 282.649C121.033 282.499 121.224 282.423 121.445 282.423C121.667 282.423 121.856 282.499 122.012 282.649C122.171 282.797 122.251 282.976 122.251 283.186C122.251 283.393 122.171 283.572 122.012 283.723C121.856 283.871 121.667 283.945 121.445 283.945ZM126.846 284.955V285.977H123.27V284.955H126.846ZM124.229 283.386H125.503V289.578C125.503 289.825 125.54 290.011 125.614 290.136C125.688 290.259 125.783 290.342 125.9 290.388C126.019 290.43 126.148 290.452 126.287 290.452C126.39 290.452 126.479 290.445 126.556 290.43C126.632 290.416 126.692 290.405 126.735 290.396L126.965 291.449C126.891 291.477 126.786 291.506 126.65 291.534C126.513 291.565 126.343 291.582 126.138 291.585C125.803 291.591 125.49 291.531 125.201 291.406C124.911 291.281 124.676 291.088 124.498 290.827C124.319 290.565 124.229 290.237 124.229 289.842V283.386ZM129.67 287.614V291.5H128.396V282.773H129.653V286.02H129.734C129.887 285.668 130.121 285.388 130.437 285.18C130.752 284.973 131.164 284.869 131.673 284.869C132.121 284.869 132.513 284.962 132.849 285.146C133.187 285.331 133.448 285.607 133.633 285.973C133.82 286.337 133.914 286.791 133.914 287.337V291.5H132.64V287.49C132.64 287.01 132.516 286.638 132.269 286.374C132.022 286.107 131.678 285.973 131.238 285.973C130.937 285.973 130.667 286.037 130.428 286.165C130.192 286.293 130.006 286.48 129.87 286.727C129.737 286.972 129.67 287.267 129.67 287.614ZM142.284 282.773H143.597V288.96C143.597 289.52 143.486 289.999 143.265 290.396C143.046 290.794 142.738 291.098 142.34 291.308C141.942 291.516 141.476 291.619 140.942 291.619C140.451 291.619 140.009 291.53 139.617 291.351C139.228 291.172 138.919 290.912 138.692 290.571C138.468 290.227 138.355 289.81 138.355 289.318H139.664C139.664 289.56 139.719 289.768 139.83 289.945C139.944 290.121 140.098 290.259 140.294 290.358C140.493 290.455 140.721 290.503 140.976 290.503C141.255 290.503 141.49 290.445 141.684 290.328C141.88 290.209 142.029 290.034 142.131 289.804C142.233 289.574 142.284 289.293 142.284 288.96V282.773ZM147.316 291.645C146.901 291.645 146.526 291.568 146.191 291.415C145.856 291.259 145.59 291.033 145.394 290.737C145.201 290.442 145.104 290.08 145.104 289.651C145.104 289.281 145.175 288.977 145.317 288.739C145.46 288.5 145.651 288.311 145.893 288.172C146.134 288.033 146.404 287.928 146.702 287.857C147.001 287.786 147.305 287.732 147.614 287.695C148.006 287.649 148.325 287.612 148.569 287.584C148.813 287.553 148.991 287.503 149.102 287.435C149.212 287.366 149.268 287.256 149.268 287.102V287.072C149.268 286.7 149.163 286.412 148.952 286.207C148.745 286.003 148.435 285.901 148.023 285.901C147.594 285.901 147.256 285.996 147.009 286.186C146.765 286.374 146.596 286.582 146.502 286.812L145.305 286.54C145.447 286.142 145.654 285.821 145.927 285.577C146.202 285.33 146.519 285.151 146.877 285.04C147.235 284.926 147.612 284.869 148.006 284.869C148.268 284.869 148.545 284.901 148.837 284.963C149.133 285.023 149.408 285.134 149.664 285.295C149.923 285.457 150.134 285.689 150.299 285.99C150.464 286.288 150.546 286.676 150.546 287.153V291.5H149.302V290.605H149.251C149.168 290.77 149.045 290.932 148.88 291.091C148.715 291.25 148.504 291.382 148.245 291.487C147.987 291.592 147.677 291.645 147.316 291.645ZM147.593 290.622C147.945 290.622 148.246 290.553 148.496 290.413C148.749 290.274 148.941 290.092 149.072 289.868C149.205 289.641 149.272 289.398 149.272 289.139V288.295C149.227 288.341 149.138 288.384 149.008 288.423C148.88 288.46 148.734 288.493 148.569 288.521C148.404 288.547 148.244 288.571 148.087 288.594C147.931 288.614 147.8 288.631 147.695 288.645C147.448 288.676 147.222 288.729 147.018 288.803C146.816 288.876 146.654 288.983 146.532 289.122C146.413 289.259 146.353 289.44 146.353 289.668C146.353 289.983 146.469 290.222 146.702 290.384C146.935 290.543 147.232 290.622 147.593 290.622ZM152.243 291.5V284.955H153.466V286.02H153.547C153.684 285.659 153.907 285.378 154.216 285.176C154.526 284.972 154.897 284.869 155.328 284.869C155.766 284.869 156.132 284.972 156.428 285.176C156.726 285.381 156.946 285.662 157.088 286.02H157.157C157.313 285.67 157.561 285.392 157.902 285.185C158.243 284.974 158.65 284.869 159.121 284.869C159.715 284.869 160.199 285.055 160.574 285.428C160.952 285.8 161.141 286.361 161.141 287.111V291.5H159.867V287.23C159.867 286.787 159.746 286.466 159.505 286.267C159.263 286.068 158.975 285.969 158.64 285.969C158.225 285.969 157.902 286.097 157.672 286.352C157.442 286.605 157.327 286.93 157.327 287.328V291.5H156.057V287.149C156.057 286.794 155.946 286.509 155.725 286.293C155.503 286.077 155.215 285.969 154.86 285.969C154.618 285.969 154.395 286.033 154.191 286.161C153.989 286.286 153.826 286.46 153.701 286.685C153.578 286.909 153.517 287.169 153.517 287.464V291.5H152.243ZM165.67 291.632C165.025 291.632 164.469 291.494 164.004 291.219C163.54 290.94 163.183 290.55 162.93 290.047C162.68 289.541 162.555 288.949 162.555 288.27C162.555 287.599 162.68 287.009 162.93 286.497C163.183 285.986 163.535 285.587 163.987 285.3C164.441 285.013 164.972 284.869 165.58 284.869C165.95 284.869 166.308 284.93 166.654 285.053C167.001 285.175 167.312 285.366 167.587 285.628C167.863 285.889 168.08 286.229 168.239 286.646C168.398 287.061 168.478 287.565 168.478 288.159V288.611H163.275V287.656H167.229C167.229 287.321 167.161 287.024 167.025 286.766C166.888 286.504 166.697 286.298 166.45 286.148C166.205 285.997 165.918 285.922 165.589 285.922C165.231 285.922 164.918 286.01 164.651 286.186C164.387 286.359 164.183 286.587 164.038 286.868C163.896 287.146 163.825 287.449 163.825 287.776V288.521C163.825 288.959 163.901 289.331 164.055 289.638C164.211 289.945 164.428 290.179 164.707 290.341C164.985 290.5 165.31 290.58 165.683 290.58C165.924 290.58 166.144 290.545 166.343 290.477C166.542 290.406 166.714 290.301 166.859 290.162C167.004 290.023 167.114 289.851 167.191 289.646L168.397 289.864C168.3 290.219 168.127 290.53 167.877 290.797C167.63 291.061 167.319 291.267 166.944 291.415C166.572 291.56 166.147 291.632 165.67 291.632ZM174.797 286.553L173.642 286.757C173.593 286.609 173.517 286.469 173.412 286.335C173.309 286.202 173.17 286.092 172.994 286.007C172.818 285.922 172.598 285.879 172.333 285.879C171.973 285.879 171.672 285.96 171.43 286.122C171.189 286.281 171.068 286.487 171.068 286.74C171.068 286.959 171.149 287.135 171.311 287.268C171.473 287.402 171.734 287.511 172.095 287.597L173.135 287.835C173.737 287.974 174.186 288.189 174.481 288.479C174.777 288.768 174.924 289.145 174.924 289.608C174.924 290 174.811 290.349 174.583 290.656C174.359 290.96 174.045 291.199 173.642 291.372C173.241 291.545 172.777 291.632 172.248 291.632C171.515 291.632 170.917 291.476 170.454 291.163C169.991 290.848 169.707 290.401 169.602 289.821L170.833 289.634C170.91 289.955 171.068 290.197 171.306 290.362C171.545 290.524 171.856 290.605 172.24 290.605C172.657 290.605 172.991 290.518 173.241 290.345C173.491 290.169 173.616 289.955 173.616 289.702C173.616 289.497 173.539 289.325 173.386 289.186C173.235 289.047 173.004 288.942 172.691 288.871L171.583 288.628C170.973 288.489 170.521 288.267 170.228 287.963C169.939 287.659 169.794 287.274 169.794 286.808C169.794 286.422 169.902 286.084 170.118 285.794C170.333 285.504 170.632 285.278 171.012 285.116C171.393 284.952 171.829 284.869 172.321 284.869C173.028 284.869 173.585 285.023 173.991 285.33C174.397 285.634 174.666 286.041 174.797 286.553ZM179.603 282.773H181.201L183.98 289.557H184.082L186.86 282.773H188.458V291.5H187.206V285.185H187.125L184.551 291.487H183.511L180.937 285.18H180.856V291.5H179.603V282.773ZM193.028 291.632C192.394 291.632 191.849 291.489 191.391 291.202C190.937 290.912 190.587 290.513 190.343 290.004C190.099 289.496 189.977 288.913 189.977 288.257C189.977 287.592 190.102 287.006 190.352 286.497C190.602 285.986 190.954 285.587 191.408 285.3C191.863 285.013 192.398 284.869 193.015 284.869C193.512 284.869 193.955 284.962 194.344 285.146C194.734 285.328 195.048 285.584 195.286 285.913C195.528 286.243 195.671 286.628 195.717 287.068H194.477C194.408 286.761 194.252 286.497 194.008 286.276C193.766 286.054 193.442 285.943 193.036 285.943C192.681 285.943 192.37 286.037 192.103 286.224C191.839 286.409 191.633 286.673 191.485 287.017C191.337 287.358 191.263 287.761 191.263 288.227C191.263 288.705 191.336 289.116 191.481 289.463C191.626 289.81 191.83 290.078 192.094 290.268C192.362 290.459 192.675 290.554 193.036 290.554C193.278 290.554 193.496 290.51 193.692 290.422C193.891 290.331 194.058 290.202 194.191 290.034C194.327 289.866 194.423 289.665 194.477 289.429H195.717C195.671 289.852 195.533 290.23 195.303 290.562C195.073 290.895 194.765 291.156 194.379 291.347C193.995 291.537 193.545 291.632 193.028 291.632ZM203.088 285.53C203.005 285.271 202.895 285.04 202.755 284.835C202.619 284.628 202.456 284.452 202.265 284.307C202.075 284.159 201.858 284.047 201.613 283.97C201.372 283.893 201.106 283.855 200.816 283.855C200.325 283.855 199.882 283.982 199.487 284.234C199.092 284.487 198.779 284.858 198.549 285.347C198.322 285.832 198.208 286.428 198.208 287.132C198.208 287.839 198.324 288.437 198.554 288.926C198.784 289.415 199.099 289.786 199.5 290.038C199.9 290.291 200.356 290.418 200.868 290.418C201.342 290.418 201.755 290.321 202.108 290.128C202.463 289.935 202.737 289.662 202.93 289.31C203.126 288.955 203.224 288.537 203.224 288.057L203.565 288.121H201.068V287.034H204.498V288.027C204.498 288.76 204.342 289.396 204.029 289.936C203.72 290.473 203.291 290.888 202.743 291.18C202.197 291.473 201.572 291.619 200.868 291.619C200.078 291.619 199.385 291.438 198.788 291.074C198.194 290.71 197.731 290.195 197.399 289.527C197.066 288.857 196.9 288.061 196.9 287.141C196.9 286.445 196.997 285.82 197.19 285.266C197.383 284.712 197.654 284.241 198.004 283.855C198.356 283.466 198.77 283.169 199.244 282.964C199.721 282.757 200.243 282.653 200.808 282.653C201.279 282.653 201.718 282.723 202.125 282.862C202.534 283.001 202.897 283.199 203.216 283.455C203.537 283.71 203.802 284.014 204.012 284.366C204.223 284.716 204.365 285.104 204.439 285.53H203.088ZM206.478 291.5V284.955H207.752V291.5H206.478ZM207.121 283.945C206.9 283.945 206.709 283.871 206.55 283.723C206.394 283.572 206.316 283.393 206.316 283.186C206.316 282.976 206.394 282.797 206.55 282.649C206.709 282.499 206.9 282.423 207.121 282.423C207.343 282.423 207.532 282.499 207.688 282.649C207.847 282.797 207.926 282.976 207.926 283.186C207.926 283.393 207.847 283.572 207.688 283.723C207.532 283.871 207.343 283.945 207.121 283.945ZM210.74 282.773V291.5H209.466V282.773H210.74ZM213.728 282.773V291.5H212.454V282.773H213.728Z" fill="#000F30"/>
<path d="M218.989 287.136C218.989 286.068 219.13 285.085 219.411 284.188C219.692 283.29 220.103 282.462 220.642 281.703H221.81C221.6 281.984 221.404 282.33 221.222 282.739C221.04 283.148 220.881 283.597 220.745 284.085C220.608 284.571 220.502 285.075 220.425 285.598C220.348 286.118 220.31 286.631 220.31 287.136C220.31 287.812 220.377 288.497 220.51 289.19C220.644 289.884 220.824 290.527 221.051 291.121C221.279 291.714 221.532 292.199 221.81 292.574H220.642C220.103 291.815 219.692 290.987 219.411 290.089C219.13 289.192 218.989 288.207 218.989 287.136ZM228.016 285.065C227.97 284.662 227.783 284.349 227.453 284.128C227.124 283.903 226.709 283.791 226.209 283.791C225.851 283.791 225.541 283.848 225.28 283.962C225.018 284.072 224.815 284.226 224.67 284.422C224.528 284.615 224.457 284.835 224.457 285.082C224.457 285.29 224.506 285.469 224.602 285.619C224.702 285.77 224.831 285.896 224.99 285.999C225.152 286.098 225.325 286.182 225.51 286.25C225.695 286.315 225.872 286.369 226.043 286.412L226.895 286.634C227.173 286.702 227.459 286.794 227.751 286.911C228.044 287.027 228.315 287.18 228.565 287.371C228.815 287.561 229.017 287.797 229.17 288.078C229.327 288.359 229.405 288.696 229.405 289.088C229.405 289.582 229.277 290.021 229.021 290.405C228.768 290.788 228.401 291.091 227.918 291.312C227.438 291.534 226.857 291.645 226.175 291.645C225.521 291.645 224.956 291.541 224.479 291.334C224.001 291.126 223.628 290.832 223.358 290.452C223.088 290.068 222.939 289.614 222.911 289.088H224.232C224.257 289.403 224.359 289.666 224.538 289.876C224.72 290.084 224.952 290.239 225.233 290.341C225.517 290.44 225.828 290.49 226.166 290.49C226.538 290.49 226.869 290.432 227.159 290.315C227.452 290.196 227.682 290.031 227.849 289.821C228.017 289.608 228.101 289.359 228.101 289.075C228.101 288.817 228.027 288.605 227.879 288.44C227.734 288.276 227.537 288.139 227.287 288.031C227.04 287.923 226.76 287.828 226.447 287.746L225.416 287.464C224.717 287.274 224.163 286.994 223.754 286.625C223.348 286.256 223.145 285.767 223.145 285.159C223.145 284.656 223.281 284.217 223.554 283.842C223.827 283.467 224.196 283.176 224.662 282.969C225.128 282.759 225.653 282.653 226.239 282.653C226.83 282.653 227.351 282.757 227.803 282.964C228.257 283.172 228.615 283.457 228.876 283.821C229.138 284.182 229.274 284.597 229.286 285.065H228.016ZM233.697 291.632C233.052 291.632 232.497 291.494 232.031 291.219C231.568 290.94 231.21 290.55 230.957 290.047C230.707 289.541 230.582 288.949 230.582 288.27C230.582 287.599 230.707 287.009 230.957 286.497C231.21 285.986 231.562 285.587 232.014 285.3C232.468 285.013 233 284.869 233.608 284.869C233.977 284.869 234.335 284.93 234.681 285.053C235.028 285.175 235.339 285.366 235.615 285.628C235.89 285.889 236.108 286.229 236.267 286.646C236.426 287.061 236.505 287.565 236.505 288.159V288.611H231.302V287.656H235.257C235.257 287.321 235.189 287.024 235.052 286.766C234.916 286.504 234.724 286.298 234.477 286.148C234.233 285.997 233.946 285.922 233.616 285.922C233.258 285.922 232.946 286.01 232.679 286.186C232.414 286.359 232.21 286.587 232.065 286.868C231.923 287.146 231.852 287.449 231.852 287.776V288.521C231.852 288.959 231.929 289.331 232.082 289.638C232.238 289.945 232.456 290.179 232.734 290.341C233.012 290.5 233.338 290.58 233.71 290.58C233.951 290.58 234.172 290.545 234.37 290.477C234.569 290.406 234.741 290.301 234.886 290.162C235.031 290.023 235.142 289.851 235.218 289.646L236.424 289.864C236.328 290.219 236.154 290.53 235.904 290.797C235.657 291.061 235.346 291.267 234.971 291.415C234.599 291.56 234.174 291.632 233.697 291.632ZM239.193 287.614V291.5H237.919V284.955H239.142V286.02H239.223C239.374 285.673 239.609 285.395 239.93 285.185C240.254 284.974 240.662 284.869 241.153 284.869C241.599 284.869 241.99 284.963 242.325 285.151C242.661 285.335 242.92 285.611 243.105 285.977C243.29 286.344 243.382 286.797 243.382 287.337V291.5H242.108V287.49C242.108 287.016 241.984 286.645 241.737 286.378C241.49 286.108 241.151 285.973 240.719 285.973C240.423 285.973 240.161 286.037 239.93 286.165C239.703 286.293 239.523 286.48 239.389 286.727C239.259 286.972 239.193 287.267 239.193 287.614ZM245.091 291.5V284.955H246.365V291.5H245.091ZM245.734 283.945C245.513 283.945 245.322 283.871 245.163 283.723C245.007 283.572 244.929 283.393 244.929 283.186C244.929 282.976 245.007 282.797 245.163 282.649C245.322 282.499 245.513 282.423 245.734 282.423C245.956 282.423 246.145 282.499 246.301 282.649C246.46 282.797 246.54 282.976 246.54 283.186C246.54 283.393 246.46 283.572 246.301 283.723C246.145 283.871 245.956 283.945 245.734 283.945ZM250.836 291.632C250.223 291.632 249.687 291.491 249.23 291.21C248.772 290.929 248.417 290.536 248.164 290.03C247.912 289.524 247.785 288.933 247.785 288.257C247.785 287.578 247.912 286.984 248.164 286.476C248.417 285.967 248.772 285.572 249.23 285.291C249.687 285.01 250.223 284.869 250.836 284.869C251.45 284.869 251.985 285.01 252.443 285.291C252.9 285.572 253.255 285.967 253.508 286.476C253.761 286.984 253.887 287.578 253.887 288.257C253.887 288.933 253.761 289.524 253.508 290.03C253.255 290.536 252.9 290.929 252.443 291.21C251.985 291.491 251.45 291.632 250.836 291.632ZM250.841 290.562C251.238 290.562 251.568 290.457 251.829 290.247C252.091 290.037 252.284 289.757 252.409 289.408C252.537 289.058 252.6 288.673 252.6 288.253C252.6 287.835 252.537 287.452 252.409 287.102C252.284 286.75 252.091 286.467 251.829 286.254C251.568 286.041 251.238 285.935 250.841 285.935C250.44 285.935 250.108 286.041 249.843 286.254C249.582 286.467 249.387 286.75 249.26 287.102C249.135 287.452 249.072 287.835 249.072 288.253C249.072 288.673 249.135 289.058 249.26 289.408C249.387 289.757 249.582 290.037 249.843 290.247C250.108 290.457 250.44 290.562 250.841 290.562ZM255.31 291.5V284.955H256.541V285.994H256.609C256.729 285.642 256.939 285.365 257.24 285.163C257.544 284.959 257.888 284.857 258.271 284.857C258.351 284.857 258.445 284.859 258.553 284.865C258.663 284.871 258.75 284.878 258.812 284.886V286.105C258.761 286.091 258.67 286.075 258.54 286.058C258.409 286.038 258.278 286.028 258.148 286.028C257.847 286.028 257.578 286.092 257.342 286.22C257.109 286.345 256.925 286.52 256.788 286.744C256.652 286.966 256.584 287.219 256.584 287.503V291.5H255.31ZM263.193 282.773H264.791L267.57 289.557H267.672L270.45 282.773H272.048V291.5H270.795V285.185H270.714L268.141 291.487H267.101L264.527 285.18H264.446V291.5H263.193V282.773ZM276.618 291.632C276.004 291.632 275.468 291.491 275.011 291.21C274.554 290.929 274.199 290.536 273.946 290.03C273.693 289.524 273.566 288.933 273.566 288.257C273.566 287.578 273.693 286.984 273.946 286.476C274.199 285.967 274.554 285.572 275.011 285.291C275.468 285.01 276.004 284.869 276.618 284.869C277.231 284.869 277.767 285.01 278.224 285.291C278.681 285.572 279.037 285.967 279.289 286.476C279.542 286.984 279.669 287.578 279.669 288.257C279.669 288.933 279.542 289.524 279.289 290.03C279.037 290.536 278.681 290.929 278.224 291.21C277.767 291.491 277.231 291.632 276.618 291.632ZM276.622 290.562C277.02 290.562 277.349 290.457 277.61 290.247C277.872 290.037 278.065 289.757 278.19 289.408C278.318 289.058 278.382 288.673 278.382 288.253C278.382 287.835 278.318 287.452 278.19 287.102C278.065 286.75 277.872 286.467 277.61 286.254C277.349 286.041 277.02 285.935 276.622 285.935C276.221 285.935 275.889 286.041 275.625 286.254C275.363 286.467 275.169 286.75 275.041 287.102C274.916 287.452 274.853 287.835 274.853 288.253C274.853 288.673 274.916 289.058 275.041 289.408C275.169 289.757 275.363 290.037 275.625 290.247C275.889 290.457 276.221 290.562 276.622 290.562ZM281.193 291.5V282.773H282.467V286.016H282.544C282.618 285.879 282.724 285.722 282.864 285.543C283.003 285.364 283.196 285.207 283.443 285.074C283.69 284.938 284.017 284.869 284.423 284.869C284.952 284.869 285.423 285.003 285.838 285.27C286.253 285.537 286.578 285.922 286.814 286.425C287.053 286.928 287.172 287.533 287.172 288.24C287.172 288.947 287.054 289.554 286.818 290.06C286.582 290.562 286.259 290.95 285.847 291.223C285.435 291.493 284.964 291.628 284.436 291.628C284.038 291.628 283.713 291.561 283.46 291.428C283.21 291.294 283.014 291.138 282.872 290.959C282.73 290.78 282.621 290.621 282.544 290.482H282.438V291.5H281.193ZM282.442 288.227C282.442 288.687 282.509 289.091 282.642 289.438C282.776 289.784 282.969 290.055 283.222 290.251C283.474 290.445 283.784 290.541 284.151 290.541C284.531 290.541 284.849 290.44 285.105 290.239C285.361 290.034 285.554 289.757 285.685 289.408C285.818 289.058 285.885 288.665 285.885 288.227C285.885 287.795 285.82 287.408 285.689 287.064C285.561 286.72 285.368 286.449 285.109 286.25C284.854 286.051 284.534 285.952 284.151 285.952C283.781 285.952 283.469 286.047 283.213 286.237C282.96 286.428 282.768 286.693 282.638 287.034C282.507 287.375 282.442 287.773 282.442 288.227ZM288.603 291.5V284.955H289.877V291.5H288.603ZM289.246 283.945C289.025 283.945 288.834 283.871 288.675 283.723C288.519 283.572 288.441 283.393 288.441 283.186C288.441 282.976 288.519 282.797 288.675 282.649C288.834 282.499 289.025 282.423 289.246 282.423C289.468 282.423 289.657 282.499 289.813 282.649C289.972 282.797 290.051 282.976 290.051 283.186C290.051 283.393 289.972 283.572 289.813 283.723C289.657 283.871 289.468 283.945 289.246 283.945ZM292.865 282.773V291.5H291.591V282.773H292.865ZM297.4 291.632C296.755 291.632 296.2 291.494 295.734 291.219C295.271 290.94 294.913 290.55 294.66 290.047C294.41 289.541 294.285 288.949 294.285 288.27C294.285 287.599 294.41 287.009 294.66 286.497C294.913 285.986 295.265 285.587 295.717 285.3C296.172 285.013 296.703 284.869 297.311 284.869C297.68 284.869 298.038 284.93 298.385 285.053C298.731 285.175 299.042 285.366 299.318 285.628C299.593 285.889 299.811 286.229 299.97 286.646C300.129 287.061 300.208 287.565 300.208 288.159V288.611H295.005V287.656H298.96C298.96 287.321 298.892 287.024 298.755 286.766C298.619 286.504 298.427 286.298 298.18 286.148C297.936 285.997 297.649 285.922 297.319 285.922C296.961 285.922 296.649 286.01 296.382 286.186C296.118 286.359 295.913 286.587 295.768 286.868C295.626 287.146 295.555 287.449 295.555 287.776V288.521C295.555 288.959 295.632 289.331 295.785 289.638C295.941 289.945 296.159 290.179 296.437 290.341C296.716 290.5 297.041 290.58 297.413 290.58C297.654 290.58 297.875 290.545 298.074 290.477C298.272 290.406 298.444 290.301 298.589 290.162C298.734 290.023 298.845 289.851 298.922 289.646L300.127 289.864C300.031 290.219 299.858 290.53 299.608 290.797C299.36 291.061 299.049 291.267 298.674 291.415C298.302 291.56 297.877 291.632 297.4 291.632ZM307.725 291.5H304.9V282.773H307.815C308.67 282.773 309.404 282.947 310.018 283.297C310.632 283.643 311.102 284.142 311.429 284.793C311.758 285.44 311.923 286.217 311.923 287.124C311.923 288.033 311.757 288.814 311.424 289.467C311.095 290.121 310.618 290.624 309.993 290.976C309.368 291.325 308.612 291.5 307.725 291.5ZM306.217 290.349H307.653C308.318 290.349 308.87 290.224 309.311 289.974C309.751 289.722 310.081 289.357 310.299 288.879C310.518 288.399 310.627 287.814 310.627 287.124C310.627 286.439 310.518 285.858 310.299 285.381C310.083 284.903 309.761 284.541 309.332 284.294C308.903 284.047 308.37 283.923 307.734 283.923H306.217V290.349ZM316.279 291.632C315.634 291.632 315.079 291.494 314.613 291.219C314.15 290.94 313.792 290.55 313.539 290.047C313.289 289.541 313.164 288.949 313.164 288.27C313.164 287.599 313.289 287.009 313.539 286.497C313.792 285.986 314.144 285.587 314.596 285.3C315.05 285.013 315.582 284.869 316.19 284.869C316.559 284.869 316.917 284.93 317.263 285.053C317.61 285.175 317.921 285.366 318.197 285.628C318.472 285.889 318.69 286.229 318.849 286.646C319.008 287.061 319.087 287.565 319.087 288.159V288.611H313.884V287.656H317.839C317.839 287.321 317.771 287.024 317.634 286.766C317.498 286.504 317.306 286.298 317.059 286.148C316.815 285.997 316.528 285.922 316.198 285.922C315.84 285.922 315.528 286.01 315.261 286.186C314.996 286.359 314.792 286.587 314.647 286.868C314.505 287.146 314.434 287.449 314.434 287.776V288.521C314.434 288.959 314.511 289.331 314.664 289.638C314.82 289.945 315.038 290.179 315.316 290.341C315.594 290.5 315.92 290.58 316.292 290.58C316.533 290.58 316.754 290.545 316.952 290.477C317.151 290.406 317.323 290.301 317.468 290.162C317.613 290.023 317.724 289.851 317.8 289.646L319.006 289.864C318.91 290.219 318.737 290.53 318.487 290.797C318.239 291.061 317.928 291.267 317.553 291.415C317.181 291.56 316.756 291.632 316.279 291.632ZM325.913 284.955L323.539 291.5H322.176L319.798 284.955H321.166L322.824 289.991H322.892L324.545 284.955H325.913ZM329.709 291.632C329.064 291.632 328.509 291.494 328.043 291.219C327.58 290.94 327.222 290.55 326.969 290.047C326.719 289.541 326.594 288.949 326.594 288.27C326.594 287.599 326.719 287.009 326.969 286.497C327.222 285.986 327.574 285.587 328.026 285.3C328.48 285.013 329.011 284.869 329.619 284.869C329.989 284.869 330.347 284.93 330.693 285.053C331.04 285.175 331.351 285.366 331.626 285.628C331.902 285.889 332.119 286.229 332.278 286.646C332.438 287.061 332.517 287.565 332.517 288.159V288.611H327.314V287.656H331.268C331.268 287.321 331.2 287.024 331.064 286.766C330.928 286.504 330.736 286.298 330.489 286.148C330.244 285.997 329.957 285.922 329.628 285.922C329.27 285.922 328.957 286.01 328.69 286.186C328.426 286.359 328.222 286.587 328.077 286.868C327.935 287.146 327.864 287.449 327.864 287.776V288.521C327.864 288.959 327.94 289.331 328.094 289.638C328.25 289.945 328.467 290.179 328.746 290.341C329.024 290.5 329.349 290.58 329.722 290.58C329.963 290.58 330.183 290.545 330.382 290.477C330.581 290.406 330.753 290.301 330.898 290.162C331.043 290.023 331.153 289.851 331.23 289.646L332.436 289.864C332.339 290.219 332.166 290.53 331.916 290.797C331.669 291.061 331.358 291.267 330.983 291.415C330.611 291.56 330.186 291.632 329.709 291.632ZM335.205 282.773V291.5H333.931V282.773H335.205ZM339.676 291.632C339.063 291.632 338.527 291.491 338.07 291.21C337.612 290.929 337.257 290.536 337.004 290.03C336.751 289.524 336.625 288.933 336.625 288.257C336.625 287.578 336.751 286.984 337.004 286.476C337.257 285.967 337.612 285.572 338.07 285.291C338.527 285.01 339.063 284.869 339.676 284.869C340.29 284.869 340.825 285.01 341.283 285.291C341.74 285.572 342.095 285.967 342.348 286.476C342.601 286.984 342.727 287.578 342.727 288.257C342.727 288.933 342.601 289.524 342.348 290.03C342.095 290.536 341.74 290.929 341.283 291.21C340.825 291.491 340.29 291.632 339.676 291.632ZM339.68 290.562C340.078 290.562 340.408 290.457 340.669 290.247C340.93 290.037 341.124 289.757 341.249 289.408C341.376 289.058 341.44 288.673 341.44 288.253C341.44 287.835 341.376 287.452 341.249 287.102C341.124 286.75 340.93 286.467 340.669 286.254C340.408 286.041 340.078 285.935 339.68 285.935C339.28 285.935 338.947 286.041 338.683 286.254C338.422 286.467 338.227 286.75 338.099 287.102C337.974 287.452 337.912 287.835 337.912 288.253C337.912 288.673 337.974 289.058 338.099 289.408C338.227 289.757 338.422 290.037 338.683 290.247C338.947 290.457 339.28 290.562 339.68 290.562ZM344.15 293.955V284.955H345.394V286.016H345.5C345.574 285.879 345.681 285.722 345.82 285.543C345.959 285.364 346.152 285.207 346.4 285.074C346.647 284.938 346.973 284.869 347.38 284.869C347.908 284.869 348.38 285.003 348.794 285.27C349.209 285.537 349.534 285.922 349.77 286.425C350.009 286.928 350.128 287.533 350.128 288.24C350.128 288.947 350.01 289.554 349.775 290.06C349.539 290.562 349.215 290.95 348.803 291.223C348.391 291.493 347.921 291.628 347.392 291.628C346.995 291.628 346.669 291.561 346.417 291.428C346.167 291.294 345.971 291.138 345.828 290.959C345.686 290.78 345.577 290.621 345.5 290.482H345.424V293.955H344.15ZM345.398 288.227C345.398 288.687 345.465 289.091 345.598 289.438C345.732 289.784 345.925 290.055 346.178 290.251C346.431 290.445 346.74 290.541 347.107 290.541C347.488 290.541 347.806 290.44 348.061 290.239C348.317 290.034 348.51 289.757 348.641 289.408C348.775 289.058 348.841 288.665 348.841 288.227C348.841 287.795 348.776 287.408 348.645 287.064C348.517 286.72 348.324 286.449 348.066 286.25C347.81 286.051 347.49 285.952 347.107 285.952C346.738 285.952 346.425 286.047 346.169 286.237C345.917 286.428 345.725 286.693 345.594 287.034C345.463 287.375 345.398 287.773 345.398 288.227ZM354.377 291.632C353.732 291.632 353.176 291.494 352.711 291.219C352.248 290.94 351.89 290.55 351.637 290.047C351.387 289.541 351.262 288.949 351.262 288.27C351.262 287.599 351.387 287.009 351.637 286.497C351.89 285.986 352.242 285.587 352.694 285.3C353.148 285.013 353.679 284.869 354.287 284.869C354.657 284.869 355.015 284.93 355.361 285.053C355.708 285.175 356.019 285.366 356.294 285.628C356.57 285.889 356.787 286.229 356.946 286.646C357.105 287.061 357.185 287.565 357.185 288.159V288.611H351.982V287.656H355.936C355.936 287.321 355.868 287.024 355.732 286.766C355.596 286.504 355.404 286.298 355.157 286.148C354.912 285.997 354.625 285.922 354.296 285.922C353.938 285.922 353.625 286.01 353.358 286.186C353.094 286.359 352.89 286.587 352.745 286.868C352.603 287.146 352.532 287.449 352.532 287.776V288.521C352.532 288.959 352.608 289.331 352.762 289.638C352.918 289.945 353.135 290.179 353.414 290.341C353.692 290.5 354.017 290.58 354.39 290.58C354.631 290.58 354.851 290.545 355.05 290.477C355.249 290.406 355.421 290.301 355.566 290.162C355.711 290.023 355.821 289.851 355.898 289.646L357.104 289.864C357.007 290.219 356.834 290.53 356.584 290.797C356.337 291.061 356.026 291.267 355.651 291.415C355.279 291.56 354.854 291.632 354.377 291.632ZM358.599 291.5V284.955H359.83V285.994H359.898C360.018 285.642 360.228 285.365 360.529 285.163C360.833 284.959 361.177 284.857 361.56 284.857C361.64 284.857 361.734 284.859 361.842 284.865C361.952 284.871 362.039 284.878 362.102 284.886V286.105C362.05 286.091 361.96 286.075 361.829 286.058C361.698 286.038 361.567 286.028 361.437 286.028C361.136 286.028 360.867 286.092 360.631 286.22C360.398 286.345 360.214 286.52 360.077 286.744C359.941 286.966 359.873 287.219 359.873 287.503V291.5H358.599ZM365.654 287.878C365.654 288.949 365.514 289.933 365.233 290.831C364.951 291.729 364.541 292.557 364.001 293.315H362.833C363.044 293.034 363.24 292.689 363.422 292.28C363.603 291.871 363.762 291.423 363.899 290.938C364.035 290.449 364.142 289.943 364.218 289.42C364.295 288.898 364.333 288.384 364.333 287.878C364.333 287.205 364.267 286.521 364.133 285.828C364 285.135 363.819 284.491 363.592 283.898C363.365 283.304 363.112 282.82 362.833 282.445H364.001C364.541 283.203 364.951 284.031 365.233 284.929C365.514 285.827 365.654 286.81 365.654 287.878Z" fill="#3D5C7A"/>
<path d="M25.5 333.5C25.5 327.843 25.5 325.015 27.2574 323.257C29.0147 321.5 31.8431 321.5 37.5 321.5H387.5C393.157 321.5 395.985 321.5 397.743 323.257C399.5 325.015 399.5 327.843 399.5 333.5V349.5C399.5 355.157 399.5 357.985 397.743 359.743C395.985 361.5 393.157 361.5 387.5 361.5H37.5C31.8431 361.5 29.0147 361.5 27.2574 359.743C25.5 357.985 25.5 355.157 25.5 349.5V333.5Z" fill="#FAECD1"/>
<path d="M37.625 330.75C37.957 330.75 38.25 331.043 38.25 331.375V332H40.75V331.375C40.75 331.043 41.0234 330.75 41.375 330.75C41.707 330.75 42 331.043 42 331.375V332H42.9375C43.4453 332 43.875 332.43 43.875 332.938V333.875H35.125V332.938C35.125 332.43 35.5352 332 36.0625 332H37V331.375C37 331.043 37.2734 330.75 37.625 330.75ZM35.125 334.5H43.875V339.812C43.875 340.34 43.4453 340.75 42.9375 340.75H36.0625C35.5352 340.75 35.125 340.34 35.125 339.812V334.5ZM39.6758 335.652C39.5977 335.516 39.3828 335.516 39.3047 335.652L38.8555 336.59L37.8203 336.746C37.6445 336.766 37.5859 336.98 37.7031 337.098L38.4453 337.82L38.2695 338.836C38.25 339.012 38.4258 339.129 38.5625 339.051L39.5 338.562L40.418 339.051C40.5547 339.129 40.7305 339.012 40.7109 338.836L40.5352 337.82L41.2773 337.098C41.3945 336.98 41.3359 336.766 41.1602 336.746L40.1445 336.59L39.6758 335.652Z" fill="#E39800"/>
<rect x="53.5" y="329.5" width="90" height="10.5" rx="5.25" fill="#FFD700"/>
<rect x="53.5" y="343.5" width="32" height="8.75" rx="4.375" fill="#FFD700"/>
</g>
<path d="M4.5 13.5C4.5 7.97716 8.97715 3.5 14.5 3.5H410.5C416.023 3.5 420.5 7.97715 420.5 13.5V367.5C420.5 373.023 416.023 377.5 410.5 377.5H14.5C8.97714 377.5 4.5 373.023 4.5 367.5V13.5Z" stroke="#D3DFEB"/>
</g>
<defs>
<filter id="filter0_d_62_13627" x="0" y="0" width="425" height="383" filterUnits="userSpaceOnUse" color-interpolation-filters="sRGB">
<feFlood flood-opacity="0" result="BackgroundImageFix"/>
<feColorMatrix in="SourceAlpha" type="matrix" values="0 0 0 0 0 0 0 0 0 0 0 0 0 0 0 0 0 0 127 0" result="hardAlpha"/>
<feOffset dy="1"/>
<feGaussianBlur stdDeviation="2"/>
<feComposite in2="hardAlpha" operator="out"/>
<feColorMatrix type="matrix" values="0 0 0 0 0.0352941 0 0 0 0 0.0313726 0 0 0 0 0.239216 0 0 0 0.08 0"/>
<feBlend mode="normal" in2="BackgroundImageFix" result="effect1_dropShadow_62_13627"/>
<feBlend mode="normal" in="SourceGraphic" in2="effect1_dropShadow_62_13627" result="shape"/>
</filter>
<clipPath id="clip0_62_13627">
<path d="M4.5 13.5C4.5 7.97716 8.97715 3.5 14.5 3.5H410.5C416.023 3.5 420.5 7.97715 420.5 13.5V367.5C420.5 373.023 416.023 377.5 410.5 377.5H14.5C8.97714 377.5 4.5 373.023 4.5 367.5V13.5Z" fill="white"/>
</clipPath>
</defs>
</svg>
