<svg width="417" height="161" viewBox="0 0 417 161" fill="none" xmlns="http://www.w3.org/2000/svg">
<g clip-path="url(#clip0_62_13600)">
<path d="M0.5 10.5C0.5 4.97715 4.97715 0.5 10.5 0.5H406.5C412.023 0.5 416.5 4.97715 416.5 10.5V150.5C416.5 156.023 412.023 160.5 406.5 160.5H10.5C4.97714 160.5 0.5 156.023 0.5 150.5V10.5Z" fill="white"/>
<path d="M0.5 0.5H416.5V56.5H0.5V0.5Z" stroke="#E5ECF3"/>
<path d="M16.5 16.5C16.5 14.2909 18.2909 12.5 20.5 12.5H44.5C46.7091 12.5 48.5 14.2909 48.5 16.5V40.5C48.5 42.7091 46.7091 44.5 44.5 44.5H20.5C18.2909 44.5 16.5 42.7091 16.5 40.5V16.5Z" fill="#EDF2F7"/>
<path d="M16.5 16.5C16.5 14.2909 18.2909 12.5 20.5 12.5H44.5C46.7091 12.5 48.5 14.2909 48.5 16.5V40.5C48.5 42.7091 46.7091 44.5 44.5 44.5H20.5C18.2909 44.5 16.5 42.7091 16.5 40.5V16.5Z" stroke="#EDF2F7"/>
<path d="M28.6172 23.8203C28.5625 23.875 28.5078 23.875 28.4531 23.875H27.6328C27.3867 23.875 27.1953 23.6836 27.25 23.4648C27.4961 22.4805 28.5625 21.25 30.6953 21.25C32.2812 21.25 33.293 21.9609 33.7852 22.7266C34.332 22.3711 35.0703 22.125 36 22.125C38.1055 22.125 39.1719 23.3555 39.418 24.3398C39.5 24.5586 39.2812 24.75 39.0625 24.75H37.832C37.7773 24.75 37.7227 24.75 37.668 24.6953L37.0117 24.0391C36.9297 23.957 36.793 23.957 36.7109 24.0391L36.0547 24.6953C36 24.75 35.9453 24.75 35.8906 24.75H33.7305C34.4961 26.9375 34.3047 29.4258 34.0039 30.957C35.6172 31.2578 36.875 32.6797 36.875 34.375C36.875 34.8672 36.4648 35.25 36 35.25H27.25C26.7578 35.25 26.375 34.8672 26.375 34.375C26.375 32.4609 27.9336 30.875 29.875 30.875H31.625C32.418 28.7148 32.418 26.7734 32.2266 25.5703L29.8477 27.9766C29.6836 28.1406 29.3828 28.1406 29.2734 27.9492C28.7539 27.0742 28.6445 25.4609 30.1484 23.957C30.1758 23.9297 30.2305 23.875 30.2578 23.8477L30.2305 23.8203L29.5742 23.1641C29.4922 23.082 29.3555 23.082 29.2734 23.1641L28.6172 23.8203Z" fill="#E39800"/>
<path d="M58.4787 33.5H56.848L60.5121 23.3182H62.2869L65.951 33.5H64.3203L61.4418 25.1676H61.3622L58.4787 33.5ZM58.7521 29.5128H64.0419V30.8054H58.7521V29.5128ZM68.7885 28.9659V33.5H67.302V25.8636H68.7289V27.1065H68.8233C68.999 26.7022 69.2741 26.3774 69.6486 26.1321C70.0265 25.8868 70.5021 25.7642 71.0755 25.7642C71.5958 25.7642 72.0516 25.8736 72.4426 26.0923C72.8337 26.3078 73.137 26.6293 73.3525 27.0568C73.5679 27.4844 73.6756 28.013 73.6756 28.6428V33.5H72.1891V28.8217C72.1891 28.2682 72.0449 27.8357 71.7566 27.5241C71.4682 27.2093 71.0721 27.0518 70.5684 27.0518C70.2237 27.0518 69.9171 27.1264 69.6486 27.2756C69.3835 27.4247 69.173 27.6435 69.0172 27.9318C68.8648 28.2169 68.7885 28.5616 68.7885 28.9659ZM77.1557 28.9659V33.5H75.6692V25.8636H77.0961V27.1065H77.1905C77.3662 26.7022 77.6413 26.3774 78.0158 26.1321C78.3936 25.8868 78.8693 25.7642 79.4426 25.7642C79.963 25.7642 80.4187 25.8736 80.8098 26.0923C81.2009 26.3078 81.5042 26.6293 81.7196 27.0568C81.9351 27.4844 82.0428 28.013 82.0428 28.6428V33.5H80.5563V28.8217C80.5563 28.2682 80.4121 27.8357 80.1238 27.5241C79.8354 27.2093 79.4393 27.0518 78.9355 27.0518C78.5908 27.0518 78.2843 27.1264 78.0158 27.2756C77.7507 27.4247 77.5402 27.6435 77.3844 27.9318C77.2319 28.2169 77.1557 28.5616 77.1557 28.9659ZM88.8738 30.3331V25.8636H90.3652V33.5H88.9036V32.1776H88.824C88.6484 32.5852 88.3667 32.925 87.9789 33.1967C87.5944 33.4652 87.1155 33.5994 86.5421 33.5994C86.0516 33.5994 85.6174 33.4917 85.2395 33.2763C84.865 33.0575 84.57 32.7344 84.3546 32.3068C84.1425 31.8793 84.0364 31.3506 84.0364 30.7209V25.8636H85.5229V30.5419C85.5229 31.0623 85.6671 31.4766 85.9554 31.7848C86.2438 32.093 86.6183 32.2472 87.079 32.2472C87.3574 32.2472 87.6342 32.1776 87.9093 32.0384C88.1877 31.8991 88.418 31.6887 88.6003 31.407C88.7859 31.1252 88.8771 30.7673 88.8738 30.3331ZM94.5849 33.669C94.101 33.669 93.6635 33.5795 93.2724 33.4006C92.8813 33.2183 92.5714 32.9548 92.3427 32.6101C92.1173 32.2654 92.0046 31.8428 92.0046 31.3423C92.0046 30.9115 92.0875 30.5568 92.2532 30.2784C92.4189 30 92.6426 29.7796 92.9244 29.6172C93.2061 29.4548 93.521 29.3321 93.869 29.2493C94.217 29.1664 94.5716 29.1035 94.9329 29.0604C95.3903 29.0073 95.7615 28.9643 96.0465 28.9311C96.3316 28.8946 96.5387 28.8366 96.668 28.7571C96.7972 28.6776 96.8619 28.5483 96.8619 28.3693V28.3345C96.8619 27.9003 96.7392 27.5639 96.494 27.3253C96.252 27.0866 95.8907 26.9673 95.4102 26.9673C94.9097 26.9673 94.5153 27.0784 94.2269 27.3004C93.9419 27.5192 93.7447 27.7628 93.6353 28.0312L92.2383 27.7131C92.404 27.2491 92.646 26.8745 92.9641 26.5895C93.2856 26.3011 93.6552 26.0923 94.0728 25.9631C94.4904 25.8305 94.9296 25.7642 95.3903 25.7642C95.6952 25.7642 96.0183 25.8007 96.3597 25.8736C96.7044 25.9432 97.0259 26.0724 97.3242 26.2614C97.6258 26.4503 97.8728 26.7204 98.065 27.0717C98.2572 27.4197 98.3533 27.8722 98.3533 28.429V33.5H96.9016V32.456H96.842C96.7459 32.6482 96.6017 32.8371 96.4094 33.0227C96.2172 33.2083 95.9703 33.3625 95.6687 33.4851C95.3671 33.6077 95.0058 33.669 94.5849 33.669ZM94.908 32.4759C95.319 32.4759 95.6703 32.3946 95.962 32.2322C96.257 32.0698 96.4807 31.8577 96.6332 31.5959C96.7889 31.3307 96.8668 31.0473 96.8668 30.7457V29.7614C96.8138 29.8144 96.7111 29.8641 96.5586 29.9105C96.4094 29.9536 96.2388 29.9917 96.0465 30.0249C95.8543 30.0547 95.667 30.0829 95.4847 30.1094C95.3024 30.1326 95.15 30.1525 95.0273 30.169C94.739 30.2055 94.4755 30.2668 94.2369 30.353C94.0015 30.4392 93.8126 30.5634 93.6701 30.7259C93.5309 30.8849 93.4613 31.0971 93.4613 31.3622C93.4613 31.7301 93.5972 32.0085 93.869 32.1974C94.1407 32.383 94.4871 32.4759 94.908 32.4759ZM101.82 23.3182V33.5H100.333V23.3182H101.82ZM109.011 23.3182V33.5H107.525V23.3182H109.011ZM114.302 33.6541C113.55 33.6541 112.902 33.4934 112.358 33.1719C111.818 32.8471 111.4 32.3913 111.105 31.8047C110.814 31.2147 110.668 30.5237 110.668 29.7315C110.668 28.9493 110.814 28.2599 111.105 27.6634C111.4 27.0668 111.811 26.6011 112.338 26.2663C112.869 25.9316 113.489 25.7642 114.198 25.7642C114.629 25.7642 115.046 25.8355 115.451 25.978C115.855 26.1205 116.218 26.3442 116.539 26.6491C116.861 26.9541 117.114 27.3501 117.3 27.8374C117.486 28.3213 117.578 28.9096 117.578 29.6023V30.1293H111.508V29.0156H116.122C116.122 28.6245 116.042 28.2782 115.883 27.9766C115.724 27.6716 115.5 27.4313 115.212 27.2557C114.927 27.08 114.592 26.9922 114.208 26.9922C113.79 26.9922 113.426 27.0949 113.114 27.3004C112.806 27.5026 112.567 27.7678 112.398 28.0959C112.232 28.4207 112.15 28.7737 112.15 29.1548V30.0249C112.15 30.5353 112.239 30.9695 112.418 31.3274C112.6 31.6854 112.854 31.9588 113.179 32.1477C113.503 32.3333 113.883 32.4261 114.317 32.4261C114.599 32.4261 114.856 32.3864 115.088 32.3068C115.32 32.224 115.52 32.1013 115.689 31.9389C115.858 31.7765 115.988 31.576 116.077 31.3374L117.484 31.5909C117.371 32.0052 117.169 32.3681 116.877 32.6797C116.589 32.9879 116.226 33.2282 115.789 33.4006C115.355 33.5696 114.859 33.6541 114.302 33.6541ZM121.45 33.669C120.966 33.669 120.529 33.5795 120.138 33.4006C119.747 33.2183 119.437 32.9548 119.208 32.6101C118.983 32.2654 118.87 31.8428 118.87 31.3423C118.87 30.9115 118.953 30.5568 119.118 30.2784C119.284 30 119.508 29.7796 119.79 29.6172C120.071 29.4548 120.386 29.3321 120.734 29.2493C121.082 29.1664 121.437 29.1035 121.798 29.0604C122.256 29.0073 122.627 28.9643 122.912 28.9311C123.197 28.8946 123.404 28.8366 123.533 28.7571C123.662 28.6776 123.727 28.5483 123.727 28.3693V28.3345C123.727 27.9003 123.604 27.5639 123.359 27.3253C123.117 27.0866 122.756 26.9673 122.275 26.9673C121.775 26.9673 121.381 27.0784 121.092 27.3004C120.807 27.5192 120.61 27.7628 120.501 28.0312L119.104 27.7131C119.269 27.2491 119.511 26.8745 119.829 26.5895C120.151 26.3011 120.52 26.0923 120.938 25.9631C121.356 25.8305 121.795 25.7642 122.256 25.7642C122.56 25.7642 122.884 25.8007 123.225 25.8736C123.57 25.9432 123.891 26.0724 124.189 26.2614C124.491 26.4503 124.738 26.7204 124.93 27.0717C125.122 27.4197 125.219 27.8722 125.219 28.429V33.5H123.767V32.456H123.707C123.611 32.6482 123.467 32.8371 123.275 33.0227C123.082 33.2083 122.836 33.3625 122.534 33.4851C122.232 33.6077 121.871 33.669 121.45 33.669ZM121.773 32.4759C122.184 32.4759 122.536 32.3946 122.827 32.2322C123.122 32.0698 123.346 31.8577 123.498 31.5959C123.654 31.3307 123.732 31.0473 123.732 30.7457V29.7614C123.679 29.8144 123.576 29.8641 123.424 29.9105C123.275 29.9536 123.104 29.9917 122.912 30.0249C122.72 30.0547 122.532 30.0829 122.35 30.1094C122.168 30.1326 122.015 30.1525 121.893 30.169C121.604 30.2055 121.341 30.2668 121.102 30.353C120.867 30.4392 120.678 30.5634 120.535 30.7259C120.396 30.8849 120.327 31.0971 120.327 31.3622C120.327 31.7301 120.462 32.0085 120.734 32.1974C121.006 32.383 121.352 32.4759 121.773 32.4759ZM133.458 25.8636L130.689 33.5H129.098L126.324 25.8636H127.919L129.853 31.7401H129.933L131.862 25.8636H133.458ZM137.886 33.6541C137.134 33.6541 136.486 33.4934 135.942 33.1719C135.402 32.8471 134.984 32.3913 134.689 31.8047C134.398 31.2147 134.252 30.5237 134.252 29.7315C134.252 28.9493 134.398 28.2599 134.689 27.6634C134.984 27.0668 135.395 26.6011 135.922 26.2663C136.453 25.9316 137.073 25.7642 137.782 25.7642C138.213 25.7642 138.63 25.8355 139.035 25.978C139.439 26.1205 139.802 26.3442 140.123 26.6491C140.445 26.9541 140.698 27.3501 140.884 27.8374C141.07 28.3213 141.162 28.9096 141.162 29.6023V30.1293H135.092V29.0156H139.706C139.706 28.6245 139.626 28.2782 139.467 27.9766C139.308 27.6716 139.084 27.4313 138.796 27.2557C138.511 27.08 138.176 26.9922 137.792 26.9922C137.374 26.9922 137.01 27.0949 136.698 27.3004C136.39 27.5026 136.151 27.7678 135.982 28.0959C135.816 28.4207 135.733 28.7737 135.733 29.1548V30.0249C135.733 30.5353 135.823 30.9695 136.002 31.3274C136.184 31.6854 136.438 31.9588 136.763 32.1477C137.087 32.3333 137.467 32.4261 137.901 32.4261C138.183 32.4261 138.44 32.3864 138.672 32.3068C138.904 32.224 139.104 32.1013 139.273 31.9389C139.442 31.7765 139.572 31.576 139.661 31.3374L141.068 31.5909C140.955 32.0052 140.753 32.3681 140.461 32.6797C140.173 32.9879 139.81 33.2282 139.373 33.4006C138.939 33.5696 138.443 33.6541 137.886 33.6541Z" fill="#000F30"/>
<rect x="292.5" y="23.25" width="32" height="10.5" rx="5.25" fill="#E5ECF3"/>
<path d="M332.5 18.5C332.5 15.1863 335.186 12.5 338.5 12.5H358.5C361.814 12.5 364.5 15.1863 364.5 18.5V38.5C364.5 41.8137 361.814 44.5 358.5 44.5H338.5C335.186 44.5 332.5 41.8137 332.5 38.5V18.5Z" fill="#F6F9FB"/>
<path d="M344.371 27.6484L349.621 22.3984C349.949 22.043 350.523 22.043 350.852 22.3984C351.207 22.7266 351.207 23.3008 350.852 23.6289L346.23 28.25L350.852 32.8984C351.207 33.2266 351.207 33.8008 350.852 34.1289C350.523 34.4844 349.949 34.4844 349.621 34.1289L344.371 28.8789C344.016 28.5508 344.016 27.9766 344.371 27.6484Z" fill="#6C869F"/>
<path d="M368.5 18.5C368.5 15.1863 371.186 12.5 374.5 12.5H394.5C397.814 12.5 400.5 15.1863 400.5 18.5V38.5C400.5 41.8137 397.814 44.5 394.5 44.5H374.5C371.186 44.5 368.5 41.8137 368.5 38.5V18.5Z" fill="#F6F9FB"/>
<path d="M388.602 27.6484C388.957 27.9766 388.957 28.5508 388.602 28.8789L383.352 34.1289C383.023 34.4844 382.449 34.4844 382.121 34.1289C381.766 33.8008 381.766 33.2266 382.121 32.8984L386.742 28.25L382.121 23.6289C381.766 23.3008 381.766 22.7266 382.121 22.3984C382.449 22.043 383.023 22.043 383.352 22.3984L388.602 27.6484Z" fill="#6C869F"/>
<path d="M25.1506 76.0455V93.5H21.9886V79.1222H21.8864L17.804 81.7301V78.8324L22.142 76.0455H25.1506ZM35.642 75.8068C36.4773 75.8125 37.2898 75.9602 38.0795 76.25C38.875 76.5341 39.5909 77 40.2273 77.6477C40.8636 78.2898 41.3693 79.1506 41.7443 80.2301C42.1193 81.3097 42.3068 82.6449 42.3068 84.2358C42.3125 85.7358 42.1534 87.0767 41.8295 88.2585C41.5114 89.4347 41.054 90.429 40.4574 91.2415C39.8608 92.054 39.142 92.6733 38.3011 93.0994C37.4602 93.5256 36.5142 93.7386 35.4631 93.7386C34.3608 93.7386 33.3835 93.5227 32.5312 93.0909C31.6847 92.6591 31 92.0682 30.4773 91.3182C29.9545 90.5682 29.6335 89.7102 29.5142 88.7443H32.625C32.7841 89.4375 33.108 89.9886 33.5966 90.3977C34.0909 90.8011 34.7131 91.0028 35.4631 91.0028C36.6733 91.0028 37.6051 90.4773 38.2585 89.4261C38.9119 88.375 39.2386 86.9148 39.2386 85.0455H39.1193C38.8409 85.5455 38.4801 85.9773 38.0369 86.3409C37.5938 86.6989 37.0909 86.9744 36.5284 87.1676C35.9716 87.3608 35.3807 87.4574 34.7557 87.4574C33.733 87.4574 32.8125 87.2131 31.9943 86.7244C31.1818 86.2358 30.5369 85.5653 30.0597 84.7131C29.5881 83.8608 29.3494 82.8864 29.3438 81.7898C29.3438 80.6534 29.6051 79.6335 30.1278 78.7301C30.6563 77.821 31.392 77.1051 32.3352 76.5824C33.2784 76.054 34.3807 75.7955 35.642 75.8068ZM35.6506 78.3636C35.0369 78.3636 34.483 78.5142 33.9886 78.8153C33.5 79.1108 33.1136 79.5142 32.8295 80.0256C32.5511 80.5312 32.4119 81.0966 32.4119 81.7216C32.4176 82.3409 32.5568 82.9034 32.8295 83.4091C33.108 83.9148 33.4858 84.3153 33.9631 84.6108C34.446 84.9062 34.9972 85.054 35.6165 85.054C36.0767 85.054 36.5057 84.9659 36.9034 84.7898C37.3011 84.6136 37.6477 84.3693 37.9432 84.0568C38.2443 83.7386 38.4773 83.3778 38.642 82.9744C38.8125 82.571 38.8949 82.1449 38.8892 81.696C38.8892 81.0994 38.7472 80.5483 38.4631 80.0426C38.1847 79.5369 37.8011 79.1307 37.3125 78.8239C36.8295 78.517 36.2756 78.3636 35.6506 78.3636ZM46.3999 93.6875C45.8828 93.6875 45.4396 93.5057 45.0703 93.142C44.701 92.7784 44.5192 92.3352 44.5249 91.8125C44.5192 91.3011 44.701 90.8636 45.0703 90.5C45.4396 90.1364 45.8828 89.9545 46.3999 89.9545C46.8999 89.9545 47.3345 90.1364 47.7038 90.5C48.0788 90.8636 48.2692 91.3011 48.2749 91.8125C48.2692 92.1591 48.1783 92.4744 48.0021 92.7585C47.8317 93.0426 47.6044 93.2699 47.3203 93.4403C47.0419 93.6051 46.7351 93.6875 46.3999 93.6875ZM57.1982 93.8324C55.7947 93.8324 54.5902 93.4773 53.5845 92.767C52.5845 92.0511 51.8146 91.0199 51.2749 89.6733C50.7408 88.321 50.4737 86.6932 50.4737 84.7898C50.4794 82.8864 50.7493 81.267 51.2834 79.9318C51.8232 78.5909 52.593 77.5682 53.593 76.8636C54.5987 76.1591 55.8004 75.8068 57.1982 75.8068C58.5959 75.8068 59.7976 76.1591 60.8033 76.8636C61.8089 77.5682 62.5788 78.5909 63.1129 79.9318C63.6527 81.2727 63.9226 82.892 63.9226 84.7898C63.9226 86.6989 63.6527 88.3295 63.1129 89.6818C62.5788 91.0284 61.8089 92.0568 60.8033 92.767C59.8033 93.4773 58.6016 93.8324 57.1982 93.8324ZM57.1982 91.1648C58.2891 91.1648 59.1499 90.6278 59.7805 89.554C60.4169 88.4744 60.7351 86.8864 60.7351 84.7898C60.7351 83.4034 60.5902 82.2386 60.3004 81.2955C60.0107 80.3523 59.6016 79.642 59.0732 79.1648C58.5447 78.6818 57.9197 78.4403 57.1982 78.4403C56.1129 78.4403 55.255 78.9801 54.6243 80.0597C53.9936 81.1335 53.6754 82.7102 53.6697 84.7898C53.6641 86.1818 53.8033 87.3523 54.0874 88.3011C54.3771 89.25 54.7862 89.9659 55.3146 90.4489C55.843 90.9261 56.4709 91.1648 57.1982 91.1648Z" fill="#2C8DFF"/>
<rect x="73.5" y="79.5" width="198" height="14" rx="7" fill="#E5ECF3"/>
<path d="M16.5 124.5C16.5 122.291 18.2909 120.5 20.5 120.5H138.5C140.709 120.5 142.5 122.291 142.5 124.5V140.5C142.5 142.709 140.709 144.5 138.5 144.5H20.5C18.2909 144.5 16.5 142.709 16.5 140.5V124.5Z" fill="#E5ECF3"/>
<path d="M16.5 124.5C16.5 122.291 18.2909 120.5 20.5 120.5H138.5C140.709 120.5 142.5 122.291 142.5 124.5V140.5C142.5 142.709 140.709 144.5 138.5 144.5H20.5C18.2909 144.5 16.5 142.709 16.5 140.5V124.5Z" stroke="#E5ECF3"/>
<path d="M28.1875 127.75C28.5195 127.75 28.8125 127.945 28.9883 128.219C29.1641 128.512 29.1641 128.883 28.9883 129.156C28.8125 129.449 28.5195 129.625 28.1875 129.625C27.8359 129.625 27.543 129.449 27.3672 129.156C27.1914 128.883 27.1914 128.512 27.3672 128.219C27.543 127.945 27.8359 127.75 28.1875 127.75ZM26.0586 130.875C25.7852 130.875 25.5117 130.992 25.3164 131.188L24.8672 131.637C24.6328 131.891 24.2227 131.891 23.9883 131.637C23.7344 131.402 23.7344 130.992 23.9883 130.758L24.4375 130.309C24.8672 129.879 25.4531 129.625 26.0586 129.625C26.2734 129.625 26.5078 129.664 26.7227 129.742L27.6797 130.035C28.3828 130.25 28.9688 130.777 29.2422 131.461L29.3789 131.754C29.4766 131.988 29.6914 132.125 29.9453 132.125H30.3555C30.707 132.125 30.9805 132.418 30.9805 132.75C30.9805 133.102 30.707 133.375 30.3555 133.375H29.9453C29.1836 133.375 28.5 132.926 28.2266 132.223L28.1094 131.988L27.5234 133.59L28.6172 134.293C28.9688 134.508 29.1445 134.938 29.0273 135.348L28.4609 137.301C28.3633 137.633 28.0312 137.828 27.6992 137.73C27.3672 137.633 27.1719 137.301 27.2695 136.969L27.7578 135.23L26.0781 134.176C25.5898 133.863 25.375 133.258 25.5508 132.711L26.1562 130.895C26.1172 130.895 26.0977 130.875 26.0586 130.875ZM25.0039 133.824C25.1406 134.176 25.3945 134.488 25.7461 134.703L25.9219 134.82L25.707 135.328C25.5508 135.66 25.2188 135.875 24.8477 135.875H23.5C23.1484 135.875 22.875 135.602 22.875 135.25C22.875 134.918 23.1484 134.625 23.5 134.625H24.6523L25.0039 133.824ZM30.375 128.688C30.375 128.18 30.7852 127.75 31.3125 127.75H33.1875C33.6953 127.75 34.125 128.18 34.125 128.688V136.812C34.125 137.34 33.6953 137.75 33.1875 137.75H31.3125C30.7852 137.75 30.375 137.34 30.375 136.812V134C31.0586 134 31.625 133.453 31.625 132.75C31.625 132.066 31.0586 131.5 30.375 131.5V128.688Z" fill="#000F30"/>
<path d="M39.3608 136.5V127.773H42.6335C43.304 127.773 43.8665 127.889 44.321 128.122C44.7784 128.355 45.1236 128.682 45.3565 129.102C45.5923 129.52 45.7102 130.007 45.7102 130.564C45.7102 131.124 45.5909 131.609 45.3523 132.021C45.1165 132.43 44.7685 132.747 44.3082 132.972C43.848 133.193 43.2827 133.304 42.6122 133.304H40.2812V131.991H42.3991C42.7912 131.991 43.1122 131.937 43.3622 131.83C43.6122 131.719 43.7969 131.558 43.9162 131.348C44.0384 131.135 44.0994 130.874 44.0994 130.564C44.0994 130.254 44.0384 129.99 43.9162 129.771C43.794 129.55 43.608 129.382 43.358 129.268C43.108 129.152 42.7855 129.094 42.3906 129.094H40.9418V136.5H39.3608ZM43.8693 132.545L46.0298 136.5H44.2656L42.1435 132.545H43.8693ZM49.9013 136.628C49.245 136.628 48.6783 136.491 48.201 136.219C47.7266 135.943 47.3615 135.554 47.1058 135.051C46.8501 134.545 46.7223 133.95 46.7223 133.266C46.7223 132.592 46.8501 132.001 47.1058 131.493C47.3643 130.982 47.7251 130.584 48.1882 130.3C48.6513 130.013 49.1953 129.869 49.8203 129.869C50.2237 129.869 50.6044 129.935 50.9624 130.065C51.3232 130.193 51.6413 130.392 51.9169 130.662C52.1953 130.932 52.4141 131.276 52.5732 131.693C52.7322 132.108 52.8118 132.602 52.8118 133.176V133.649H47.4467V132.609H51.3331C51.3303 132.314 51.2663 132.051 51.1413 131.821C51.0163 131.588 50.8416 131.405 50.6172 131.271C50.3956 131.138 50.1371 131.071 49.8416 131.071C49.5263 131.071 49.2493 131.148 49.0107 131.301C48.772 131.452 48.5859 131.651 48.4524 131.898C48.3217 132.142 48.255 132.411 48.2521 132.703V133.611C48.2521 133.991 48.3217 134.318 48.4609 134.591C48.6001 134.861 48.7947 135.068 49.0447 135.213C49.2947 135.355 49.5874 135.426 49.9226 135.426C50.147 135.426 50.3501 135.395 50.532 135.332C50.7138 135.267 50.8714 135.172 51.005 135.047C51.1385 134.922 51.2393 134.767 51.3075 134.582L52.7479 134.744C52.657 135.125 52.4837 135.457 52.228 135.741C51.9751 136.023 51.6513 136.241 51.2564 136.398C50.8615 136.551 50.4098 136.628 49.9013 136.628ZM58.4847 138.955V135.469H58.4208C58.3413 135.628 58.2262 135.797 58.0756 135.976C57.9251 136.152 57.7262 136.303 57.479 136.428C57.2319 136.553 56.9208 136.615 56.5458 136.615C56.0316 136.615 55.5714 136.483 55.1651 136.219C54.7589 135.955 54.4379 135.571 54.2021 135.068C53.9663 134.565 53.8484 133.955 53.8484 133.236C53.8484 132.509 53.9677 131.895 54.2063 131.395C54.4478 130.892 54.7731 130.513 55.1822 130.257C55.5913 129.999 56.0472 129.869 56.5501 129.869C56.9336 129.869 57.2489 129.935 57.4961 130.065C57.7433 130.193 57.9393 130.348 58.0842 130.53C58.229 130.709 58.3413 130.878 58.4208 131.037H58.5146V129.955H60.0316V138.955H58.4847ZM56.9762 135.349C57.3029 135.349 57.5813 135.261 57.8114 135.085C58.0415 134.906 58.2163 134.658 58.3356 134.339C58.4549 134.021 58.5146 133.651 58.5146 133.227C58.5146 132.804 58.4549 132.436 58.3356 132.124C58.2191 131.811 58.0458 131.568 57.8157 131.395C57.5884 131.222 57.3086 131.135 56.9762 131.135C56.6325 131.135 56.3455 131.224 56.1154 131.403C55.8853 131.582 55.712 131.83 55.5955 132.145C55.479 132.46 55.4208 132.821 55.4208 133.227C55.4208 133.636 55.479 134.001 55.5955 134.322C55.7148 134.641 55.8896 134.892 56.1197 135.077C56.3526 135.259 56.6381 135.349 56.9762 135.349ZM65.7887 133.747V129.955H67.3313V136.5H65.8356V135.337H65.7674C65.6197 135.703 65.3768 136.003 65.0387 136.236C64.7035 136.469 64.2901 136.585 63.7987 136.585C63.3697 136.585 62.9904 136.49 62.6609 136.3C62.3342 136.107 62.0785 135.827 61.8938 135.46C61.7092 135.091 61.6168 134.645 61.6168 134.122V129.955H63.1594V133.884C63.1594 134.298 63.2731 134.628 63.5004 134.872C63.7276 135.116 64.0259 135.239 64.3952 135.239C64.6225 135.239 64.8427 135.183 65.0558 135.072C65.2688 134.962 65.4435 134.797 65.5799 134.578C65.7191 134.357 65.7887 134.08 65.7887 133.747ZM71.8153 136.628C71.1591 136.628 70.5923 136.491 70.1151 136.219C69.6406 135.943 69.2756 135.554 69.0199 135.051C68.7642 134.545 68.6364 133.95 68.6364 133.266C68.6364 132.592 68.7642 132.001 69.0199 131.493C69.2784 130.982 69.6392 130.584 70.1023 130.3C70.5653 130.013 71.1094 129.869 71.7344 129.869C72.1378 129.869 72.5185 129.935 72.8764 130.065C73.2372 130.193 73.5554 130.392 73.831 130.662C74.1094 130.932 74.3281 131.276 74.4872 131.693C74.6463 132.108 74.7259 132.602 74.7259 133.176V133.649H69.3608V132.609H73.2472C73.2443 132.314 73.1804 132.051 73.0554 131.821C72.9304 131.588 72.7557 131.405 72.5312 131.271C72.3097 131.138 72.0511 131.071 71.7557 131.071C71.4403 131.071 71.1634 131.148 70.9247 131.301C70.6861 131.452 70.5 131.651 70.3665 131.898C70.2358 132.142 70.169 132.411 70.1662 132.703V133.611C70.1662 133.991 70.2358 134.318 70.375 134.591C70.5142 134.861 70.7088 135.068 70.9588 135.213C71.2088 135.355 71.5014 135.426 71.8366 135.426C72.0611 135.426 72.2642 135.395 72.446 135.332C72.6278 135.267 72.7855 135.172 72.919 135.047C73.0526 134.922 73.1534 134.767 73.2216 134.582L74.6619 134.744C74.571 135.125 74.3977 135.457 74.142 135.741C73.8892 136.023 73.5653 136.241 73.1705 136.398C72.7756 136.551 72.3239 136.628 71.8153 136.628ZM81.2042 131.685L79.7979 131.838C79.7582 131.696 79.6886 131.562 79.5891 131.438C79.4925 131.312 79.3619 131.212 79.1971 131.135C79.0323 131.058 78.8306 131.02 78.592 131.02C78.271 131.02 78.0011 131.089 77.7823 131.229C77.5664 131.368 77.4599 131.548 77.4627 131.77C77.4599 131.96 77.5295 132.115 77.6715 132.234C77.8164 132.354 78.055 132.452 78.3874 132.528L79.5039 132.767C80.1232 132.901 80.5835 133.112 80.8846 133.402C81.1886 133.692 81.342 134.071 81.3448 134.54C81.342 134.952 81.2212 135.315 80.9826 135.631C80.7468 135.943 80.4187 136.187 79.9982 136.364C79.5778 136.54 79.0948 136.628 78.5494 136.628C77.7482 136.628 77.1033 136.46 76.6147 136.125C76.1261 135.787 75.8349 135.317 75.7411 134.714L77.2454 134.57C77.3136 134.865 77.4585 135.088 77.68 135.239C77.9016 135.389 78.19 135.464 78.5451 135.464C78.9116 135.464 79.2056 135.389 79.4272 135.239C79.6516 135.088 79.7638 134.902 79.7638 134.68C79.7638 134.493 79.6914 134.338 79.5465 134.216C79.4045 134.094 79.1829 134 78.8817 133.935L77.7653 133.7C77.1374 133.57 76.6729 133.349 76.3718 133.04C76.0707 132.727 75.9215 132.332 75.9244 131.855C75.9215 131.452 76.0309 131.102 76.2525 130.807C76.4769 130.509 76.788 130.278 77.1857 130.116C77.5863 129.952 78.0479 129.869 78.5707 129.869C79.3377 129.869 79.9414 130.033 80.3817 130.359C80.8249 130.686 81.0991 131.128 81.2042 131.685ZM85.8853 129.955V131.148H82.1225V129.955H85.8853ZM83.0515 128.386H84.5941V134.531C84.5941 134.739 84.6254 134.898 84.6879 135.009C84.7532 135.116 84.8384 135.19 84.9435 135.23C85.0487 135.27 85.1651 135.29 85.293 135.29C85.3896 135.29 85.4776 135.283 85.5572 135.268C85.6396 135.254 85.7021 135.241 85.7447 135.23L86.0046 136.436C85.9222 136.464 85.8043 136.496 85.6509 136.53C85.5004 136.564 85.3157 136.584 85.0969 136.589C84.7106 136.601 84.3626 136.543 84.0529 136.415C83.7433 136.284 83.4975 136.082 83.3157 135.81C83.1367 135.537 83.0487 135.196 83.0515 134.787V128.386ZM93.4205 129.955V131.148H89.6577V129.955H93.4205ZM90.5866 128.386H92.1293V134.531C92.1293 134.739 92.1605 134.898 92.223 135.009C92.2884 135.116 92.3736 135.19 92.4787 135.23C92.5838 135.27 92.7003 135.29 92.8281 135.29C92.9247 135.29 93.0128 135.283 93.0923 135.268C93.1747 135.254 93.2372 135.241 93.2798 135.23L93.5398 136.436C93.4574 136.464 93.3395 136.496 93.1861 136.53C93.0355 136.564 92.8509 136.584 92.6321 136.589C92.2457 136.601 91.8977 136.543 91.5881 136.415C91.2784 136.284 91.0327 136.082 90.8509 135.81C90.6719 135.537 90.5838 135.196 90.5866 134.787V128.386ZM94.7106 136.5V129.955H96.2532V136.5H94.7106ZM95.4862 129.026C95.2418 129.026 95.0316 128.945 94.8555 128.783C94.6793 128.618 94.5913 128.42 94.5913 128.19C94.5913 127.957 94.6793 127.76 94.8555 127.598C95.0316 127.433 95.2418 127.351 95.4862 127.351C95.7333 127.351 95.9435 127.433 96.1168 127.598C96.293 127.76 96.381 127.957 96.381 128.19C96.381 128.42 96.293 128.618 96.1168 128.783C95.9435 128.945 95.7333 129.026 95.4862 129.026ZM97.8395 136.5V129.955H99.3139V131.067H99.3906C99.527 130.692 99.7528 130.399 100.068 130.189C100.384 129.976 100.76 129.869 101.197 129.869C101.641 129.869 102.014 129.977 102.318 130.193C102.625 130.406 102.841 130.697 102.966 131.067H103.034C103.179 130.703 103.423 130.413 103.767 130.197C104.114 129.979 104.524 129.869 104.999 129.869C105.601 129.869 106.092 130.06 106.473 130.44C106.854 130.821 107.044 131.376 107.044 132.107V136.5H105.497V132.345C105.497 131.939 105.389 131.642 105.173 131.455C104.957 131.264 104.693 131.169 104.381 131.169C104.009 131.169 103.717 131.286 103.507 131.518C103.3 131.749 103.196 132.048 103.196 132.418V136.5H101.683V132.281C101.683 131.943 101.581 131.673 101.376 131.472C101.175 131.27 100.911 131.169 100.584 131.169C100.362 131.169 100.161 131.226 99.9787 131.339C99.7969 131.45 99.652 131.608 99.544 131.812C99.4361 132.014 99.3821 132.25 99.3821 132.52V136.5H97.8395ZM111.507 136.628C110.85 136.628 110.284 136.491 109.806 136.219C109.332 135.943 108.967 135.554 108.711 135.051C108.456 134.545 108.328 133.95 108.328 133.266C108.328 132.592 108.456 132.001 108.711 131.493C108.97 130.982 109.331 130.584 109.794 130.3C110.257 130.013 110.801 129.869 111.426 129.869C111.829 129.869 112.21 129.935 112.568 130.065C112.929 130.193 113.247 130.392 113.522 130.662C113.801 130.932 114.02 131.276 114.179 131.693C114.338 132.108 114.417 132.602 114.417 133.176V133.649H109.052V132.609H112.939C112.936 132.314 112.872 132.051 112.747 131.821C112.622 131.588 112.447 131.405 112.223 131.271C112.001 131.138 111.743 131.071 111.447 131.071C111.132 131.071 110.855 131.148 110.616 131.301C110.377 131.452 110.191 131.651 110.058 131.898C109.927 132.142 109.86 132.411 109.858 132.703V133.611C109.858 133.991 109.927 134.318 110.066 134.591C110.206 134.861 110.4 135.068 110.65 135.213C110.9 135.355 111.193 135.426 111.528 135.426C111.752 135.426 111.956 135.395 112.137 135.332C112.319 135.267 112.477 135.172 112.61 135.047C112.744 134.922 112.845 134.767 112.913 134.582L114.353 134.744C114.262 135.125 114.089 135.457 113.833 135.741C113.581 136.023 113.257 136.241 112.862 136.398C112.467 136.551 112.015 136.628 111.507 136.628ZM121.554 136.628C120.915 136.628 120.361 136.487 119.892 136.206C119.423 135.925 119.06 135.531 118.801 135.026C118.545 134.52 118.418 133.929 118.418 133.253C118.418 132.577 118.545 131.984 118.801 131.476C119.06 130.967 119.423 130.572 119.892 130.291C120.361 130.01 120.915 129.869 121.554 129.869C122.193 129.869 122.747 130.01 123.216 130.291C123.685 130.572 124.047 130.967 124.303 131.476C124.561 131.984 124.69 132.577 124.69 133.253C124.69 133.929 124.561 134.52 124.303 135.026C124.047 135.531 123.685 135.925 123.216 136.206C122.747 136.487 122.193 136.628 121.554 136.628ZM121.562 135.392C121.909 135.392 122.199 135.297 122.432 135.107C122.665 134.913 122.838 134.655 122.952 134.331C123.068 134.007 123.126 133.646 123.126 133.249C123.126 132.848 123.068 132.486 122.952 132.162C122.838 131.835 122.665 131.575 122.432 131.382C122.199 131.189 121.909 131.092 121.562 131.092C121.207 131.092 120.912 131.189 120.676 131.382C120.443 131.575 120.268 131.835 120.152 132.162C120.038 132.486 119.982 132.848 119.982 133.249C119.982 133.646 120.038 134.007 120.152 134.331C120.268 134.655 120.443 134.913 120.676 135.107C120.912 135.297 121.207 135.392 121.562 135.392ZM129.315 129.955V131.148H125.446V129.955H129.315ZM126.413 136.5V129.337C126.413 128.896 126.504 128.53 126.686 128.237C126.87 127.945 127.118 127.726 127.427 127.581C127.737 127.436 128.081 127.364 128.458 127.364C128.725 127.364 128.963 127.385 129.17 127.428C129.377 127.47 129.531 127.509 129.63 127.543L129.324 128.736C129.258 128.716 129.176 128.696 129.076 128.676C128.977 128.653 128.866 128.642 128.744 128.642C128.457 128.642 128.254 128.712 128.135 128.851C128.018 128.987 127.96 129.183 127.96 129.439V136.5H126.413ZM133.838 129.955V131.148H129.969V129.955H133.838ZM130.936 136.5V129.337C130.936 128.896 131.027 128.53 131.209 128.237C131.394 127.945 131.641 127.726 131.951 127.581C132.26 127.436 132.604 127.364 132.982 127.364C133.249 127.364 133.486 127.385 133.694 127.428C133.901 127.47 134.054 127.509 134.154 127.543L133.847 128.736C133.782 128.716 133.699 128.696 133.6 128.676C133.5 128.653 133.39 128.642 133.267 128.642C132.98 128.642 132.777 128.712 132.658 128.851C132.542 128.987 132.483 129.183 132.483 129.439V136.5H130.936Z" fill="#000F30"/>
</g>
<path d="M0.5 10.5C0.5 4.97715 4.97715 0.5 10.5 0.5H406.5C412.023 0.5 416.5 4.97715 416.5 10.5V150.5C416.5 156.023 412.023 160.5 406.5 160.5H10.5C4.97714 160.5 0.5 156.023 0.5 150.5V10.5Z" stroke="#D3DFEB"/>
<defs>
<clipPath id="clip0_62_13600">
<path d="M0.5 10.5C0.5 4.97715 4.97715 0.5 10.5 0.5H406.5C412.023 0.5 416.5 4.97715 416.5 10.5V150.5C416.5 156.023 412.023 160.5 406.5 160.5H10.5C4.97714 160.5 0.5 156.023 0.5 150.5V10.5Z" fill="white"/>
</clipPath>
</defs>
</svg>
