<svg width="1920" height="1080" viewBox="0 0 1920 1080" fill="none" xmlns="http://www.w3.org/2000/svg">
<g clip-path="url(#clip0_633_21008)">
<rect width="1920" height="1080" fill="#00174A"/>
<g opacity="0.3">
<path d="M1616.5 445.951L1616.5 144.525C1616.5 118.266 1595.22 96.9785 1568.96 96.9785L1248.84 96.9785" stroke="#B5C3CF" stroke-width="2" stroke-dasharray="8 8"/>
<path d="M1244.56 100.06C1242.98 99.1444 1242.98 96.8575 1244.56 95.9424L1259.92 87.0706C1261.51 86.1551 1263.49 87.2989 1263.49 89.1292L1263.49 106.873C1263.49 108.703 1261.51 109.847 1259.92 108.931L1244.56 100.06Z" fill="#B5C3CF"/>
<path d="M859.975 842.284L1556.76 842.284C1589.75 842.284 1616.5 815.541 1616.5 782.551L1616.5 435.98" stroke="#B5C3CF" stroke-width="2" stroke-dasharray="8 8"/>
<path d="M842.563 844.059C840.979 843.143 840.979 840.857 842.563 839.941L857.923 831.07C859.508 830.154 861.489 831.298 861.489 833.128L861.489 850.872C861.489 852.702 859.508 853.846 857.923 852.93L842.563 844.059Z" fill="#B5C3CF"/>
<path d="M1617.13 691.967L2202.19 691.967C2228.45 691.967 2249.74 670.68 2249.74 644.421V326.978C2249.74 300.719 2271.03 279.432 2297.29 279.432L2306.97 279.432" stroke="#B5C3CF" stroke-width="2" stroke-dasharray="8 8"/>
<path d="M1423.32 -89.5171L1423.32 390.926C1423.32 417.185 1444.6 438.472 1470.86 438.472L1615.25 438.472" stroke="#B5C3CF" stroke-width="2"/>
<path d="M1600.94 438.065C1600.94 447.101 1608.26 454.425 1617.29 454.425C1626.32 454.425 1633.64 447.101 1633.64 438.065C1633.64 429.03 1626.32 421.706 1617.29 421.706C1608.26 421.706 1600.94 429.03 1600.94 438.065Z" fill="#B5C3CF" stroke="#B5C3CF" stroke-width="2"/>
<path d="M1232.63 989.967L1232.63 486.018C1232.63 459.759 1253.92 438.472 1280.18 438.472L1615.25 438.472" stroke="#B5C3CF" stroke-width="2"/>
<path d="M1230.87 1012.08C1231.74 1013.85 1234.26 1013.85 1235.13 1012.08L1246.31 989.428C1247.09 987.848 1245.94 985.999 1244.18 985.999H1221.82C1220.06 985.999 1218.91 987.848 1219.69 989.428L1230.87 1012.08Z" fill="#B5C3CF"/>
<rect x="1241.36" y="705.466" width="17.4486" height="81.703" rx="8.72431" transform="rotate(-180 1241.36 705.466)" fill="#B5C3CF"/>
<path d="M1999.13 762.518L1999.13 498.204C1999.13 465.215 1972.38 438.472 1939.39 438.472L1620.24 438.472" stroke="#B5C3CF" stroke-width="2"/>
<path d="M1616.5 1009.29L1616.5 237.376C1616.5 211.117 1637.79 189.83 1664.05 189.83L1951.58 189.829C1977.84 189.829 1999.12 168.542 1999.12 142.283L1999.12 -48.8423" stroke="#B5C3CF" stroke-width="2"/>
<rect x="1768.55" y="205.41" width="31.1582" height="74.7797" rx="15.5791" transform="rotate(-90 1768.55 205.41)" fill="#B5C3CF"/>
<path d="M1617 1015L1460.27 1015C1434.01 1015 1412.72 993.713 1412.72 967.454L1412.72 784.546C1412.72 758.287 1391.43 737 1365.18 737L1046 737" stroke="#B5C3CF" stroke-width="2"/>
<path d="M1029.63 739.066C1028.03 738.155 1028.03 735.845 1029.63 734.934L1045.28 726.031C1046.86 725.129 1048.83 726.274 1048.83 728.097L1048.83 745.903C1048.83 747.726 1046.86 748.871 1045.28 747.969L1029.63 739.066Z" fill="#B5C3CF"/>
<path d="M1228.89 98.2238L1088.82 98.2237C1062.56 98.2236 1041.27 119.511 1041.27 145.77L1041.27 390.925C1041.27 417.184 1019.98 438.471 993.726 438.471L696.085 438.471" stroke="#B5C3CF" stroke-width="2"/>
<rect x="1048.18" y="291.406" width="17.4486" height="69.7944" rx="8.72431" transform="rotate(-180 1048.18 291.406)" fill="#B5C3CF"/>
<path d="M681.564 441.059C679.98 440.143 679.98 437.857 681.564 436.941L696.923 428.07C698.508 427.154 700.49 428.298 700.49 430.128L700.49 447.872C700.49 449.702 698.508 450.846 696.923 449.93L681.564 441.059Z" fill="#B5C3CF"/>
<path d="M1223 96.5C1223 90.6587 1227.52 86 1233 86C1238.48 86 1243 90.6587 1243 96.5C1243 102.341 1238.48 107 1233 107C1227.52 107 1223 102.341 1223 96.5Z" fill="white" stroke="#B5C3CF" stroke-width="2"/>
<path d="M2356.82 787.446L2199.97 787.445C2173.71 787.445 2152.42 808.733 2152.42 834.992L2152.42 967.977C2152.42 994.236 2131.13 1015.52 2104.88 1015.52L1616.5 1015.52" stroke="#B5C3CF" stroke-width="2"/>
<path d="M1605 1014C1605 1007.92 1609.92 1003 1616 1003C1622.07 1003 1627 1007.92 1627 1014C1627 1020.08 1622.07 1025 1616 1025C1609.92 1025 1605 1020.08 1605 1014Z" fill="white" stroke="#B5C3CF" stroke-width="2"/>
<rect x="1818.41" y="1025.49" width="21.1876" height="108.431" rx="10.5938" transform="rotate(-90 1818.41 1025.49)" fill="#B5C3CF"/>
</g>
<g clip-path="url(#clip1_633_21008)">
<path d="M71.6479 77.2561C68.402 77.2561 65.7793 79.9134 65.7793 83.2021C65.7793 86.4919 68.402 89.1493 71.6479 89.1493C74.8486 89.1493 77.5165 86.4919 77.5165 83.2021C77.5165 79.9134 74.8486 77.2561 71.6479 77.2561ZM71.6479 94.6005C69.3362 94.6005 67.202 93.8804 65.3789 92.7087V103.252C65.3789 104.783 64.179 106 62.7121 106C61.2 106 60 104.783 60 103.252V74.5976C60 73.1108 61.2 71.8947 62.7121 71.8947C63.9121 71.8947 64.9345 72.7058 65.2896 73.7865C67.0686 72.525 69.291 71.8049 71.6479 71.8049C77.8275 71.8049 82.8955 76.8955 82.8955 83.2021C82.8955 89.5099 77.8275 94.6005 71.6479 94.6005ZM95.7896 77.3915C93.7448 77.3915 91.9658 78.4267 90.8993 80.0943H100.325C99.4348 78.3823 97.7903 77.3915 95.7896 77.3915ZM90.1438 84.6446C90.7658 87.212 93.0334 89.1948 95.7896 89.1948C97.2124 89.1948 99.3013 88.609 100.457 87.4828C101.525 86.4464 103.214 86.4464 104.237 87.5283C105.303 88.5635 105.259 90.321 104.193 91.3573C101.748 93.7451 98.3241 94.5561 95.7896 94.5561C89.61 94.5561 84.6745 89.5099 84.6745 83.2476C84.6745 77.0752 89.61 71.9391 95.7896 71.9391C96.4569 71.9391 97.0789 71.9846 97.7462 72.12C100.769 72.7058 103.348 74.5976 104.948 77.3005C105.66 78.562 106.459 80.2297 106.371 81.7165C106.371 82.1214 106.193 82.5719 106.015 83.0224C105.66 83.8778 104.904 84.6446 103.836 84.6446H90.1438ZM119.586 77.529C116.506 77.529 113.985 80.1165 113.985 83.2754C113.985 86.4575 116.506 89.0217 119.586 89.0217C122.665 89.0217 125.187 86.4576 125.209 83.2987C125.187 80.1165 122.665 77.529 119.586 77.529ZM119.531 94.3309C113.395 94.3309 108.372 89.2847 108.372 83.0224C108.372 76.8056 113.395 71.7139 119.531 71.7139C125.666 71.7139 130.69 76.8056 130.734 83.0679C130.69 89.2847 125.666 94.3309 119.531 94.3309ZM145.718 77.2561C142.473 77.2561 139.849 79.9134 139.849 83.2021C139.849 86.4919 142.473 89.1493 145.718 89.1493C148.919 89.1493 151.586 86.4919 151.586 83.2021C151.586 79.9134 148.919 77.2561 145.718 77.2561ZM145.717 94.6005C143.406 94.6005 141.272 93.8804 139.45 92.7087V103.252C139.45 104.783 138.249 106 136.782 106C135.27 106 134.07 104.783 134.07 103.252V74.5976C134.07 73.1108 135.27 71.8947 136.782 71.8947C137.982 71.8947 139.004 72.7058 139.36 73.7865C141.138 72.525 143.362 71.8049 145.717 71.8049C151.897 71.8049 156.966 76.8955 156.966 83.2021C156.966 89.5099 151.897 94.6005 145.717 94.6005ZM166.614 94.4208C164.747 94.4208 162.924 93.4743 161.768 91.9875C160.435 90.2311 160.523 88.2484 160.523 86.1313C160.523 82.8881 160.523 66.1728 160.523 62.9285C160.523 61.4428 161.724 60.2256 163.191 60.2256C164.702 60.2256 165.903 61.4428 165.903 62.9285V87.3929C165.903 87.5282 165.858 87.6625 165.858 87.7979C165.858 87.9332 165.903 88.0686 165.903 88.204C165.903 88.609 166.214 88.9695 166.614 88.9695C168.125 88.9695 169.326 90.1856 169.326 91.6724C169.326 93.2047 168.125 94.4208 166.614 94.4208ZM182.22 77.3915C180.175 77.3915 178.396 78.4267 177.329 80.0943H186.755C185.866 78.3823 184.22 77.3915 182.22 77.3915ZM176.574 84.6446C177.196 87.212 179.463 89.1948 182.22 89.1948C183.642 89.1948 185.732 88.609 186.888 87.4828C187.955 86.4464 189.644 86.4464 190.667 87.5283C191.734 88.5635 191.689 90.321 190.623 91.3573C188.178 93.7451 184.754 94.5561 182.22 94.5561C176.04 94.5561 171.105 89.5099 171.105 83.2476C171.105 77.0752 176.04 71.9391 182.22 71.9391C182.887 71.9391 183.509 71.9846 184.176 72.12C187.199 72.7058 189.778 74.5976 191.378 77.3005C192.09 78.562 192.89 80.2297 192.801 81.7165C192.801 82.1214 192.623 82.5719 192.446 83.0224C192.09 83.8778 191.334 84.6446 190.266 84.6446H176.574ZM212.664 83.5106C214.584 89.3934 220.908 92.6056 226.787 90.6838C228.743 90.0436 230.404 88.9152 231.679 87.4783C230.451 90.331 228.051 92.6621 224.869 93.7018C218.99 95.6235 212.667 92.4125 210.746 86.5297C209.464 82.6041 210.467 78.4821 213.022 75.6029C211.981 78.0206 211.782 80.8122 212.664 83.5106ZM220.478 76.5449C217.932 75.3343 214.887 76.4184 213.677 78.967C213.275 79.8147 213.126 80.7179 213.201 81.59C212.644 80.2896 212.627 78.7651 213.281 77.3859C214.491 74.8384 217.536 73.7532 220.082 74.9638C221.78 75.7715 222.829 77.3959 222.978 79.1445C222.506 78.0416 221.646 77.1007 220.478 76.5449ZM225.331 84.1841C228.365 81.469 228.624 76.8089 225.912 73.7732C225.009 72.7635 223.89 72.0612 222.687 71.6728C224.729 71.6584 226.767 72.4883 228.235 74.1305C230.949 77.1651 230.689 81.8263 227.655 84.5402C225.632 86.351 222.884 86.8381 220.475 86.0603C222.205 86.0481 223.939 85.429 225.331 84.1841Z" fill="white"/>
<path d="M206.406 66.3976C207.517 67.3885 209.207 67.3441 210.229 66.2623C211.208 65.1816 211.163 63.4241 210.096 62.3877C208.452 60.8566 206.317 60 204.094 60C199.248 60 195.246 64.0099 195.246 68.9651C195.246 72.5246 195.246 87.843 195.246 91.4468C195.246 92.9336 196.492 94.1952 197.958 94.1952C199.471 94.1952 200.716 92.9336 200.716 91.4468V80.0029H204.939C206.406 80.0029 207.651 78.7869 207.651 77.2557C207.651 75.7689 206.406 74.5517 204.939 74.5517H200.716V68.9652C200.716 67.0279 202.227 65.4512 204.094 65.4512C204.983 65.4512 205.784 65.8118 206.406 66.3976ZM224.854 79.5735C225.027 81.2534 224.561 82.8511 223.652 84.126C225.5 82.7724 226.6 80.5022 226.347 78.0601C225.969 74.3986 222.695 71.7368 219.036 72.1152C217.056 72.3204 215.368 73.3745 214.296 74.8779C215.218 74.2033 216.325 73.7562 217.542 73.6297C221.202 73.2513 224.475 75.912 224.854 79.5735ZM220.83 89.6971C225.577 91.1595 230.611 88.4954 232.072 83.7455C232.863 81.1757 232.446 78.5217 231.144 76.3947C231.496 77.897 231.467 79.5092 230.98 81.0903C229.519 85.8392 224.486 88.5043 219.739 87.0419C217.561 86.3706 215.823 84.9471 214.718 83.1452C215.424 86.1554 217.664 88.7218 220.83 89.6971ZM253.844 78.7425C254.867 77.6607 254.777 75.9486 253.711 74.9578C251.71 73.066 249.132 71.9842 246.375 71.9842C244.33 71.9842 242.374 72.6145 240.728 73.6508C240.373 72.5701 239.395 71.8045 238.195 71.8045C236.727 71.8045 235.527 72.9751 235.527 74.4619V91.7175C235.527 93.2043 236.727 94.4204 238.195 94.4204C239.662 94.4204 240.862 93.2043 240.862 91.7175V83.2018C240.862 80.0029 243.352 77.3911 246.375 77.3911C247.753 77.3911 249.087 77.9314 250.066 78.8767C251.176 79.9131 252.822 79.8232 253.844 78.7425ZM271.494 78.7869C272.562 79.8232 274.252 79.7788 275.274 78.697C276.296 77.6607 276.251 75.9043 275.185 74.9123C273.051 72.7953 270.25 71.6691 267.271 71.7135C264.292 71.8045 261.536 73.0206 259.491 75.1831C257.357 77.3456 256.289 80.2293 256.334 83.2018C256.423 86.2209 257.623 89.0147 259.757 91.1317C261.847 93.1588 264.559 94.285 267.493 94.285H267.672C270.428 94.2407 273.051 93.1588 275.051 91.2671C276.118 90.2307 276.207 88.5187 275.185 87.4369C274.206 86.3562 272.473 86.2663 271.45 87.3015C270.384 88.2935 269.005 88.8793 267.538 88.8793C266.026 88.9237 264.559 88.339 263.447 87.2117C262.336 86.1754 261.669 84.6442 261.669 83.1119C261.624 81.5352 262.247 80.0484 263.27 78.9222C264.382 77.796 265.804 77.1203 267.359 77.1203C268.916 77.1203 270.384 77.7062 271.494 78.7869ZM293.947 80.0939H284.522C285.588 78.4263 287.367 77.3911 289.412 77.3911C291.413 77.3911 293.058 78.3819 293.947 80.0939ZM299.637 83.022C299.816 82.5715 299.994 82.1211 299.994 81.7161C300.082 80.2293 299.282 78.5616 298.571 77.3001C296.971 74.5972 294.392 72.7054 291.369 72.1196C290.702 71.9842 290.08 71.9387 289.412 71.9387C283.233 71.9387 278.297 77.0748 278.297 83.2473C278.297 89.5095 283.233 94.5558 289.412 94.5558C291.947 94.5558 295.37 93.7447 297.815 91.3569C298.882 90.3206 298.926 88.5631 297.859 87.5279C296.837 86.4461 295.147 86.4461 294.081 87.4824C292.924 88.6086 290.835 89.1944 289.412 89.1944C286.656 89.1944 284.388 87.2117 283.766 84.6442H297.459C298.527 84.6442 299.282 83.8775 299.637 83.022Z" fill="white"/>
</g>
</g>
<defs>
<clipPath id="clip0_633_21008">
<rect width="1920" height="1080" fill="white"/>
</clipPath>
<clipPath id="clip1_633_21008">
<rect width="240" height="46" fill="white" transform="translate(60 60)"/>
</clipPath>
</defs>
</svg>
