<svg width="547" height="119" viewBox="0 0 547 119" fill="none" xmlns="http://www.w3.org/2000/svg">
<g filter="url(#filter0_d_62_13854)">
<rect x="12.123" y="9.81335" width="517.162" height="90" rx="45" fill="url(#paint0_linear_62_13854)" shape-rendering="crispEdges"/>
<rect x="12.123" y="9.81335" width="517.162" height="90" rx="45" stroke="white" stroke-width="1.14925" shape-rendering="crispEdges"/>
<path d="M62.8673 73.3162C60.1977 73.3162 57.8274 72.8672 55.7564 71.9694C53.6973 71.0715 52.0812 69.8445 50.908 68.2882C49.7468 66.7199 49.1721 64.9422 49.1841 62.9549C49.1721 61.4106 49.5073 59.992 50.1897 58.6991C50.8721 57.4062 51.7939 56.3288 52.9551 55.4669C54.1283 54.593 55.4331 54.0363 56.8697 53.7969V53.5455C54.9782 53.1265 53.4459 52.1628 52.2727 50.6544C51.1115 49.134 50.5369 47.3802 50.5488 45.393C50.5369 43.5015 51.0636 41.8135 52.129 40.3291C53.1945 38.8447 54.655 37.6774 56.5106 36.8275C58.3661 35.9655 60.4851 35.5346 62.8673 35.5346C65.2257 35.5346 67.3267 35.9655 69.1703 36.8275C71.0258 37.6774 72.4863 38.8447 73.5518 40.3291C74.6292 41.8135 75.1679 43.5015 75.1679 45.393C75.1679 47.3802 74.5753 49.134 73.3902 50.6544C72.217 52.1628 70.7026 53.1265 68.847 53.5455V53.7969C70.2836 54.0363 71.5765 54.593 72.7258 55.4669C73.887 56.3288 74.8088 57.4062 75.4911 58.6991C76.1855 59.992 76.5326 61.4106 76.5326 62.9549C76.5326 64.9422 75.946 66.7199 74.7729 68.2882C73.5997 69.8445 71.9835 71.0715 69.9245 71.9694C67.8774 72.8672 65.525 73.3162 62.8673 73.3162ZM62.8673 68.1804C64.2441 68.1804 65.4412 67.947 66.4588 67.4801C67.4763 67.0013 68.2664 66.3309 68.8291 65.4689C69.3917 64.607 69.679 63.6134 69.691 62.4881C69.679 61.3149 69.3738 60.2794 68.7752 59.3815C68.1886 58.4717 67.3805 57.7594 66.351 57.2446C65.3334 56.7298 64.1722 56.4725 62.8673 56.4725C61.5505 56.4725 60.3773 56.7298 59.3478 57.2446C58.3182 57.7594 57.5042 58.4717 56.9056 59.3815C56.319 60.2794 56.0317 61.3149 56.0437 62.4881C56.0317 63.6134 56.3071 64.607 56.8697 65.4689C57.4324 66.3189 58.2225 66.9833 59.24 67.4622C60.2696 67.941 61.4787 68.1804 62.8673 68.1804ZM62.8673 51.4265C63.9927 51.4265 64.9863 51.1991 65.8482 50.7442C66.7221 50.2893 67.4105 49.6548 67.9133 48.8407C68.4161 48.0267 68.6735 47.0869 68.6854 46.0215C68.6735 44.968 68.4221 44.0462 67.9312 43.2561C67.4404 42.454 66.758 41.8375 65.8841 41.4065C65.0102 40.9636 64.0046 40.7421 62.8673 40.7421C61.7061 40.7421 60.6826 40.9636 59.7967 41.4065C58.9228 41.8375 58.2404 42.454 57.7496 43.2561C57.2707 44.0462 57.0373 44.968 57.0493 46.0215C57.0373 47.0869 57.2767 48.0267 57.7676 48.8407C58.2704 49.6428 58.9587 50.2773 59.8326 50.7442C60.7185 51.1991 61.7301 51.4265 62.8673 51.4265ZM96.0295 73.5137C93.0726 73.5137 90.5346 72.7655 88.4157 71.2691C86.3087 69.7607 84.6866 67.5879 83.5493 64.7507C82.424 61.9015 81.8614 58.4717 81.8614 54.4613C81.8734 50.4509 82.442 47.039 83.5673 44.2258C84.7046 41.4005 86.3267 39.2457 88.4337 37.7612C90.5526 36.2768 93.0845 35.5346 96.0295 35.5346C98.9744 35.5346 101.506 36.2768 103.625 37.7612C105.744 39.2457 107.366 41.4005 108.492 44.2258C109.629 47.051 110.198 50.4628 110.198 54.4613C110.198 58.4836 109.629 61.9194 108.492 64.7686C107.366 67.6058 105.744 69.7726 103.625 71.2691C101.518 72.7655 98.9864 73.5137 96.0295 73.5137ZM96.0295 67.8931C98.328 67.8931 100.142 66.7618 101.47 64.4993C102.811 62.2247 103.482 58.8787 103.482 54.4613C103.482 51.5403 103.176 49.0861 102.566 47.0989C101.955 45.1117 101.093 43.6152 99.98 42.6096C98.8667 41.5921 97.5498 41.0833 96.0295 41.0833C93.743 41.0833 91.9353 42.2206 90.6065 44.4951C89.2776 46.7577 88.6072 50.0798 88.5953 54.4613C88.5833 57.3943 88.8766 59.8604 89.4752 61.8596C90.0857 63.8588 90.9476 65.3672 92.061 66.3847C93.1743 67.3903 94.4971 67.8931 96.0295 67.8931ZM135.827 65.9179V63.9785C135.827 62.5539 136.126 61.243 136.725 60.0459C137.335 58.8488 138.221 57.8851 139.382 57.1548C140.543 56.4246 141.95 56.0595 143.602 56.0595C145.302 56.0595 146.727 56.4246 147.876 57.1548C149.025 57.8731 149.893 58.8308 150.48 60.028C151.078 61.2251 151.378 62.5419 151.378 63.9785V65.9179C151.378 67.3424 151.078 68.6533 150.48 69.8504C149.881 71.0476 149.001 72.0113 147.84 72.7415C146.691 73.4718 145.278 73.8369 143.602 73.8369C141.926 73.8369 140.508 73.4718 139.346 72.7415C138.185 72.0113 137.305 71.0476 136.707 69.8504C136.12 68.6533 135.827 67.3424 135.827 65.9179ZM140.514 63.9785V65.9179C140.514 66.8636 140.741 67.7315 141.196 68.5216C141.651 69.3117 142.453 69.7068 143.602 69.7068C144.763 69.7068 145.559 69.3177 145.99 68.5396C146.433 67.7495 146.655 66.8756 146.655 65.9179V63.9785C146.655 63.0208 146.445 62.1469 146.026 61.3568C145.607 60.5547 144.799 60.1537 143.602 60.1537C142.477 60.1537 141.681 60.5547 141.214 61.3568C140.747 62.1469 140.514 63.0208 140.514 63.9785ZM117.133 44.8722V42.9329C117.133 41.4963 117.439 40.1795 118.049 38.9823C118.66 37.7852 119.546 36.8275 120.707 36.1092C121.868 35.3789 123.275 35.0138 124.927 35.0138C126.615 35.0138 128.033 35.3789 129.183 36.1092C130.344 36.8275 131.218 37.7852 131.804 38.9823C132.391 40.1795 132.684 41.4963 132.684 42.9329V44.8722C132.684 46.3088 132.385 47.6256 131.786 48.8228C131.2 50.0079 130.326 50.9597 129.165 51.6779C128.003 52.3962 126.591 52.7554 124.927 52.7554C123.239 52.7554 121.814 52.3962 120.653 51.6779C119.504 50.9597 118.63 50.0019 118.031 48.8048C117.433 47.6077 117.133 46.2968 117.133 44.8722ZM121.856 42.9329V44.8722C121.856 45.8299 122.078 46.7038 122.521 47.494C122.975 48.2721 123.778 48.6612 124.927 48.6612C126.076 48.6612 126.866 48.2721 127.297 47.494C127.74 46.7038 127.962 45.8299 127.962 44.8722V42.9329C127.962 41.9752 127.752 41.1013 127.333 40.3111C126.914 39.5091 126.112 39.108 124.927 39.108C123.79 39.108 122.993 39.5091 122.539 40.3111C122.084 41.1132 121.856 41.9871 121.856 42.9329ZM119.181 72.8134L144.464 36.0374H148.953L123.67 72.8134H119.181Z" fill="#A855F7"/>
<rect x="170.336" y="41.8134" width="324.546" height="26" rx="13" fill="#E5ECF3"/>
<rect x="170.336" y="41.8134" width="266" height="26" rx="13" fill="#A855F7"/>
</g>
<defs>
<filter id="filter0_d_62_13854" x="-1.33514e-05" y="3.8147e-05" width="546.028" height="118.865" filterUnits="userSpaceOnUse" color-interpolation-filters="sRGB">
<feFlood flood-opacity="0" result="BackgroundImageFix"/>
<feColorMatrix in="SourceAlpha" type="matrix" values="0 0 0 0 0 0 0 0 0 0 0 0 0 0 0 0 0 0 127 0" result="hardAlpha"/>
<feOffset dx="2.30968" dy="4.61937"/>
<feGaussianBlur stdDeviation="6.92905"/>
<feComposite in2="hardAlpha" operator="out"/>
<feColorMatrix type="matrix" values="0 0 0 0 0.0705882 0 0 0 0 0.101961 0 0 0 0 0.203922 0 0 0 0.06 0"/>
<feBlend mode="normal" in2="BackgroundImageFix" result="effect1_dropShadow_62_13854"/>
<feBlend mode="normal" in="SourceGraphic" in2="effect1_dropShadow_62_13854" result="shape"/>
</filter>
<linearGradient id="paint0_linear_62_13854" x1="529.492" y1="90.0953" x2="207.499" y2="-132.998" gradientUnits="userSpaceOnUse">
<stop stop-color="white" stop-opacity="0.7"/>
<stop offset="0.229051" stop-color="white"/>
</linearGradient>
</defs>
</svg>
