<svg width="547" height="119" viewBox="0 0 547 119" fill="none" xmlns="http://www.w3.org/2000/svg">
<g filter="url(#filter0_d_62_13840)">
<rect x="12.123" y="9.81335" width="517.162" height="90" rx="45" fill="url(#paint0_linear_62_13840)" shape-rendering="crispEdges"/>
<rect x="12.123" y="9.81335" width="517.162" height="90" rx="45" stroke="white" stroke-width="1.14925" shape-rendering="crispEdges"/>
<path d="M62.5621 35.5346C64.3219 35.5465 66.0338 35.8578 67.6978 36.4683C69.3738 37.0669 70.8822 38.0486 72.223 39.4133C73.5637 40.7661 74.6292 42.5797 75.4193 44.8543C76.2094 47.1288 76.6045 49.9421 76.6045 53.2941C76.6164 56.4545 76.2812 59.2797 75.5989 61.7698C74.9285 64.2479 73.9648 66.3428 72.7078 68.0547C71.4508 69.7666 69.9364 71.0715 68.1647 71.9694C66.3929 72.8672 64.3997 73.3162 62.185 73.3162C59.8625 73.3162 57.8035 72.8612 56.0078 71.9514C54.224 71.0416 52.7815 69.7966 51.6801 68.2164C50.5788 66.6361 49.9024 64.8285 49.651 62.7933H56.2053C56.5405 64.2538 57.2229 65.4151 58.2524 66.277C59.2939 67.127 60.6048 67.5519 62.185 67.5519C64.7349 67.5519 66.6982 66.4446 68.0749 64.2299C69.4516 62.0152 70.1399 58.9386 70.1399 55H69.8885C69.3019 56.0535 68.5418 56.9633 67.608 57.7295C66.6742 58.4836 65.6148 59.0643 64.4296 59.4713C63.2564 59.8783 62.0114 60.0818 60.6945 60.0818C58.5397 60.0818 56.6003 59.5671 54.8765 58.5375C53.1646 57.508 51.8058 56.0954 50.8002 54.2997C49.8066 52.504 49.3038 50.4509 49.2918 48.1404C49.2918 45.7461 49.8425 43.5973 50.9439 41.6938C52.0572 39.7784 53.6075 38.27 55.5948 37.1687C57.582 36.0553 59.9044 35.5106 62.5621 35.5346ZM62.58 40.9217C61.2871 40.9217 60.1199 41.2389 59.0784 41.8734C58.0489 42.4959 57.2348 43.3459 56.6363 44.4233C56.0497 45.4888 55.7564 46.6799 55.7564 47.9967C55.7683 49.3016 56.0616 50.4868 56.6363 51.5522C57.2229 52.6177 58.019 53.4617 59.0245 54.0842C60.0421 54.7067 61.2033 55.0179 62.5082 55.0179C63.4779 55.0179 64.3817 54.8324 65.2197 54.4613C66.0577 54.0902 66.788 53.5754 67.4105 52.917C68.045 52.2466 68.5358 51.4864 68.883 50.6364C69.2421 49.7865 69.4157 48.8886 69.4037 47.9429C69.4037 46.6859 69.1044 45.5247 68.5059 44.4592C67.9193 43.3938 67.1112 42.5378 66.0817 41.8914C65.0641 41.2449 63.8969 40.9217 62.58 40.9217ZM82.5842 72.8134V68.0009L95.3516 55.4848C96.5727 54.2518 97.5902 53.1564 98.4043 52.1987C99.2183 51.241 99.8289 50.3132 100.236 49.4154C100.643 48.5175 100.846 47.5598 100.846 46.5422C100.846 45.381 100.583 44.3874 100.056 43.5614C99.5296 42.7234 98.8053 42.0769 97.8835 41.622C96.9618 41.1671 95.9143 40.9396 94.7411 40.9396C93.532 40.9396 92.4725 41.191 91.5627 41.6938C90.6528 42.1847 89.9465 42.885 89.4437 43.7948C88.9529 44.7046 88.7075 45.788 88.7075 47.045H82.3687C82.3687 44.7106 82.9014 42.6815 83.9669 40.9576C85.0323 39.2337 86.4988 37.8989 88.3663 36.9532C90.2458 36.0074 92.4007 35.5346 94.8309 35.5346C97.2969 35.5346 99.4638 35.9955 101.331 36.9173C103.199 37.8391 104.647 39.102 105.677 40.7062C106.718 42.3104 107.239 44.142 107.239 46.201C107.239 47.5778 106.976 48.9305 106.449 50.2593C105.922 51.5882 104.995 53.0606 103.666 54.6768C102.349 56.2929 100.499 58.2502 98.117 60.5487L91.7782 66.9953V67.2467H107.796V72.8134H82.5842ZM133.654 65.9179V63.9785C133.654 62.5539 133.953 61.243 134.552 60.0459C135.162 58.8488 136.048 57.8851 137.209 57.1548C138.371 56.4246 139.777 56.0595 141.429 56.0595C143.129 56.0595 144.554 56.4246 145.703 57.1548C146.852 57.8731 147.72 58.8308 148.307 60.028C148.905 61.2251 149.205 62.5419 149.205 63.9785V65.9179C149.205 67.3424 148.905 68.6533 148.307 69.8504C147.708 71.0476 146.828 72.0113 145.667 72.7415C144.518 73.4718 143.105 73.8369 141.429 73.8369C139.753 73.8369 138.335 73.4718 137.174 72.7415C136.012 72.0113 135.132 71.0476 134.534 69.8504C133.947 68.6533 133.654 67.3424 133.654 65.9179ZM138.341 63.9785V65.9179C138.341 66.8636 138.568 67.7315 139.023 68.5216C139.478 69.3117 140.28 69.7068 141.429 69.7068C142.591 69.7068 143.387 69.3177 143.818 68.5396C144.261 67.7495 144.482 66.8756 144.482 65.9179V63.9785C144.482 63.0208 144.273 62.1469 143.854 61.3568C143.435 60.5547 142.626 60.1537 141.429 60.1537C140.304 60.1537 139.508 60.5547 139.041 61.3568C138.574 62.1469 138.341 63.0208 138.341 63.9785ZM114.961 44.8722V42.9329C114.961 41.4963 115.266 40.1795 115.876 38.9823C116.487 37.7852 117.373 36.8275 118.534 36.1092C119.695 35.3789 121.102 35.0138 122.754 35.0138C124.442 35.0138 125.861 35.3789 127.01 36.1092C128.171 36.8275 129.045 37.7852 129.632 38.9823C130.218 40.1795 130.511 41.4963 130.511 42.9329V44.8722C130.511 46.3088 130.212 47.6256 129.614 48.8228C129.027 50.0079 128.153 50.9597 126.992 51.6779C125.831 52.3962 124.418 52.7554 122.754 52.7554C121.066 52.7554 119.641 52.3962 118.48 51.6779C117.331 50.9597 116.457 50.0019 115.859 48.8048C115.26 47.6077 114.961 46.2968 114.961 44.8722ZM119.683 42.9329V44.8722C119.683 45.8299 119.905 46.7038 120.348 47.494C120.803 48.2721 121.605 48.6612 122.754 48.6612C123.903 48.6612 124.693 48.2721 125.124 47.494C125.567 46.7038 125.789 45.8299 125.789 44.8722V42.9329C125.789 41.9752 125.579 41.1013 125.16 40.3111C124.741 39.5091 123.939 39.108 122.754 39.108C121.617 39.108 120.821 39.5091 120.366 40.3111C119.911 41.1132 119.683 41.9871 119.683 42.9329ZM117.008 72.8134L142.291 36.0374H146.781L121.497 72.8134H117.008Z" fill="#43B0FF"/>
<rect x="167.336" y="41.8134" width="327.546" height="26" rx="13" fill="#E5ECF3"/>
<rect x="167.336" y="41.8134" width="305" height="26" rx="13" fill="#43B0FF"/>
</g>
<defs>
<filter id="filter0_d_62_13840" x="-1.33514e-05" y="3.8147e-05" width="546.028" height="118.865" filterUnits="userSpaceOnUse" color-interpolation-filters="sRGB">
<feFlood flood-opacity="0" result="BackgroundImageFix"/>
<feColorMatrix in="SourceAlpha" type="matrix" values="0 0 0 0 0 0 0 0 0 0 0 0 0 0 0 0 0 0 127 0" result="hardAlpha"/>
<feOffset dx="2.30968" dy="4.61937"/>
<feGaussianBlur stdDeviation="6.92905"/>
<feComposite in2="hardAlpha" operator="out"/>
<feColorMatrix type="matrix" values="0 0 0 0 0.0705882 0 0 0 0 0.101961 0 0 0 0 0.203922 0 0 0 0.06 0"/>
<feBlend mode="normal" in2="BackgroundImageFix" result="effect1_dropShadow_62_13840"/>
<feBlend mode="normal" in="SourceGraphic" in2="effect1_dropShadow_62_13840" result="shape"/>
</filter>
<linearGradient id="paint0_linear_62_13840" x1="529.492" y1="90.0953" x2="207.499" y2="-132.998" gradientUnits="userSpaceOnUse">
<stop stop-color="white" stop-opacity="0.7"/>
<stop offset="0.229051" stop-color="white"/>
</linearGradient>
</defs>
</svg>
