<svg width="547" height="119" viewBox="0 0 547 119" fill="none" xmlns="http://www.w3.org/2000/svg">
<g filter="url(#filter0_d_62_13847)">
<rect x="12.123" y="9.81335" width="517.162" height="90" rx="45" fill="url(#paint0_linear_62_13847)" shape-rendering="crispEdges"/>
<rect x="12.123" y="9.81335" width="517.162" height="90" rx="45" stroke="white" stroke-width="1.14925" shape-rendering="crispEdges"/>
<path d="M62.5621 35.5346C64.3219 35.5465 66.0338 35.8578 67.6978 36.4683C69.3738 37.0669 70.8822 38.0486 72.223 39.4133C73.5638 40.7661 74.6292 42.5797 75.4193 44.8543C76.2094 47.1288 76.6045 49.9421 76.6045 53.2941C76.6165 56.4545 76.2813 59.2797 75.5989 61.7698C74.9285 64.2479 73.9648 66.3428 72.7078 68.0547C71.4508 69.7666 69.9365 71.0715 68.1647 71.9694C66.3929 72.8672 64.3997 73.3162 62.185 73.3162C59.8626 73.3162 57.8035 72.8612 56.0078 71.9514C54.2241 71.0416 52.7815 69.7966 51.6802 68.2164C50.5788 66.6361 49.9024 64.8285 49.651 62.7933H56.2053C56.5405 64.2538 57.2229 65.4151 58.2524 66.277C59.2939 67.127 60.6048 67.5519 62.185 67.5519C64.7349 67.5519 66.6982 66.4446 68.0749 64.2299C69.4516 62.0152 70.14 58.9386 70.14 55H69.8886C69.302 56.0535 68.5418 56.9633 67.608 57.7295C66.6743 58.4836 65.6148 59.0643 64.4296 59.4713C63.2564 59.8783 62.0114 60.0818 60.6946 60.0818C58.5397 60.0818 56.6004 59.5671 54.8765 58.5375C53.1646 57.508 51.8059 56.0954 50.8003 54.2997C49.8066 52.504 49.3038 50.4509 49.2919 48.1404C49.2919 45.7461 49.8426 43.5973 50.9439 41.6938C52.0573 39.7784 53.6075 38.27 55.5948 37.1687C57.582 36.0553 59.9045 35.5106 62.5621 35.5346ZM62.5801 40.9217C61.2872 40.9217 60.12 41.2389 59.0784 41.8734C58.0489 42.4959 57.2349 43.3459 56.6363 44.4233C56.0497 45.4888 55.7564 46.6799 55.7564 47.9967C55.7684 49.3016 56.0617 50.4868 56.6363 51.5522C57.2229 52.6177 58.019 53.4617 59.0246 54.0842C60.0421 54.7067 61.2034 55.0179 62.5082 55.0179C63.4779 55.0179 64.3818 54.8324 65.2198 54.4613C66.0577 54.0902 66.788 53.5754 67.4105 52.917C68.045 52.2466 68.5358 51.4864 68.883 50.6364C69.2421 49.7865 69.4157 48.8886 69.4037 47.9429C69.4037 46.6859 69.1045 45.5247 68.5059 44.4592C67.9193 43.3938 67.1112 42.5378 66.0817 41.8914C65.0641 41.2449 63.8969 40.9217 62.5801 40.9217ZM82.9433 72.8134L98.5839 41.8554V41.604H80.4293V36.0374H105.479V41.7297L89.8568 72.8134H82.9433ZM130.938 65.9179V63.9785C130.938 62.5539 131.237 61.243 131.836 60.0459C132.446 58.8488 133.332 57.8851 134.493 57.1548C135.655 56.4246 137.061 56.0595 138.713 56.0595C140.413 56.0595 141.838 56.4246 142.987 57.1548C144.136 57.8731 145.004 58.8308 145.591 60.028C146.189 61.2251 146.489 62.5419 146.489 63.9785V65.9179C146.489 67.3424 146.189 68.6533 145.591 69.8504C144.992 71.0476 144.112 72.0113 142.951 72.7415C141.802 73.4718 140.389 73.8369 138.713 73.8369C137.037 73.8369 135.619 73.4718 134.458 72.7415C133.296 72.0113 132.416 71.0476 131.818 69.8504C131.231 68.6533 130.938 67.3424 130.938 65.9179ZM135.625 63.9785V65.9179C135.625 66.8636 135.852 67.7315 136.307 68.5216C136.762 69.3117 137.564 69.7068 138.713 69.7068C139.875 69.7068 140.671 69.3177 141.102 68.5396C141.545 67.7495 141.766 66.8756 141.766 65.9179V63.9785C141.766 63.0208 141.557 62.1469 141.138 61.3568C140.719 60.5547 139.91 60.1537 138.713 60.1537C137.588 60.1537 136.792 60.5547 136.325 61.3568C135.858 62.1469 135.625 63.0208 135.625 63.9785ZM112.245 44.8722V42.9329C112.245 41.4963 112.55 40.1795 113.161 38.9823C113.771 37.7852 114.657 36.8275 115.818 36.1092C116.979 35.3789 118.386 35.0138 120.038 35.0138C121.726 35.0138 123.145 35.3789 124.294 36.1092C125.455 36.8275 126.329 37.7852 126.916 38.9823C127.502 40.1795 127.795 41.4963 127.795 42.9329V44.8722C127.795 46.3088 127.496 47.6256 126.898 48.8228C126.311 50.0079 125.437 50.9597 124.276 51.6779C123.115 52.3962 121.702 52.7554 120.038 52.7554C118.35 52.7554 116.925 52.3962 115.764 51.6779C114.615 50.9597 113.741 50.0019 113.143 48.8048C112.544 47.6077 112.245 46.2968 112.245 44.8722ZM116.967 42.9329V44.8722C116.967 45.8299 117.189 46.7038 117.632 47.494C118.087 48.2721 118.889 48.6612 120.038 48.6612C121.187 48.6612 121.977 48.2721 122.408 47.494C122.851 46.7038 123.073 45.8299 123.073 44.8722V42.9329C123.073 41.9752 122.863 41.1013 122.444 40.3111C122.025 39.5091 121.223 39.108 120.038 39.108C118.901 39.108 118.105 39.5091 117.65 40.3111C117.195 41.1132 116.967 41.9871 116.967 42.9329ZM114.292 72.8134L139.575 36.0374H144.065L118.781 72.8134H114.292Z" fill="#12B76A"/>
<rect x="165.336" y="41.8134" width="329.546" height="26" rx="13" fill="#E5ECF3"/>
<rect x="165.336" y="41.8134" width="316" height="26" rx="13" fill="#12B76A"/>
</g>
<defs>
<filter id="filter0_d_62_13847" x="1.90735e-06" y="3.8147e-05" width="546.028" height="118.865" filterUnits="userSpaceOnUse" color-interpolation-filters="sRGB">
<feFlood flood-opacity="0" result="BackgroundImageFix"/>
<feColorMatrix in="SourceAlpha" type="matrix" values="0 0 0 0 0 0 0 0 0 0 0 0 0 0 0 0 0 0 127 0" result="hardAlpha"/>
<feOffset dx="2.30968" dy="4.61937"/>
<feGaussianBlur stdDeviation="6.92905"/>
<feComposite in2="hardAlpha" operator="out"/>
<feColorMatrix type="matrix" values="0 0 0 0 0.0705882 0 0 0 0 0.101961 0 0 0 0 0.203922 0 0 0 0.06 0"/>
<feBlend mode="normal" in2="BackgroundImageFix" result="effect1_dropShadow_62_13847"/>
<feBlend mode="normal" in="SourceGraphic" in2="effect1_dropShadow_62_13847" result="shape"/>
</filter>
<linearGradient id="paint0_linear_62_13847" x1="529.492" y1="90.0953" x2="207.499" y2="-132.998" gradientUnits="userSpaceOnUse">
<stop stop-color="white" stop-opacity="0.7"/>
<stop offset="0.229051" stop-color="white"/>
</linearGradient>
</defs>
</svg>
