<svg width="172" height="539" viewBox="0 0 172 539" fill="none" xmlns="http://www.w3.org/2000/svg">
<g filter="url(#filter0_d_62_13820)">
<rect x="19.0961" y="15.1483" width="132.939" height="132.939" rx="66.4694" stroke="white" stroke-width="6.60996" shape-rendering="crispEdges"/>
<rect x="22.4011" y="18.4533" width="126.329" height="126.329" rx="63.1645" fill="#A855F7"/>
<path d="M85.567 54.0455C70.3747 54.0455 57.9948 66.4255 57.9948 81.6178C57.9948 96.8101 70.3747 109.19 85.567 109.19C100.759 109.19 113.139 96.8101 113.139 81.6178C113.139 66.4255 100.759 54.0455 85.567 54.0455ZM97.561 91.461C97.1749 92.1228 96.4856 92.4812 95.7688 92.4812C95.4103 92.4812 95.0519 92.3985 94.721 92.1779L86.1736 87.0771C84.0506 85.8087 82.4789 83.0239 82.4789 80.57V69.2654C82.4789 68.1349 83.4164 67.1975 84.5469 67.1975C85.6773 67.1975 86.6148 68.1349 86.6148 69.2654V80.57C86.6148 81.5626 87.4419 83.0239 88.2967 83.5202L96.8441 88.6211C97.8367 89.2001 98.1675 90.4684 97.561 91.461Z" fill="white"/>
</g>
<g filter="url(#filter1_d_62_13820)">
<rect x="19.0961" y="110.316" width="132.939" height="132.939" rx="66.4694" stroke="white" stroke-width="6.60996" shape-rendering="crispEdges"/>
<rect x="22.4011" y="113.621" width="126.329" height="126.329" rx="63.1645" fill="#43B0FF"/>
<path d="M80.8715 159.666L54.1472 175.146C52.5533 176.069 52.0072 178.114 52.9274 179.714L54.5937 182.609C59.3738 179.84 65.4901 181.483 68.2507 186.281C71.0113 191.078 69.3714 197.214 64.5913 199.983L66.2576 202.878C67.1779 204.477 69.216 205.025 70.8099 204.102L97.5342 188.622L80.8715 159.666Z" fill="white"/>
<path d="M101.863 186.114L116.987 177.354C118.581 176.43 119.127 174.386 118.207 172.786L116.54 169.891C111.76 172.66 105.644 171.017 102.883 166.219C100.123 161.422 101.763 155.286 106.543 152.517L104.877 149.622C103.956 148.023 101.918 147.475 100.324 148.398L85.2006 157.158L101.863 186.114Z" fill="white"/>
</g>
<g filter="url(#filter2_d_62_13820)">
<rect x="19.0961" y="205.483" width="132.939" height="132.939" rx="66.4694" stroke="white" stroke-width="6.60996" shape-rendering="crispEdges"/>
<rect x="22.4011" y="208.788" width="126.329" height="126.329" rx="63.1645" fill="#F87171"/>
<path fill-rule="evenodd" clip-rule="evenodd" d="M86.9744 250.494C81.768 250.153 76.6151 251.716 72.4757 254.892C68.3362 258.069 65.4927 262.642 64.4748 267.759C63.4569 272.876 64.3341 278.189 66.9429 282.708C69.5517 287.226 73.7142 290.642 78.6549 292.32C83.5956 293.997 88.9775 293.821 93.798 291.824C98.6184 289.827 102.549 286.146 104.856 281.467C107.164 276.787 107.692 271.428 106.341 266.388C105.809 264.403 106.988 262.362 108.973 261.83C110.959 261.298 113 262.476 113.532 264.462C115.35 271.246 114.64 278.46 111.533 284.759C108.427 291.059 103.136 296.014 96.6468 298.702C90.1578 301.39 82.9129 301.627 76.2619 299.369C69.611 297.111 64.0076 292.513 60.4957 286.43C56.9839 280.347 55.8031 273.195 57.1734 266.307C58.5436 259.418 62.3715 253.262 67.9437 248.986C73.516 244.711 80.4527 242.606 87.4613 243.066C94.47 243.525 101.073 246.517 106.039 251.483C107.493 252.937 107.493 255.294 106.039 256.747C104.586 258.201 102.229 258.201 100.775 256.747C97.0857 253.058 92.1809 250.836 86.9744 250.494Z" fill="white"/>
<path fill-rule="evenodd" clip-rule="evenodd" d="M79.1631 258.97C81.8757 257.632 84.9392 257.177 87.9234 257.67C90.9075 258.163 93.6624 259.578 95.8011 261.716C97.0124 262.928 97.0124 264.892 95.8011 266.103C94.5897 267.315 92.6257 267.315 91.4144 266.103C90.1923 264.881 88.618 264.072 86.9128 263.791C85.2076 263.509 83.457 263.769 81.9069 264.534C80.3569 265.298 79.0852 266.529 78.2704 268.053C77.4557 269.577 77.1389 271.318 77.3645 273.032C77.5901 274.745 78.3467 276.345 79.5282 277.607C80.7097 278.868 82.2566 279.728 83.9517 280.065C85.6468 280.402 87.4049 280.2 88.9792 279.487C90.5534 278.773 91.8647 277.585 92.7289 276.088C93.5854 274.604 95.4825 274.096 96.9661 274.953C98.4497 275.809 98.958 277.706 98.1015 279.19C96.5892 281.809 94.2945 283.889 91.5395 285.137C88.7846 286.386 85.7078 286.739 82.7414 286.149C79.775 285.559 77.0679 284.055 75.0003 281.847C72.9328 279.64 71.6086 276.84 71.2138 273.842C70.819 270.843 71.3735 267.796 72.7992 265.128C74.225 262.461 76.4505 260.307 79.1631 258.97Z" fill="white"/>
<path fill-rule="evenodd" clip-rule="evenodd" d="M106.246 239.901C107.581 239.901 108.766 240.755 109.188 242.022L110.766 246.754L115.498 248.332C116.765 248.754 117.619 249.939 117.619 251.274C117.619 252.609 116.765 253.795 115.498 254.217L103.785 258.121L87.7599 274.147C86.5485 275.358 84.5845 275.358 83.3732 274.147C82.1618 272.935 82.1618 270.971 83.3732 269.76L99.3987 253.734L103.303 242.022C103.725 240.755 104.911 239.901 106.246 239.901Z" fill="white"/>
</g>
<g filter="url(#filter3_d_62_13820)">
<rect x="19.0961" y="300.65" width="132.939" height="132.939" rx="66.4694" stroke="white" stroke-width="6.60996" shape-rendering="crispEdges"/>
<rect x="22.4011" y="303.955" width="126.329" height="126.329" rx="63.1645" fill="#FCD34D"/>
<path d="M75.0349 342.431C65.8339 342.431 57.9952 349.571 57.9952 358.845C57.9952 365.242 60.8815 370.628 64.7068 375.09C68.519 379.536 73.4373 383.268 77.8836 386.392L85.5551 391.782C86.3952 392.372 87.4969 392.372 88.3371 391.782L96.0086 386.392C100.455 383.268 105.373 379.536 109.185 375.09C113.011 370.628 115.897 365.242 115.897 358.845C115.897 349.571 108.058 342.431 98.8573 342.431C94.1144 342.431 89.941 344.739 86.9461 347.725C83.9512 344.739 79.7778 342.431 75.0349 342.431Z" fill="white"/>
</g>
<g filter="url(#filter4_d_62_13820)">
<rect x="22.4011" y="399.122" width="126.331" height="126.331" rx="63.1655" fill="#EDF2F7" shape-rendering="crispEdges"/>
<rect x="18.4533" y="395.175" width="134.227" height="134.227" rx="67.1133" stroke="white" stroke-width="7.89568" shape-rendering="crispEdges"/>
<path d="M66.618 475.371V448.835H71.8977V475.371H66.618ZM55.9998 464.733V459.473H82.5356V464.733H55.9998ZM89.9153 482.122V477.726L103.517 463.634C104.969 462.103 106.167 460.762 107.109 459.61C108.064 458.446 108.777 457.34 109.248 456.293C109.719 455.246 109.955 454.134 109.955 452.957C109.955 451.622 109.641 450.47 109.012 449.502C108.384 448.521 107.527 447.768 106.441 447.245C105.355 446.709 104.132 446.44 102.771 446.44C101.332 446.44 100.076 446.735 99.0027 447.324C97.9297 447.912 97.1054 448.743 96.5297 449.816C95.9539 450.889 95.6661 452.145 95.6661 453.585H89.8761C89.8761 451.138 90.4387 448.998 91.564 447.167C92.6893 445.335 94.2333 443.915 96.196 442.907C98.1587 441.887 100.39 441.377 102.889 441.377C105.414 441.377 107.639 441.88 109.562 442.888C111.499 443.882 113.01 445.243 114.096 446.97C115.182 448.684 115.725 450.621 115.725 452.78C115.725 454.272 115.444 455.73 114.881 457.157C114.331 458.583 113.37 460.173 111.996 461.926C110.622 463.666 108.712 465.78 106.265 468.266L98.2765 476.627V476.921H116.373V482.122H89.9153Z" fill="#2C8DFF"/>
</g>
<defs>
<filter id="filter0_d_62_13820" x="2.19345e-05" y="-1.40667e-05" width="171.131" height="171.131" filterUnits="userSpaceOnUse" color-interpolation-filters="sRGB">
<feFlood flood-opacity="0" result="BackgroundImageFix"/>
<feColorMatrix in="SourceAlpha" type="matrix" values="0 0 0 0 0 0 0 0 0 0 0 0 0 0 0 0 0 0 127 0" result="hardAlpha"/>
<feOffset dy="3.94778"/>
<feGaussianBlur stdDeviation="7.89556"/>
<feComposite in2="hardAlpha" operator="out"/>
<feColorMatrix type="matrix" values="0 0 0 0 0.0352941 0 0 0 0 0.0313726 0 0 0 0 0.239216 0 0 0 0.08 0"/>
<feBlend mode="normal" in2="BackgroundImageFix" result="effect1_dropShadow_62_13820"/>
<feBlend mode="normal" in="SourceGraphic" in2="effect1_dropShadow_62_13820" result="shape"/>
</filter>
<filter id="filter1_d_62_13820" x="2.19345e-05" y="95.1672" width="171.131" height="171.131" filterUnits="userSpaceOnUse" color-interpolation-filters="sRGB">
<feFlood flood-opacity="0" result="BackgroundImageFix"/>
<feColorMatrix in="SourceAlpha" type="matrix" values="0 0 0 0 0 0 0 0 0 0 0 0 0 0 0 0 0 0 127 0" result="hardAlpha"/>
<feOffset dy="3.94778"/>
<feGaussianBlur stdDeviation="7.89556"/>
<feComposite in2="hardAlpha" operator="out"/>
<feColorMatrix type="matrix" values="0 0 0 0 0.0352941 0 0 0 0 0.0313726 0 0 0 0 0.239216 0 0 0 0.08 0"/>
<feBlend mode="normal" in2="BackgroundImageFix" result="effect1_dropShadow_62_13820"/>
<feBlend mode="normal" in="SourceGraphic" in2="effect1_dropShadow_62_13820" result="shape"/>
</filter>
<filter id="filter2_d_62_13820" x="2.19345e-05" y="190.334" width="171.131" height="171.131" filterUnits="userSpaceOnUse" color-interpolation-filters="sRGB">
<feFlood flood-opacity="0" result="BackgroundImageFix"/>
<feColorMatrix in="SourceAlpha" type="matrix" values="0 0 0 0 0 0 0 0 0 0 0 0 0 0 0 0 0 0 127 0" result="hardAlpha"/>
<feOffset dy="3.94778"/>
<feGaussianBlur stdDeviation="7.89556"/>
<feComposite in2="hardAlpha" operator="out"/>
<feColorMatrix type="matrix" values="0 0 0 0 0.0352941 0 0 0 0 0.0313726 0 0 0 0 0.239216 0 0 0 0.08 0"/>
<feBlend mode="normal" in2="BackgroundImageFix" result="effect1_dropShadow_62_13820"/>
<feBlend mode="normal" in="SourceGraphic" in2="effect1_dropShadow_62_13820" result="shape"/>
</filter>
<filter id="filter3_d_62_13820" x="2.19345e-05" y="285.502" width="171.131" height="171.131" filterUnits="userSpaceOnUse" color-interpolation-filters="sRGB">
<feFlood flood-opacity="0" result="BackgroundImageFix"/>
<feColorMatrix in="SourceAlpha" type="matrix" values="0 0 0 0 0 0 0 0 0 0 0 0 0 0 0 0 0 0 127 0" result="hardAlpha"/>
<feOffset dy="3.94778"/>
<feGaussianBlur stdDeviation="7.89556"/>
<feComposite in2="hardAlpha" operator="out"/>
<feColorMatrix type="matrix" values="0 0 0 0 0.0352941 0 0 0 0 0.0313726 0 0 0 0 0.239216 0 0 0 0.08 0"/>
<feBlend mode="normal" in2="BackgroundImageFix" result="effect1_dropShadow_62_13820"/>
<feBlend mode="normal" in="SourceGraphic" in2="effect1_dropShadow_62_13820" result="shape"/>
</filter>
<filter id="filter4_d_62_13820" x="10.5054" y="388.227" width="150.122" height="150.122" filterUnits="userSpaceOnUse" color-interpolation-filters="sRGB">
<feFlood flood-opacity="0" result="BackgroundImageFix"/>
<feColorMatrix in="SourceAlpha" type="matrix" values="0 0 0 0 0 0 0 0 0 0 0 0 0 0 0 0 0 0 127 0" result="hardAlpha"/>
<feOffset dy="1"/>
<feGaussianBlur stdDeviation="2"/>
<feComposite in2="hardAlpha" operator="out"/>
<feColorMatrix type="matrix" values="0 0 0 0 0.0352941 0 0 0 0 0.0313726 0 0 0 0 0.239216 0 0 0 0.08 0"/>
<feBlend mode="normal" in2="BackgroundImageFix" result="effect1_dropShadow_62_13820"/>
<feBlend mode="normal" in="SourceGraphic" in2="effect1_dropShadow_62_13820" result="shape"/>
</filter>
</defs>
</svg>
