<svg width="1242" height="1026" viewBox="0 0 1242 1026" fill="none" xmlns="http://www.w3.org/2000/svg">
<g opacity="0.3">
<path d="M938.503 445.951L938.503 144.525C938.503 118.266 917.216 96.9785 890.957 96.9785L570.836 96.9785" stroke="#B5C3CF" stroke-width="2" stroke-dasharray="8 8"/>
<path d="M566.564 100.06C564.98 99.1444 564.98 96.8575 566.564 95.9424L581.924 87.0706C583.509 86.1551 585.49 87.2989 585.49 89.1292L585.49 106.873C585.49 108.703 583.509 109.847 581.924 108.931L566.564 100.06Z" fill="#B5C3CF"/>
<path d="M181.975 842.284L878.764 842.284C911.753 842.284 938.496 815.541 938.496 782.551L938.496 435.98" stroke="#B5C3CF" stroke-width="2" stroke-dasharray="8 8"/>
<path d="M164.563 844.059C162.979 843.143 162.979 840.857 164.563 839.941L179.923 831.07C181.508 830.154 183.489 831.298 183.489 833.128L183.489 850.872C183.489 852.702 181.508 853.846 179.923 852.93L164.563 844.059Z" fill="#B5C3CF"/>
<path d="M939.126 691.967L1524.19 691.967C1550.45 691.967 1571.74 670.68 1571.74 644.421V326.978C1571.74 300.719 1593.03 279.432 1619.29 279.432L1628.97 279.432" stroke="#B5C3CF" stroke-width="2" stroke-dasharray="8 8"/>
<path d="M745.317 -89.5171L745.316 390.926C745.316 417.185 766.604 438.472 792.863 438.472L937.251 438.472" stroke="#B5C3CF" stroke-width="2"/>
<path d="M922.937 438.065C922.937 447.101 930.258 454.425 939.289 454.425C948.319 454.425 955.64 447.101 955.64 438.065C955.64 429.03 948.319 421.706 939.289 421.706C930.258 421.706 922.937 429.03 922.937 438.065Z" fill="#B5C3CF" stroke="#B5C3CF" stroke-width="2"/>
<path d="M554.629 989.967L554.629 486.018C554.629 459.759 575.916 438.472 602.175 438.472L937.252 438.472" stroke="#B5C3CF" stroke-width="2"/>
<path d="M552.868 1012.08C553.74 1013.85 556.26 1013.85 557.132 1012.08L568.308 989.428C569.087 987.848 567.938 985.999 566.176 985.999H543.824C542.062 985.999 540.913 987.848 541.692 989.428L552.868 1012.08Z" fill="#B5C3CF"/>
<rect x="563.355" y="705.466" width="17.4486" height="81.703" rx="8.72431" transform="rotate(-180 563.355 705.466)" fill="#B5C3CF"/>
<path d="M1321.13 762.518L1321.13 498.204C1321.13 465.215 1294.38 438.472 1261.39 438.472L942.242 438.472" stroke="#B5C3CF" stroke-width="2"/>
<path d="M938.501 1009.29L938.501 237.376C938.501 211.117 959.788 189.83 986.047 189.83L1273.58 189.829C1299.84 189.829 1321.12 168.542 1321.12 142.283L1321.12 -48.8423" stroke="#B5C3CF" stroke-width="2"/>
<rect x="1090.55" y="205.41" width="31.1582" height="74.7797" rx="15.5791" transform="rotate(-90 1090.55 205.41)" fill="#B5C3CF"/>
<path d="M939 1015L782.268 1015C756.009 1015 734.722 993.713 734.722 967.454L734.722 784.546C734.722 758.287 713.435 737 687.176 737L368 737" stroke="#B5C3CF" stroke-width="2"/>
<path d="M351.632 739.066C350.029 738.155 350.029 735.845 351.632 734.934L367.279 726.031C368.864 725.129 370.832 726.274 370.832 728.097L370.832 745.903C370.832 747.726 368.864 748.871 367.279 747.969L351.632 739.066Z" fill="#B5C3CF"/>
<path d="M550.891 98.2238L410.818 98.2237C384.559 98.2236 363.272 119.511 363.272 145.77L363.272 390.925C363.272 417.184 341.985 438.471 315.726 438.471L18.085 438.471" stroke="#B5C3CF" stroke-width="2"/>
<rect x="370.176" y="291.406" width="17.4486" height="69.7944" rx="8.72431" transform="rotate(-180 370.176 291.406)" fill="#B5C3CF"/>
<path d="M3.56394 441.059C1.97961 440.143 1.97961 437.857 3.56394 436.941L18.9234 428.07C20.5083 427.154 22.4898 428.298 22.4898 430.128L22.4898 447.872C22.4898 449.702 20.5083 450.846 18.9234 449.93L3.56394 441.059Z" fill="#B5C3CF"/>
<path d="M545 96.5C545 90.6587 549.519 86 555 86C560.481 86 565 90.6587 565 96.5C565 102.341 560.481 107 555 107C549.519 107 545 102.341 545 96.5Z" fill="white" stroke="#B5C3CF" stroke-width="2"/>
<path d="M1678.82 787.446L1521.97 787.445C1495.71 787.445 1474.42 808.733 1474.42 834.992L1474.42 967.977C1474.42 994.236 1453.13 1015.52 1426.88 1015.52L938.5 1015.52" stroke="#B5C3CF" stroke-width="2"/>
<path d="M926.998 1014C926.998 1007.92 931.923 1003 937.998 1003C944.073 1003 948.998 1007.92 948.998 1014C948.998 1020.08 944.073 1025 937.998 1025C931.923 1025 926.998 1020.08 926.998 1014Z" fill="white" stroke="#B5C3CF" stroke-width="2"/>
<rect x="1140.41" y="1025.49" width="21.1876" height="108.431" rx="10.5938" transform="rotate(-90 1140.41 1025.49)" fill="#B5C3CF"/>
</g>
</svg>
