<svg width="675" height="276" viewBox="0 0 675 276" fill="none" xmlns="http://www.w3.org/2000/svg">
<g clip-path="url(#clip0_27_372)">
<path d="M102.019 126.928C94.9647 126.928 89.2647 132.685 89.2647 139.811C89.2647 146.939 94.9647 152.697 102.019 152.697C108.975 152.697 114.773 146.939 114.773 139.811C114.773 132.685 108.975 126.928 102.019 126.928ZM102.019 164.507C96.9949 164.507 92.3568 162.947 88.3946 160.409V183.252C88.3946 186.569 85.7867 189.206 82.5987 189.206C79.3125 189.206 76.7046 186.569 76.7046 183.252V121.168C76.7046 117.946 79.3125 115.312 82.5987 115.312C85.2066 115.312 87.4286 117.069 88.2005 119.41C92.0667 116.677 96.8967 115.117 102.019 115.117C115.449 115.117 126.463 126.147 126.463 139.811C126.463 153.478 115.449 164.507 102.019 164.507ZM154.486 127.221C150.042 127.221 146.176 129.464 143.858 133.077H164.342C162.408 129.368 158.834 127.221 154.486 127.221ZM142.216 142.936C143.568 148.499 148.496 152.795 154.486 152.795C157.578 152.795 162.118 151.526 164.63 149.086C166.95 146.84 170.622 146.84 172.844 149.184C175.162 151.427 175.066 155.235 172.748 157.481C167.434 162.654 159.994 164.411 154.486 164.411C141.056 164.411 130.329 153.478 130.329 139.91C130.329 126.536 141.056 115.408 154.486 115.408C155.936 115.408 157.288 115.506 158.738 115.8C165.308 117.069 170.912 121.168 174.39 127.024C175.936 129.757 177.674 133.371 177.482 136.592C177.482 137.469 177.097 138.445 176.708 139.422C175.936 141.275 174.294 142.936 171.974 142.936H142.216ZM206.202 127.519C199.508 127.519 194.03 133.125 194.03 139.97C194.03 146.864 199.508 152.42 206.202 152.42C212.894 152.42 218.374 146.864 218.423 140.02C218.374 133.125 212.894 127.519 206.202 127.519V127.519ZM206.083 163.923C192.749 163.923 181.831 152.99 181.831 139.422C181.831 125.952 192.749 114.92 206.083 114.92C219.417 114.92 230.335 125.952 230.431 139.52C230.335 152.99 219.417 163.923 206.083 163.923ZM262.994 126.928C255.942 126.928 250.24 132.685 250.24 139.811C250.24 146.939 255.942 152.697 262.994 152.697C269.952 152.697 275.748 146.939 275.748 139.811C275.748 132.685 269.952 126.928 262.994 126.928ZM262.994 164.507C257.97 164.507 253.332 162.947 249.372 160.409V183.252C249.372 186.569 246.762 189.206 243.574 189.206C240.288 189.206 237.68 186.569 237.68 183.252V121.168C237.68 117.946 240.288 115.312 243.574 115.312C246.182 115.312 248.404 117.069 249.178 119.41C253.042 116.677 257.874 115.117 262.994 115.117C276.424 115.117 287.441 126.147 287.441 139.811C287.441 153.478 276.424 164.507 262.994 164.507H262.994ZM308.409 164.118C304.351 164.118 300.389 162.067 297.877 158.846C294.979 155.04 295.171 150.744 295.171 146.158C295.171 139.131 295.171 102.914 295.171 95.8847C295.171 92.6658 297.781 90.0286 300.969 90.0286C304.253 90.0286 306.863 92.6658 306.863 95.8847V148.891C306.863 149.184 306.765 149.475 306.765 149.768C306.765 150.062 306.863 150.355 306.863 150.648C306.863 151.526 307.539 152.307 308.409 152.307C311.693 152.307 314.303 154.942 314.303 158.163C314.303 161.483 311.693 164.118 308.409 164.118V164.118ZM342.324 127.221C337.88 127.221 334.014 129.464 331.696 133.077H352.18C350.248 129.368 346.672 127.221 342.324 127.221H342.324ZM330.054 142.936C331.406 148.499 336.334 152.795 342.324 152.795C345.416 152.795 349.958 151.526 352.47 149.086C354.788 146.84 358.46 146.84 360.682 149.184C363.002 151.427 362.904 155.235 360.586 157.481C355.272 162.654 347.832 164.411 342.324 164.411C328.894 164.411 318.17 153.478 318.17 139.91C318.17 126.536 328.894 115.408 342.324 115.408C343.774 115.408 345.126 115.506 346.576 115.8C353.146 117.069 358.75 121.168 362.228 127.024C363.774 129.757 365.514 133.371 365.32 136.592C365.32 137.469 364.934 138.445 364.548 139.422C363.774 141.275 362.132 142.936 359.812 142.936H330.054ZM408.488 140.479C412.66 153.225 426.404 160.185 439.182 156.021C443.434 154.634 447.043 152.189 449.815 149.076C447.146 155.257 441.93 160.308 435.014 162.56C422.236 166.724 408.495 159.767 404.32 147.021C401.534 138.515 403.714 129.584 409.267 123.346C407.005 128.584 406.572 134.633 408.488 140.479H408.488ZM425.471 125.387C419.937 122.764 413.32 125.113 410.691 130.635C409.816 132.472 409.494 134.428 409.655 136.318C408.446 133.5 408.408 130.197 409.83 127.209C412.459 121.69 419.076 119.338 424.61 121.961C428.301 123.711 430.579 127.231 430.904 131.019C429.877 128.63 428.009 126.591 425.471 125.387V125.387ZM425.464 146.004C425.464 146.004 425.464 146.004 425.464 146.004C425.464 146.004 425.464 146.004 425.464 146.004V146.004ZM436.017 141.939C442.611 136.056 443.174 125.959 437.28 119.382C435.318 117.194 432.885 115.672 430.273 114.831C434.71 114.8 439.14 116.598 442.33 120.156C448.226 126.731 447.663 136.83 441.069 142.71C436.672 146.634 430.701 147.689 425.464 146.004C429.225 145.977 432.993 144.636 436.017 141.939Z" fill="#0284C7"/>
<path d="M394.887 103.401C397.303 105.548 400.975 105.452 403.197 103.108C405.323 100.766 405.225 96.9583 402.907 94.713C399.333 91.3954 394.695 89.5396 389.863 89.5396C379.33 89.5396 370.634 98.2277 370.634 108.964C370.634 116.676 370.634 149.866 370.634 157.674C370.634 160.896 373.34 163.629 376.528 163.629C379.815 163.629 382.521 160.896 382.521 157.674V132.879H391.699C394.887 132.879 397.593 130.244 397.593 126.927C397.593 123.706 394.887 121.068 391.699 121.068H382.521V108.964C382.521 104.767 385.805 101.351 389.863 101.351C391.795 101.351 393.535 102.132 394.887 103.401V103.401ZM434.981 131.949C435.357 135.589 434.345 139.05 432.368 141.813C436.384 138.88 438.775 133.961 438.225 128.67C437.404 120.737 430.289 114.969 422.336 115.789C418.033 116.234 414.365 118.518 412.036 121.775C414.038 120.313 416.445 119.345 419.09 119.071C427.042 118.251 434.158 124.016 434.981 131.949V131.949ZM426.236 153.883C436.553 157.052 447.492 151.28 450.668 140.988C452.387 135.42 451.48 129.67 448.65 125.061C449.414 128.316 449.351 131.809 448.294 135.235C445.118 145.524 434.181 151.299 423.864 148.13C419.13 146.676 415.352 143.592 412.953 139.687C414.487 146.21 419.354 151.77 426.236 153.883L426.236 153.883ZM497.985 130.148C500.207 127.804 500.013 124.095 497.695 121.948C493.347 117.849 487.743 115.505 481.753 115.505C477.306 115.505 473.056 116.871 469.48 119.116C468.708 116.775 466.582 115.116 463.974 115.116C460.784 115.116 458.176 117.652 458.176 120.874V158.261C458.176 161.482 460.784 164.117 463.974 164.117C467.162 164.117 469.77 161.482 469.77 158.261V139.81C469.77 132.879 475.183 127.22 481.753 127.22C484.746 127.22 487.647 128.391 489.773 130.439C492.187 132.685 495.763 132.49 497.985 130.148ZM536.343 130.244C538.664 132.49 542.336 132.394 544.558 130.05C546.78 127.804 546.682 123.999 544.364 121.85C539.726 117.263 533.64 114.823 527.165 114.919C520.691 115.116 514.701 117.751 510.257 122.436C505.619 127.122 503.299 133.37 503.395 139.81C503.589 146.351 506.197 152.405 510.835 156.992C515.377 161.384 521.271 163.824 527.647 163.824H528.036C534.025 163.728 539.726 161.384 544.074 157.285C546.392 155.039 546.586 151.33 544.364 148.986C542.238 146.645 538.47 146.45 536.247 148.693C533.93 150.842 530.934 152.111 527.745 152.111C524.459 152.208 521.271 150.941 518.855 148.498C516.439 146.253 514.991 142.935 514.991 139.615C514.893 136.199 516.247 132.978 518.469 130.538C520.885 128.098 523.977 126.634 527.357 126.634C530.739 126.634 533.93 127.903 536.343 130.244H536.343ZM585.141 133.076H564.656C566.974 129.463 570.84 127.22 575.284 127.22C579.633 127.22 583.209 129.367 585.141 133.076ZM597.507 139.421C597.895 138.445 598.281 137.469 598.281 136.591C598.473 133.37 596.735 129.756 595.189 127.023C591.711 121.167 586.107 117.068 579.537 115.799C578.086 115.505 576.735 115.407 575.284 115.407C561.854 115.407 551.128 126.535 551.128 139.909C551.128 153.477 561.854 164.41 575.284 164.41C580.793 164.41 588.233 162.653 593.547 157.48C595.865 155.234 595.961 151.426 593.643 149.183C591.421 146.839 587.749 146.839 585.431 149.085C582.916 151.525 578.376 152.794 575.284 152.794C569.294 152.794 564.366 148.498 563.014 142.935H592.773C595.093 142.935 596.735 141.274 597.507 139.421L597.507 139.421Z" fill="#12B76A"/>
</g>
<defs>
<clipPath id="clip0_27_372">
<rect width="675" height="276" fill="white"/>
</clipPath>
</defs>
</svg>
