<svg width="626" height="256" viewBox="0 0 626 256" fill="none" xmlns="http://www.w3.org/2000/svg">
<path d="M94.613 117.73C88.0709 117.73 82.7847 123.071 82.7847 129.68C82.7847 136.291 88.0709 141.632 94.613 141.632C101.064 141.632 106.441 136.291 106.441 129.68C106.441 123.071 101.064 117.73 94.613 117.73ZM94.613 152.587C89.9537 152.587 85.6523 151.139 81.9778 148.785V169.972C81.9778 173.05 79.5592 175.496 76.6026 175.496C73.555 175.496 71.1364 173.05 71.1364 169.972V112.388C71.1364 109.4 73.5549 106.956 76.6026 106.956C79.0212 106.956 81.0819 108.586 81.7977 110.758C85.3833 108.222 89.8626 106.775 94.613 106.775C107.068 106.775 117.283 117.005 117.283 129.68C117.283 142.356 107.068 152.587 94.613 152.587ZM143.271 118.002C139.15 118.002 135.564 120.083 133.415 123.434H152.412C150.618 119.993 147.304 118.002 143.271 118.002ZM131.892 132.578C133.146 137.738 137.716 141.723 143.271 141.723C146.139 141.723 150.349 140.546 152.679 138.282C154.831 136.2 158.236 136.2 160.297 138.374C162.447 140.454 162.358 143.986 160.208 146.069C155.28 150.867 148.38 152.497 143.271 152.497C130.816 152.497 120.868 142.356 120.868 129.771C120.868 117.367 130.816 107.045 143.271 107.045C144.616 107.045 145.87 107.136 147.215 107.408C153.308 108.586 158.505 112.387 161.731 117.819C163.165 120.355 164.776 123.706 164.598 126.694C164.598 127.508 164.24 128.413 163.88 129.318C163.165 131.038 161.642 132.578 159.49 132.578H131.892ZM191.233 118.279C185.025 118.279 179.945 123.479 179.945 129.827C179.945 136.222 185.025 141.375 191.233 141.375C197.439 141.375 202.522 136.222 202.567 129.874C202.522 123.479 197.439 118.279 191.233 118.279ZM191.123 152.045C178.756 152.045 168.631 141.904 168.631 129.319C168.631 116.825 178.756 106.592 191.123 106.592C203.489 106.592 213.615 116.825 213.704 129.41C213.615 141.904 203.489 152.045 191.123 152.045ZM243.902 117.73C237.362 117.73 232.074 123.071 232.074 129.68C232.074 136.291 237.362 141.632 243.902 141.632C250.356 141.632 255.731 136.291 255.731 129.68C255.731 123.071 250.356 117.73 243.902 117.73ZM243.902 152.587C239.243 152.587 234.942 151.139 231.269 148.785V169.972C231.269 173.05 228.848 175.496 225.892 175.496C222.844 175.496 220.426 173.05 220.426 169.972V112.388C220.426 109.4 222.844 106.956 225.892 106.956C228.311 106.956 230.371 108.586 231.089 110.758C234.673 108.222 239.154 106.775 243.902 106.775C256.358 106.775 266.574 117.005 266.574 129.68C266.574 142.356 256.358 152.587 243.902 152.587ZM286.021 152.225C282.257 152.225 278.583 150.323 276.253 147.335C273.565 143.806 273.743 139.821 273.743 135.566C273.743 129.049 273.743 95.4565 273.743 88.9365C273.743 85.9508 276.164 83.5047 279.121 83.5047C282.166 83.5047 284.587 85.9508 284.587 88.9365V138.102C284.587 138.374 284.496 138.644 284.496 138.916C284.496 139.188 284.587 139.46 284.587 139.732C284.587 140.546 285.214 141.27 286.021 141.27C289.066 141.27 291.487 143.714 291.487 146.702C291.487 149.781 289.066 152.225 286.021 152.225ZM317.473 118.002C313.352 118.002 309.766 120.083 307.617 123.434H326.614C324.822 119.993 321.506 118.002 317.473 118.002ZM306.094 132.578C307.348 137.738 311.918 141.723 317.473 141.723C320.341 141.723 324.553 140.546 326.883 138.282C329.033 136.2 332.438 136.2 334.499 138.374C336.651 140.454 336.56 143.986 334.41 146.069C329.482 150.867 322.582 152.497 317.473 152.497C305.018 152.497 295.072 142.356 295.072 129.771C295.072 117.367 305.018 107.045 317.473 107.045C318.818 107.045 320.072 107.136 321.417 107.408C327.51 108.586 332.707 112.387 335.933 117.819C337.367 120.355 338.98 123.706 338.8 126.694C338.8 127.508 338.442 128.413 338.084 129.318C337.367 131.038 335.844 132.578 333.692 132.578H306.094ZM378.834 130.3C382.704 142.122 395.45 148.577 407.3 144.715C411.243 143.429 414.59 141.161 417.161 138.273C414.686 144.006 409.849 148.691 403.434 150.78C391.584 154.643 378.841 148.189 374.969 136.367C372.385 128.478 374.407 120.194 379.556 114.408C377.459 119.267 377.058 124.877 378.834 130.3ZM394.584 116.301C389.452 113.868 383.316 116.047 380.878 121.169C380.066 122.872 379.767 124.687 379.917 126.44C378.795 123.826 378.76 120.763 380.079 117.991C382.517 112.871 388.654 110.691 393.786 113.123C397.209 114.747 399.322 118.011 399.623 121.525C398.671 119.309 396.938 117.418 394.584 116.301ZM404.365 131.653C410.48 126.197 411.003 116.832 405.536 110.731C403.716 108.702 401.461 107.29 399.038 106.51C403.152 106.481 407.261 108.149 410.22 111.449C415.688 117.547 415.165 126.915 409.05 132.369C404.972 136.008 399.435 136.987 394.578 135.424C398.066 135.399 401.56 134.155 404.365 131.653Z" fill="white"/>
<path d="M366.221 95.9084C368.462 97.8996 371.867 97.8104 373.928 95.6363C375.9 93.4645 375.809 89.9325 373.659 87.8498C370.345 84.7727 366.043 83.0513 361.562 83.0513C351.794 83.0513 343.729 91.1098 343.729 101.068C343.729 108.221 343.729 139.006 343.729 146.249C343.729 149.237 346.239 151.772 349.195 151.772C352.243 151.772 354.753 149.237 354.753 146.249V123.25H363.265C366.221 123.25 368.731 120.807 368.731 117.729C368.731 114.741 366.221 112.295 363.265 112.295H354.753V101.068C354.753 97.1749 357.798 94.0064 361.562 94.0064C363.353 94.0064 364.967 94.731 366.221 95.9084ZM403.405 122.387C403.754 125.763 402.815 128.974 400.982 131.536C404.706 128.816 406.923 124.254 406.413 119.346C405.652 111.988 399.053 106.638 391.678 107.399C387.687 107.811 384.286 109.93 382.125 112.951C383.982 111.595 386.214 110.697 388.667 110.442C396.042 109.682 402.641 115.029 403.405 122.387ZM395.294 142.732C404.862 145.671 415.007 140.317 417.953 130.772C419.547 125.607 418.706 120.274 416.081 115.999C416.79 119.018 416.732 122.258 415.751 125.436C412.806 134.979 402.663 140.335 393.095 137.396C388.704 136.047 385.201 133.186 382.976 129.565C384.398 135.615 388.913 140.772 395.294 142.732ZM461.835 120.717C463.896 118.543 463.716 115.103 461.566 113.111C457.534 109.31 452.336 107.136 446.781 107.136C442.658 107.136 438.716 108.402 435.4 110.485C434.684 108.313 432.712 106.774 430.293 106.774C427.335 106.774 424.916 109.127 424.916 112.115V146.793C424.916 149.781 427.335 152.225 430.293 152.225C433.25 152.225 435.668 149.781 435.668 146.793V129.679C435.668 123.25 440.688 118.001 446.781 118.001C449.558 118.001 452.247 119.087 454.219 120.987C456.458 123.07 459.774 122.889 461.835 120.717ZM497.409 120.807C499.561 122.889 502.966 122.8 505.027 120.626C507.088 118.543 506.997 115.013 504.847 113.02C500.546 108.766 494.901 106.502 488.897 106.591C482.893 106.774 477.338 109.218 473.216 113.564C468.915 117.91 466.763 123.705 466.852 129.679C467.032 135.746 469.451 141.361 473.752 145.615C477.965 149.689 483.431 151.953 489.344 151.953H489.704C495.259 151.863 500.546 149.689 504.578 145.887C506.728 143.805 506.908 140.364 504.847 138.19C502.875 136.018 499.381 135.838 497.32 137.918C495.17 139.912 492.392 141.089 489.435 141.089C486.387 141.178 483.431 140.003 481.19 137.738C478.949 135.655 477.607 132.578 477.607 129.498C477.516 126.33 478.772 123.342 480.832 121.079C483.073 118.815 485.941 117.457 489.075 117.457C492.212 117.457 495.17 118.635 497.409 120.807ZM542.664 123.433H523.666C525.816 120.082 529.402 118.001 533.523 118.001C537.556 118.001 540.872 119.993 542.664 123.433ZM554.132 129.318C554.492 128.412 554.85 127.507 554.85 126.693C555.028 123.705 553.416 120.354 551.983 117.819C548.757 112.387 543.56 108.585 537.467 107.408C536.122 107.136 534.868 107.044 533.523 107.044C521.068 107.044 511.12 117.366 511.12 129.77C511.12 142.355 521.068 152.497 533.523 152.497C538.631 152.497 545.531 150.867 550.46 146.068C552.609 143.985 552.698 140.453 550.549 138.373C548.488 136.199 545.082 136.199 542.933 138.282C540.601 140.545 536.391 141.722 533.523 141.722C527.968 141.722 523.397 137.737 522.144 132.578H549.742C551.893 132.578 553.416 131.037 554.132 129.318Z" fill="white"/>
</svg>
