<svg width="1920" height="1080" viewBox="0 0 1920 1080" fill="none" xmlns="http://www.w3.org/2000/svg">
<g clip-path="url(#clip0_6007_899)">
<rect width="1920" height="1080" fill="#FBFCFE"/>
<g clip-path="url(#clip1_6007_899)">
<rect width="1920" height="1080" transform="matrix(1 0 0 -1 0 1080)" fill="#FEFDFB"/>
<g opacity="0.2" filter="url(#filter0_f_6007_899)">
<path fill-rule="evenodd" clip-rule="evenodd" d="M1446.22 588.635C1589.1 463.807 1642.39 193.381 1837.03 204.594C2031.32 215.788 2149.17 450.477 2233.59 633.996C2299.65 777.608 2260.18 928.567 2239.87 1080.38C2220.53 1224.92 2211.33 1370.85 2120.47 1479.34C2004.07 1618.31 1860.73 1785.53 1676.35 1753.17C1492.04 1720.83 1416.12 1495.08 1305.73 1336.36C1203.15 1188.88 1035.19 1047.15 1067.11 877.248C1098.52 710.097 1321.85 697.299 1446.22 588.635Z" fill="url(#paint0_linear_6007_899)"/>
</g>
<circle opacity="0.7" cx="1328.5" cy="634.502" r="497.048" transform="rotate(145.439 1328.5 634.502)" stroke="url(#paint1_linear_6007_899)" stroke-width="3"/>
<circle opacity="0.5" cx="1328.5" cy="634.496" r="676.311" transform="rotate(145.439 1328.5 634.496)" stroke="url(#paint2_linear_6007_899)" stroke-width="3"/>
<circle opacity="0.9" cx="1328.5" cy="634.501" r="325.933" transform="rotate(145.439 1328.5 634.501)" stroke="url(#paint3_linear_6007_899)" stroke-width="3"/>
<circle opacity="0.3" cx="1328.5" cy="634.5" r="851.5" transform="rotate(145.439 1328.5 634.5)" stroke="white" stroke-width="3"/>
<circle cx="1550.71" cy="873.706" r="9.13518" transform="rotate(145.439 1550.71 873.706)" fill="#BDF5D7" stroke="white" stroke-width="3"/>
<circle cx="1826.3" cy="632.299" r="11" transform="rotate(145.439 1826.3 632.299)" fill="#BDF5D7" stroke="white" stroke-width="3"/>
</g>
<path d="M1619 60H1618.5V60.5H1619V60ZM1920 60V59.5H1619V60V60.5H1920V60ZM1619 60H1619.5V0H1619H1618.5V60H1619Z" fill="#D3DFEB"/>
<path d="M1689.62 25.3465C1687.21 25.3465 1685.26 27.2766 1685.26 29.6653C1685.26 32.0547 1687.21 33.9848 1689.62 33.9848C1692 33.9848 1693.99 32.0547 1693.99 29.6653C1693.99 27.2766 1692 25.3465 1689.62 25.3465ZM1689.62 37.9441C1687.91 37.9441 1686.32 37.4211 1684.97 36.5701V44.2276C1684.97 45.3397 1684.07 46.2237 1682.98 46.2237C1681.86 46.2237 1680.97 45.3397 1680.97 44.2276V23.4157C1680.97 22.3358 1681.86 21.4525 1682.98 21.4525C1683.87 21.4525 1684.63 22.0416 1684.9 22.8266C1686.22 21.9103 1687.87 21.3872 1689.62 21.3872C1694.22 21.3872 1697.98 25.0846 1697.98 29.6653C1697.98 34.2467 1694.22 37.9441 1689.62 37.9441ZM1707.57 25.4449C1706.05 25.4449 1704.73 26.1968 1703.93 27.408H1710.94C1710.28 26.1645 1709.05 25.4449 1707.57 25.4449ZM1703.37 30.7129C1703.83 32.5777 1705.52 34.0178 1707.57 34.0178C1708.63 34.0178 1710.18 33.5923 1711.04 32.7744C1711.83 32.0217 1713.09 32.0217 1713.85 32.8074C1714.64 33.5593 1714.61 34.8358 1713.81 35.5885C1712 37.3228 1709.45 37.9119 1707.57 37.9119C1702.97 37.9119 1699.31 34.2467 1699.31 29.6983C1699.31 25.2152 1702.97 21.4847 1707.57 21.4847C1708.06 21.4847 1708.53 21.5178 1709.02 21.6161C1711.27 22.0416 1713.19 23.4156 1714.37 25.3788C1714.9 26.2951 1715.5 27.5063 1715.43 28.5862C1715.43 28.8803 1715.3 29.2075 1715.17 29.5347C1714.9 30.156 1714.34 30.7129 1713.55 30.7129H1703.37ZM1725.25 25.5448C1722.96 25.5448 1721.09 27.4241 1721.09 29.7185C1721.09 32.0297 1722.96 33.8921 1725.25 33.8921C1727.54 33.8921 1729.42 32.0297 1729.43 29.7354C1729.42 27.4241 1727.54 25.5448 1725.25 25.5448V25.5448ZM1725.21 37.7483C1720.65 37.7483 1716.92 34.0831 1716.92 29.5347C1716.92 25.0194 1720.65 21.3212 1725.21 21.3212C1729.77 21.3212 1733.51 25.0194 1733.54 29.5678C1733.51 34.0831 1729.77 37.7483 1725.21 37.7483ZM1744.68 25.3465C1742.26 25.3465 1740.31 27.2766 1740.31 29.6653C1740.31 32.0547 1742.26 33.9848 1744.68 33.9848C1747.06 33.9848 1749.04 32.0547 1749.04 29.6653C1749.04 27.2766 1747.06 25.3465 1744.68 25.3465ZM1744.68 37.9441C1742.96 37.9441 1741.37 37.4211 1740.02 36.5701V44.2276C1740.02 45.3397 1739.12 46.2237 1738.03 46.2237C1736.91 46.2237 1736.02 45.3397 1736.02 44.2276V23.4157C1736.02 22.3358 1736.91 21.4525 1738.03 21.4525C1738.93 21.4525 1739.69 22.0416 1739.95 22.8266C1741.27 21.9103 1742.92 21.3872 1744.68 21.3872C1749.27 21.3872 1753.04 25.0846 1753.04 29.6653C1753.04 34.2467 1749.27 37.9441 1744.68 37.9441H1744.68ZM1760.21 37.8135C1758.82 37.8135 1757.46 37.1261 1756.61 36.0462C1755.61 34.7705 1755.68 33.3304 1755.68 31.7928C1755.68 29.4372 1755.68 17.2966 1755.68 14.9402C1755.68 13.8611 1756.57 12.9771 1757.66 12.9771C1758.79 12.9771 1759.68 13.8611 1759.68 14.9402V32.7091C1759.68 32.8074 1759.64 32.9049 1759.64 33.0032C1759.64 33.1015 1759.68 33.1999 1759.68 33.2982C1759.68 33.5923 1759.91 33.8542 1760.21 33.8542C1761.33 33.8542 1762.22 34.7375 1762.22 35.8174C1762.22 36.9303 1761.33 37.8135 1760.21 37.8135V37.8135ZM1771.81 25.4449C1770.29 25.4449 1768.96 26.1968 1768.17 27.408H1775.18C1774.52 26.1645 1773.29 25.4449 1771.81 25.4449H1771.81ZM1767.61 30.7129C1768.07 32.5777 1769.76 34.0178 1771.81 34.0178C1772.86 34.0178 1774.42 33.5923 1775.28 32.7744C1776.07 32.0217 1777.32 32.0217 1778.08 32.8074C1778.88 33.5593 1778.84 34.8358 1778.05 35.5885C1776.23 37.3228 1773.69 37.9119 1771.81 37.9119C1767.21 37.9119 1763.55 34.2467 1763.55 29.6983C1763.55 25.2152 1767.21 21.4847 1771.81 21.4847C1772.3 21.4847 1772.76 21.5178 1773.26 21.6161C1775.51 22.0416 1777.42 23.4156 1778.61 25.3788C1779.14 26.2951 1779.74 27.5063 1779.67 28.5862C1779.67 28.8803 1779.54 29.2075 1779.41 29.5347C1779.14 30.156 1778.58 30.7129 1777.79 30.7129H1767.61ZM1794.43 29.8893C1795.86 34.1621 1800.56 36.4951 1804.93 35.0993C1806.38 34.6343 1807.62 33.8148 1808.57 32.7711C1807.65 34.8431 1805.87 36.5362 1803.5 37.2913C1799.13 38.6871 1794.44 36.3549 1793.01 32.0821C1792.05 29.2309 1792.8 26.2371 1794.7 24.1458C1793.93 25.9018 1793.78 27.9294 1794.43 29.8893H1794.43ZM1800.24 24.83C1798.35 23.9508 1796.09 24.7381 1795.19 26.5892C1794.89 27.2049 1794.78 27.8609 1794.83 28.4943C1794.42 27.5498 1794.41 26.4425 1794.89 25.4408C1795.79 23.5905 1798.05 22.8024 1799.95 23.6816C1801.21 24.2683 1801.99 25.4481 1802.1 26.7182C1801.75 25.9171 1801.11 25.2337 1800.24 24.83V24.83ZM1800.24 31.7412C1800.24 31.7412 1800.24 31.7412 1800.24 31.7412C1800.24 31.7412 1800.24 31.7412 1800.24 31.7412V31.7412ZM1803.85 30.3785C1806.1 28.4065 1806.29 25.0218 1804.28 22.8169C1803.61 22.0835 1802.78 21.5734 1801.88 21.2913C1803.4 21.2809 1804.92 21.8837 1806.01 23.0764C1808.02 25.2805 1807.83 28.666 1805.58 30.6372C1804.07 31.9524 1802.03 32.3061 1800.24 31.7412C1801.52 31.7323 1802.81 31.2827 1803.85 30.3785Z" fill="#6C869F"/>
<path d="M1789.78 17.4597C1790.61 18.1794 1791.86 18.1471 1792.62 17.3614C1793.35 16.5765 1793.32 15.2999 1792.52 14.5472C1791.3 13.4351 1789.72 12.813 1788.06 12.813C1784.46 12.813 1781.49 15.7255 1781.49 19.3245C1781.49 21.9098 1781.49 33.0358 1781.49 35.6533C1781.49 36.7332 1782.41 37.6495 1783.5 37.6495C1784.63 37.6495 1785.55 36.7332 1785.55 35.6533V27.3415H1788.69C1789.78 27.3415 1790.71 26.4582 1790.71 25.3461C1790.71 24.2662 1789.78 23.3822 1788.69 23.3822H1785.55V19.3245C1785.55 17.9175 1786.68 16.7723 1788.06 16.7723C1788.72 16.7723 1789.32 17.0342 1789.78 17.4597V17.4597ZM1803.49 27.0296C1803.62 28.2497 1803.28 29.4102 1802.6 30.3361C1803.97 29.3529 1804.79 27.7041 1804.6 25.9304C1804.32 23.2709 1801.89 21.3376 1799.17 21.6124C1797.7 21.7615 1796.44 22.5271 1795.65 23.6191C1796.33 23.1291 1797.15 22.8043 1798.06 22.7125C1800.78 22.4377 1803.21 24.3702 1803.49 27.0296V27.0296ZM1800.5 34.3825C1804.03 35.4446 1807.77 33.5097 1808.86 30.0597C1809.45 28.1933 1809.14 26.2656 1808.17 24.7207C1808.43 25.8119 1808.41 26.9828 1808.05 28.1312C1806.96 31.5804 1803.22 33.5161 1799.69 32.454C1798.07 31.9664 1796.78 30.9325 1795.96 29.6237C1796.48 31.8101 1798.15 33.6741 1800.5 34.3825L1800.5 34.3825ZM1825.04 26.426C1825.8 25.6402 1825.73 24.3968 1824.94 23.6771C1823.45 22.3031 1821.54 21.5173 1819.49 21.5173C1817.97 21.5173 1816.51 21.9751 1815.29 22.7278C1815.03 21.9428 1814.3 21.3868 1813.41 21.3868C1812.32 21.3868 1811.43 22.237 1811.43 23.3169V35.85C1811.43 36.9298 1812.32 37.8131 1813.41 37.8131C1814.5 37.8131 1815.39 36.9298 1815.39 35.85V29.6648C1815.39 27.3415 1817.24 25.4444 1819.49 25.4444C1820.51 25.4444 1821.5 25.8369 1822.23 26.5235C1823.06 27.2762 1824.28 27.2109 1825.04 26.426ZM1838.16 26.4582C1838.95 27.2109 1840.21 27.1787 1840.97 26.3929C1841.73 25.6402 1841.69 24.3645 1840.9 23.6441C1839.31 22.1064 1837.23 21.2885 1835.02 21.3207C1832.8 21.3868 1830.76 22.27 1829.24 23.8407C1827.65 25.4114 1826.86 27.5059 1826.89 29.6648C1826.96 31.8576 1827.85 33.8868 1829.43 35.4245C1830.99 36.8968 1833 37.7148 1835.18 37.7148H1835.32C1837.36 37.6825 1839.31 36.8968 1840.8 35.5228C1841.59 34.7701 1841.66 33.5266 1840.9 32.7409C1840.17 31.9559 1838.88 31.8907 1838.12 32.6425C1837.33 33.363 1836.31 33.7885 1835.22 33.7885C1834.09 33.8208 1833 33.3961 1832.18 32.5773C1831.35 31.8246 1830.86 30.7125 1830.86 29.5995C1830.82 28.4544 1831.28 27.3745 1832.04 26.5565C1832.87 25.7385 1833.93 25.2478 1835.08 25.2478C1836.24 25.2478 1837.33 25.6733 1838.16 26.4582H1838.16ZM1854.85 27.4075H1847.84C1848.63 26.1963 1849.95 25.4444 1851.47 25.4444C1852.96 25.4444 1854.18 26.1641 1854.85 27.4075ZM1859.07 29.5343C1859.21 29.2071 1859.34 28.8799 1859.34 28.5857C1859.4 27.5059 1858.81 26.2946 1858.28 25.3783C1857.09 23.4152 1855.18 22.0412 1852.93 21.6157C1852.43 21.5173 1851.97 21.4843 1851.47 21.4843C1846.88 21.4843 1843.21 25.2147 1843.21 29.6979C1843.21 34.2463 1846.88 37.9114 1851.47 37.9114C1853.36 37.9114 1855.9 37.3223 1857.72 35.588C1858.51 34.8353 1858.55 33.5588 1857.75 32.8069C1856.99 32.0212 1855.74 32.0212 1854.94 32.7739C1854.08 33.5919 1852.53 34.0174 1851.47 34.0174C1849.43 34.0174 1847.74 32.5773 1847.28 30.7125H1857.46C1858.25 30.7125 1858.81 30.1556 1859.07 29.5343L1859.07 29.5343Z" fill="#6C869F"/>
<path d="M1619 60V60.5H1619.5V60H1619ZM1619 0H1618.5V60H1619H1619.5V0H1619ZM1619 60V59.5H1171V60V60.5H1619V60Z" fill="url(#paint4_linear_6007_899)"/>
<path d="M60 948V948.5H60.5V948H60ZM60 778H59.5L59.5 948H60H60.5L60.5 778H60ZM60 948V947.5H0L0 948L0 948.5H60V948Z" fill="url(#paint5_linear_6007_899)"/>
<path d="M60 948V947.5H59.5V948H60ZM60 948V948.5L575 948.5V948V947.5L60 947.5V948ZM60 1080H60.5L60.5 948H60H59.5L59.5 1080H60Z" fill="url(#paint6_linear_6007_899)"/>
<path d="M60 948H60.5V947.5H60V948ZM0 948L0 948.5H60V948V947.5H0L0 948ZM60 948H59.5L59.5 1080H60H60.5L60.5 948H60Z" fill="#D3DFEB"/>
</g>
<defs>
<filter id="filter0_f_6007_899" x="563.142" y="-295.744" width="2207.08" height="2552.98" filterUnits="userSpaceOnUse" color-interpolation-filters="sRGB">
<feFlood flood-opacity="0" result="BackgroundImageFix"/>
<feBlend mode="normal" in="SourceGraphic" in2="BackgroundImageFix" result="shape"/>
<feGaussianBlur stdDeviation="250" result="effect1_foregroundBlur_6007_899"/>
</filter>
<linearGradient id="paint0_linear_6007_899" x1="2103.22" y1="459.072" x2="1398.2" y2="1296.18" gradientUnits="userSpaceOnUse">
<stop offset="0.399" stop-color="#4FF998"/>
<stop offset="0.904" stop-color="#3EA9F7"/>
</linearGradient>
<linearGradient id="paint1_linear_6007_899" x1="1328.5" y1="137.454" x2="1328.5" y2="1131.55" gradientUnits="userSpaceOnUse">
<stop stop-color="white"/>
<stop offset="1" stop-color="white" stop-opacity="0"/>
</linearGradient>
<linearGradient id="paint2_linear_6007_899" x1="1328.5" y1="-41.8151" x2="1328.5" y2="1310.81" gradientUnits="userSpaceOnUse">
<stop stop-color="white"/>
<stop offset="1" stop-color="white" stop-opacity="0"/>
</linearGradient>
<linearGradient id="paint3_linear_6007_899" x1="1328.5" y1="308.568" x2="1328.5" y2="960.434" gradientUnits="userSpaceOnUse">
<stop stop-color="white"/>
<stop offset="1" stop-color="white" stop-opacity="0"/>
</linearGradient>
<linearGradient id="paint4_linear_6007_899" x1="1171" y1="60" x2="1619" y2="60" gradientUnits="userSpaceOnUse">
<stop stop-color="#D3DFEB" stop-opacity="0"/>
<stop offset="0.535" stop-color="#D3DFEB"/>
</linearGradient>
<linearGradient id="paint5_linear_6007_899" x1="30" y1="778" x2="30" y2="948" gradientUnits="userSpaceOnUse">
<stop offset="0.155" stop-color="#D3DFEB" stop-opacity="0"/>
<stop offset="0.535" stop-color="#D3DFEB"/>
</linearGradient>
<linearGradient id="paint6_linear_6007_899" x1="575" y1="1014" x2="60" y2="1014" gradientUnits="userSpaceOnUse">
<stop stop-color="#D3DFEB" stop-opacity="0"/>
<stop offset="0.6" stop-color="#D3DFEB"/>
</linearGradient>
<clipPath id="clip0_6007_899">
<rect width="1920" height="1080" fill="white"/>
</clipPath>
<clipPath id="clip1_6007_899">
<rect width="1920" height="1080" fill="white" transform="matrix(1 0 0 -1 0 1080)"/>
</clipPath>
</defs>
</svg>
