<svg width="1920" height="1080" viewBox="0 0 1920 1080" fill="none" xmlns="http://www.w3.org/2000/svg">
<g clip-path="url(#clip0_6007_897)">
<rect width="1920" height="1080" fill="#FBFCFE"/>
<g clip-path="url(#clip1_6007_897)">
<rect width="1920" height="1080" transform="matrix(1 0 0 -1 0 1080)" fill="#FEFDFB"/>
<g opacity="0.2" filter="url(#filter0_f_6007_897)">
<path fill-rule="evenodd" clip-rule="evenodd" d="M1272.69 464.829C1184.44 257.752 921.84 91.8334 987.602 -118.455C1053.25 -328.37 1326.89 -365.414 1538.71 -385.841C1704.47 -401.826 1848.36 -298.488 1998.45 -215.936C2141.36 -137.337 2288.52 -69.378 2374.5 73.8466C2484.64 257.312 2616.25 481.691 2531.65 672.294C2447.09 862.817 2194.32 857.135 2000.69 916.048C1820.79 970.788 1628.55 1099.94 1463.13 997.412C1300.38 896.544 1349.51 645.093 1272.69 464.829Z" fill="url(#paint0_linear_6007_897)"/>
</g>
<circle opacity="0.7" cx="1328.5" cy="634.499" r="497.048" stroke="url(#paint1_linear_6007_897)" stroke-width="3"/>
<circle opacity="0.5" cx="1328.49" cy="634.502" r="676.311" stroke="url(#paint2_linear_6007_897)" stroke-width="3"/>
<circle opacity="0.9" cx="1328.5" cy="634.499" r="325.933" stroke="url(#paint3_linear_6007_897)" stroke-width="3"/>
<circle opacity="0.3" cx="1328.5" cy="634.5" r="851.5" stroke="white" stroke-width="3"/>
<circle cx="1729" cy="340" r="9" fill="#6FE6A7" stroke="white" stroke-width="3"/>
<circle cx="1649" cy="39" r="7" fill="#6FE6A7" stroke="white" stroke-width="3"/>
<g filter="url(#filter1_d_6007_897)">
<rect x="1805.22" y="68" width="145.91" height="145.91" rx="24" transform="rotate(16 1805.22 68)" fill="#FDFDFE"/>
<rect x="1805.22" y="68" width="145.91" height="145.91" rx="24" transform="rotate(16 1805.22 68)" stroke="url(#paint4_linear_6007_897)" stroke-width="2"/>
<path d="M1855.24 121.044C1846.07 118.413 1836.47 123.734 1833.84 132.91C1831.25 141.911 1836.2 151.215 1845.29 154.161C1845.58 154.207 1845.86 154.287 1846.06 154.382C1846.13 154.402 1846.17 154.412 1846.24 154.432C1846.27 154.443 1846.27 154.443 1846.31 154.453C1855.36 156.708 1864.49 151.442 1867.11 142.451C1869.74 133.275 1864.42 123.676 1855.24 121.044Z" fill="#43B0FF"/>
<path d="M1860.83 168.701C1852.93 159.385 1836.99 154.815 1825.28 158.508C1819.98 160.209 1816.37 163.534 1815.14 167.842C1813.9 172.15 1815.21 176.846 1818.78 181.053C1822.74 185.751 1828.71 189.245 1835.16 191.093C1841.6 192.941 1848.52 193.143 1854.36 191.257C1859.63 189.545 1863.23 186.255 1864.47 181.912C1865.67 177.594 1864.4 172.909 1860.83 168.701Z" fill="#43B0FF"/>
<path d="M1888.37 150.785C1886.98 157.74 1880.44 162.308 1873.52 161.196C1873.49 161.186 1873.49 161.186 1873.45 161.176L1873.35 161.146C1873.14 161.085 1872.93 161.025 1872.73 161.045C1869.28 160.246 1866.48 158.266 1864.7 155.597C1869.23 153.409 1872.69 149.169 1873.77 143.794C1874.34 140.887 1874.1 138.014 1873.27 135.386C1874.79 135.102 1876.45 135.124 1878.06 135.436C1885.1 136.809 1889.76 143.68 1888.37 150.785Z" fill="#43B0FF"/>
<path d="M1886.09 185.19C1884.83 188.507 1881.82 190.827 1877.6 191.779C1873.55 192.701 1868.87 192.346 1864.52 190.985C1867.7 189.432 1869.98 187.017 1871.13 184.085C1872.72 179.843 1871.85 175.082 1868.67 170.57C1866.86 168.041 1864.55 165.787 1861.88 163.847C1870.27 163.825 1879.57 168.123 1884.17 174.674C1886.65 178.189 1887.36 181.919 1886.09 185.19Z" fill="#43B0FF"/>
</g>
<g filter="url(#filter2_d_6007_897)">
<g clip-path="url(#clip2_6007_897)">
<rect x="1274" y="79.8047" width="145.91" height="145.91" rx="24" transform="rotate(-21.6388 1274 79.8047)" fill="#FDFDFE"/>
<path d="M1382.3 117.63L1387.77 131.414C1388.25 132.633 1388.57 133.839 1388.68 135.009C1389.4 140.485 1386.51 145.24 1380.82 147.497L1371.61 151.152L1364.08 162.017C1362.97 163.671 1360.5 163.36 1359.77 161.531L1357.82 156.62C1354.37 157.99 1351.03 157.981 1348.24 156.775C1345.4 155.549 1343.11 153.128 1341.74 149.673L1336.27 135.889C1333.72 129.454 1335.96 123.432 1341.89 120.411C1342.32 120.203 1342.74 119.994 1343.22 119.806L1366.21 110.683C1373.12 107.942 1379.56 110.721 1382.3 117.63Z" fill="#A855F7"/>
<path d="M1393.91 125.566C1398.21 123.859 1401.27 120.999 1402.77 117.465C1404.32 113.951 1404.3 109.763 1402.6 105.462L1395.74 88.1894C1392.59 80.2305 1383.6 76.3484 1375.64 79.5058L1346.85 90.9261C1338.89 94.0835 1335.01 103.071 1338.17 111.03L1339.18 113.57C1339.55 114.518 1340.59 114.968 1341.54 114.592L1364.2 105.603C1373.38 101.962 1383.74 106.437 1387.38 115.615L1391.01 124.759C1391.38 125.707 1392.42 126.157 1393.37 125.781L1393.91 125.566Z" fill="#A855F7"/>
</g>
<rect x="1274" y="79.8047" width="145.91" height="145.91" rx="24" transform="rotate(-21.6388 1274 79.8047)" stroke="url(#paint5_linear_6007_897)" stroke-width="2"/>
</g>
<g filter="url(#filter3_d_6007_897)">
<rect x="1723" y="578.336" width="145.91" height="145.91" rx="24" transform="rotate(-12 1723 578.336)" fill="#FDFDFE"/>
<rect x="1723" y="578.336" width="145.91" height="145.91" rx="24" transform="rotate(-12 1723 578.336)" stroke="url(#paint6_linear_6007_897)" stroke-width="2"/>
<path d="M1847.71 650.895L1842.13 653.535C1840.88 654.136 1840.05 655.353 1840.05 656.733L1839.92 662.237C1839.84 665.232 1836.4 666.895 1834.03 665.052L1820.77 655.057C1819.7 654.241 1819.83 652.574 1821.05 651.981C1827.03 649.107 1831.95 644.375 1835.05 638.463C1835.55 637.5 1836.74 637.135 1837.65 637.724L1847.24 643.955C1850.53 646.087 1850.28 649.678 1847.71 650.895Z" fill="#12B76A"/>
<path d="M1781.6 664.948L1787.78 665.088C1789.16 665.129 1790.41 665.907 1790.97 667.165L1793.34 672.139C1794.62 674.846 1798.44 674.964 1799.85 672.317L1807.9 657.793C1808.55 656.613 1807.75 655.143 1806.4 655.095C1799.77 654.904 1793.35 652.58 1788.11 648.441C1787.26 647.765 1786.03 647.916 1785.44 648.823L1779.21 658.417C1777.07 661.701 1778.76 664.882 1781.6 664.948Z" fill="#12B76A"/>
<path d="M1802.27 599.205C1788.48 602.136 1779.69 615.662 1782.62 629.455C1783.72 634.622 1786.26 639.037 1789.74 642.432C1794.8 647.316 1801.75 650.048 1809.06 649.574C1810.32 649.53 1811.59 649.372 1812.87 649.099C1814.16 648.826 1815.38 648.454 1816.55 647.983C1823.42 645.442 1828.66 640.119 1831.3 633.599C1833.09 629.083 1833.62 624.017 1832.52 618.849C1829.59 605.057 1816.06 596.273 1802.27 599.205ZM1818.31 621.05L1815.98 624.637C1815.59 625.242 1815.51 626.264 1815.84 626.939L1817.47 630.428C1818.76 633.171 1817.47 634.637 1814.58 633.65L1810.57 632.305C1809.85 632.049 1808.78 632.277 1808.22 632.805L1805.1 635.665C1802.85 637.708 1801.09 636.929 1801.15 633.898L1801.22 630.045C1801.22 629.338 1800.76 628.393 1800.16 628L1796.5 625.686C1794.38 624.311 1794.58 622.443 1796.92 621.536L1800.6 620.084C1801.22 619.841 1801.84 619.111 1802.01 618.481L1803.22 613.828C1803.87 611.305 1805.73 610.911 1807.35 612.95L1810.35 616.708C1810.75 617.218 1811.62 617.629 1812.32 617.592L1816.27 617.423C1818.74 617.307 1819.69 618.932 1818.31 621.05Z" fill="#12B76A"/>
</g>
</g>
<path d="M60 948V948.5H60.5V948H60ZM60 778H59.5L59.5 948H60H60.5L60.5 778H60ZM60 948V947.5H0L0 948L0 948.5H60V948Z" fill="url(#paint7_linear_6007_897)"/>
<path d="M60 948V947.5H59.5V948H60ZM60 948V948.5L575 948.5V948V947.5L60 947.5V948ZM60 1080H60.5L60.5 948H60H59.5L59.5 1080H60Z" fill="url(#paint8_linear_6007_897)"/>
<path d="M60 948H60.5V947.5H60V948ZM0 948L0 948.5H60V948V947.5H0L0 948ZM60 948H59.5L59.5 1080H60H60.5L60.5 948H60Z" fill="#D3DFEB"/>
</g>
<defs>
<filter id="filter0_f_6007_897" x="377.151" y="-987.492" width="2781.48" height="2623.31" filterUnits="userSpaceOnUse" color-interpolation-filters="sRGB">
<feFlood flood-opacity="0" result="BackgroundImageFix"/>
<feBlend mode="normal" in="SourceGraphic" in2="BackgroundImageFix" result="shape"/>
<feGaussianBlur stdDeviation="300" result="effect1_foregroundBlur_6007_897"/>
</filter>
<filter id="filter1_d_6007_897" x="1659.15" y="-33.2515" width="401.389" height="401.389" filterUnits="userSpaceOnUse" color-interpolation-filters="sRGB">
<feFlood flood-opacity="0" result="BackgroundImageFix"/>
<feColorMatrix in="SourceAlpha" type="matrix" values="0 0 0 0 0 0 0 0 0 0 0 0 0 0 0 0 0 0 127 0" result="hardAlpha"/>
<feOffset dx="4.60234" dy="9.20468"/>
<feGaussianBlur stdDeviation="55.2281"/>
<feComposite in2="hardAlpha" operator="out"/>
<feColorMatrix type="matrix" values="0 0 0 0 0.0705882 0 0 0 0 0.101961 0 0 0 0 0.203922 0 0 0 0.06 0"/>
<feBlend mode="normal" in2="BackgroundImageFix" result="effect1_dropShadow_6007_897"/>
<feBlend mode="normal" in="SourceGraphic" in2="effect1_dropShadow_6007_897" result="shape"/>
</filter>
<filter id="filter2_d_6007_897" x="1168.15" y="-75.252" width="410.345" height="410.345" filterUnits="userSpaceOnUse" color-interpolation-filters="sRGB">
<feFlood flood-opacity="0" result="BackgroundImageFix"/>
<feColorMatrix in="SourceAlpha" type="matrix" values="0 0 0 0 0 0 0 0 0 0 0 0 0 0 0 0 0 0 127 0" result="hardAlpha"/>
<feOffset dx="4.60234" dy="9.20468"/>
<feGaussianBlur stdDeviation="55.2281"/>
<feComposite in2="hardAlpha" operator="out"/>
<feColorMatrix type="matrix" values="0 0 0 0 0.0705882 0 0 0 0 0.101961 0 0 0 0 0.203922 0 0 0 0.06 0"/>
<feBlend mode="normal" in2="BackgroundImageFix" result="effect1_dropShadow_6007_897"/>
<feBlend mode="normal" in="SourceGraphic" in2="effect1_dropShadow_6007_897" result="shape"/>
</filter>
<filter id="filter3_d_6007_897" x="1617.15" y="446.748" width="393.971" height="393.971" filterUnits="userSpaceOnUse" color-interpolation-filters="sRGB">
<feFlood flood-opacity="0" result="BackgroundImageFix"/>
<feColorMatrix in="SourceAlpha" type="matrix" values="0 0 0 0 0 0 0 0 0 0 0 0 0 0 0 0 0 0 127 0" result="hardAlpha"/>
<feOffset dx="4.60234" dy="9.20468"/>
<feGaussianBlur stdDeviation="55.2281"/>
<feComposite in2="hardAlpha" operator="out"/>
<feColorMatrix type="matrix" values="0 0 0 0 0.0705882 0 0 0 0 0.101961 0 0 0 0 0.203922 0 0 0 0.06 0"/>
<feBlend mode="normal" in2="BackgroundImageFix" result="effect1_dropShadow_6007_897"/>
<feBlend mode="normal" in="SourceGraphic" in2="effect1_dropShadow_6007_897" result="shape"/>
</filter>
<linearGradient id="paint0_linear_6007_897" x1="1322.9" y1="-311.317" x2="2043.53" y2="758.858" gradientUnits="userSpaceOnUse">
<stop offset="0.399" stop-color="#4FF998"/>
<stop offset="0.904" stop-color="#3EA9F7"/>
</linearGradient>
<linearGradient id="paint1_linear_6007_897" x1="1328.5" y1="137.451" x2="1328.5" y2="1131.55" gradientUnits="userSpaceOnUse">
<stop stop-color="white"/>
<stop offset="1" stop-color="white" stop-opacity="0"/>
</linearGradient>
<linearGradient id="paint2_linear_6007_897" x1="1328.49" y1="-41.8086" x2="1328.49" y2="1310.81" gradientUnits="userSpaceOnUse">
<stop stop-color="white"/>
<stop offset="1" stop-color="white" stop-opacity="0"/>
</linearGradient>
<linearGradient id="paint3_linear_6007_897" x1="1328.5" y1="308.566" x2="1328.5" y2="960.432" gradientUnits="userSpaceOnUse">
<stop stop-color="white"/>
<stop offset="1" stop-color="white" stop-opacity="0"/>
</linearGradient>
<linearGradient id="paint4_linear_6007_897" x1="1878.17" y1="68" x2="1878.17" y2="213.91" gradientUnits="userSpaceOnUse">
<stop stop-color="#F6F9FB"/>
<stop offset="1" stop-color="#D3DFEB"/>
</linearGradient>
<linearGradient id="paint5_linear_6007_897" x1="1346.96" y1="79.8047" x2="1346.96" y2="225.715" gradientUnits="userSpaceOnUse">
<stop stop-color="#F6F9FB"/>
<stop offset="1" stop-color="#D3DFEB"/>
</linearGradient>
<linearGradient id="paint6_linear_6007_897" x1="1795.96" y1="578.336" x2="1795.96" y2="724.246" gradientUnits="userSpaceOnUse">
<stop stop-color="#F6F9FB"/>
<stop offset="1" stop-color="#D3DFEB"/>
</linearGradient>
<linearGradient id="paint7_linear_6007_897" x1="30" y1="778" x2="30" y2="948" gradientUnits="userSpaceOnUse">
<stop offset="0.155" stop-color="#D3DFEB" stop-opacity="0"/>
<stop offset="0.535" stop-color="#D3DFEB"/>
</linearGradient>
<linearGradient id="paint8_linear_6007_897" x1="575" y1="1014" x2="60" y2="1014" gradientUnits="userSpaceOnUse">
<stop stop-color="#D3DFEB" stop-opacity="0"/>
<stop offset="0.6" stop-color="#D3DFEB"/>
</linearGradient>
<clipPath id="clip0_6007_897">
<rect width="1920" height="1080" fill="white"/>
</clipPath>
<clipPath id="clip1_6007_897">
<rect width="1920" height="1080" fill="white" transform="matrix(1 0 0 -1 0 1080)"/>
</clipPath>
<clipPath id="clip2_6007_897">
<rect x="1274" y="79.8047" width="145.91" height="145.91" rx="24" transform="rotate(-21.6388 1274 79.8047)" fill="white"/>
</clipPath>
</defs>
</svg>
