<svg width="1920" height="1080" viewBox="0 0 1920 1080" fill="none" xmlns="http://www.w3.org/2000/svg">
<g clip-path="url(#clip0_6007_970)">
<rect width="1920" height="1080" fill="#FBFCFE"/>
<g clip-path="url(#clip1_6007_970)">
<rect width="1920" height="1080" transform="matrix(1 0 0 -1 0 1080)" fill="#FBFCFE"/>
<path opacity="0.9" fill-rule="evenodd" clip-rule="evenodd" d="M1854 2195C2347.74 2195 2748 1789.81 2748 1290C2748 790.182 2347.74 385 1854 385C1360.26 385 960 790.182 960 1290C960 1789.81 1360.26 2195 1854 2195ZM1854 1685.94C2070.01 1685.94 2245.12 1508.67 2245.12 1290C2245.12 1071.33 2070.01 894.062 1854 894.062C1637.99 894.062 1462.87 1071.33 1462.87 1290C1462.87 1508.67 1637.99 1685.94 1854 1685.94Z" fill="#DDFBEA"/>
<g opacity="0.5" clip-path="url(#clip2_6007_970)">
<path fill-rule="evenodd" clip-rule="evenodd" d="M641.646 -187.078C641.646 107.233 883.471 345.823 1181.77 345.823C1480.07 345.823 1721.89 107.233 1721.89 -187.078C1721.89 -481.391 1480.07 -719.979 1181.77 -719.979C883.471 -719.979 641.646 -481.391 641.646 -187.078ZM945.466 -187.078C945.466 -58.3182 1051.27 46.0665 1181.77 46.0665C1312.28 46.0665 1418.07 -58.3182 1418.07 -187.078C1418.07 -315.84 1312.28 -420.222 1181.77 -420.222C1051.27 -420.222 945.466 -315.84 945.466 -187.078Z" fill="#DDFBEA"/>
</g>
</g>
<path d="M60 948V948.5H60.5V948H60ZM60 778H59.5L59.5 948H60H60.5L60.5 778H60ZM60 948V947.5H0L0 948L0 948.5H60V948Z" fill="url(#paint0_linear_6007_970)"/>
<path d="M60 948V947.5H59.5V948H60ZM60 948V948.5L575 948.5V948V947.5L60 947.5V948ZM60 1080H60.5L60.5 948H60H59.5L59.5 1080H60Z" fill="url(#paint1_linear_6007_970)"/>
<path d="M60 948H60.5V947.5H60V948ZM0 948L0 948.5H60V948V947.5H0L0 948ZM60 948H59.5L59.5 1080H60H60.5L60.5 948H60Z" fill="#D3DFEB"/>
</g>
<defs>
<linearGradient id="paint0_linear_6007_970" x1="30" y1="778" x2="30" y2="948" gradientUnits="userSpaceOnUse">
<stop offset="0.155" stop-color="#D3DFEB" stop-opacity="0"/>
<stop offset="0.535" stop-color="#D3DFEB"/>
</linearGradient>
<linearGradient id="paint1_linear_6007_970" x1="575" y1="1014" x2="60" y2="1014" gradientUnits="userSpaceOnUse">
<stop stop-color="#D3DFEB" stop-opacity="0"/>
<stop offset="0.6" stop-color="#D3DFEB"/>
</linearGradient>
<clipPath id="clip0_6007_970">
<rect width="1920" height="1080" fill="white"/>
</clipPath>
<clipPath id="clip1_6007_970">
<rect width="1920" height="1080" fill="white" transform="matrix(1 0 0 -1 0 1080)"/>
</clipPath>
<clipPath id="clip2_6007_970">
<rect width="1066" height="1081" fill="white" transform="matrix(0 1 1 0 641 -720)"/>
</clipPath>
</defs>
</svg>
