<svg width="618" height="470" viewBox="0 0 618 470" fill="none" xmlns="http://www.w3.org/2000/svg">
<g filter="url(#filter0_d_62_13668)">
<rect x="31.2999" y="29.9536" width="552" height="404" rx="16.1548" fill="white"/>
<rect x="31.2999" y="29.9536" width="552" height="404" rx="16.1548" stroke="#D3DFEB" stroke-width="0.673116"/>
<rect x="66.3019" y="73.0331" width="345.309" height="21.5397" rx="10.7699" fill="#D3DFEB"/>
<path d="M87.2674 163.473L87.2674 338.691" stroke="#E5ECF3" stroke-width="1.74899"/>
<rect x="66.3019" y="129.575" width="53.8493" height="53.8493" rx="26.9246" fill="white"/>
<rect x="66.3019" y="129.575" width="53.8493" height="53.8493" rx="26.9246" stroke="#E5ECF3" stroke-width="2.24372"/>
<rect x="70.7894" y="134.062" width="44.8744" height="44.8744" rx="22.4372" fill="#FAEED6"/>
<rect x="70.7894" y="134.062" width="44.8744" height="44.8744" rx="22.4372" stroke="#FAEED6" stroke-width="2.24372"/>
<path d="M91.8243 145.405H94.6289C95.3739 145.405 96.0313 146.062 96.0313 146.807V149.612C96.0313 150.4 95.3739 151.014 94.6289 151.014H91.8243C91.0355 151.014 90.422 150.4 90.422 149.612V146.807C90.422 146.062 91.0355 145.405 91.8243 145.405ZM83.4103 148.209H89.0196V150.313C89.0196 151.496 89.9399 152.416 91.1231 152.416H95.3301C96.4695 152.416 97.4336 151.496 97.4336 150.313V148.209H103.043C104.577 148.209 105.848 149.48 105.848 151.014V165.037C105.848 166.615 104.577 167.842 103.043 167.842H83.4103C81.8327 167.842 80.6057 166.615 80.6057 165.037V151.014C80.6057 149.48 81.8327 148.209 83.4103 148.209ZM88.3185 164.599C88.3185 164.862 88.4938 165.037 88.7567 165.037H97.6527C97.9156 165.037 98.1347 164.862 98.1347 164.599C98.1347 163.284 97.083 162.233 95.7683 162.233H90.6411C89.3702 162.233 88.3185 163.284 88.3185 164.599ZM93.2266 160.83C94.1907 160.83 95.111 160.304 95.6369 159.428C96.1189 158.595 96.1189 157.5 95.6369 156.623C95.111 155.791 94.1907 155.221 93.2266 155.221C92.2187 155.221 91.2984 155.791 90.7725 156.623C90.2905 157.5 90.2905 158.595 90.7725 159.428C91.2984 160.304 92.2187 160.83 93.2266 160.83Z" fill="#E8AB30"/>
<rect x="134.143" y="145.73" width="337.231" height="21.5397" rx="10.7699" fill="#D3DFEB"/>
<rect x="66.3019" y="199.579" width="53.8493" height="53.8493" rx="26.9246" fill="white"/>
<rect x="66.3019" y="199.579" width="53.8493" height="53.8493" rx="26.9246" stroke="#E5ECF3" stroke-width="2.24372"/>
<rect x="70.7894" y="204.066" width="44.8744" height="44.8744" rx="22.4372" fill="#E3E3FC"/>
<rect x="70.7894" y="204.066" width="44.8744" height="44.8744" rx="22.4372" stroke="#E3E3FC" stroke-width="2.24372"/>
<path d="M94.6289 216.811V236.444V237.846H93.2266H84.8127H82.008C81.2192 237.846 80.6057 237.232 80.6057 236.444C80.6057 235.699 81.2192 235.041 82.008 235.041H83.4103V219.484C83.4103 218.52 84.0677 217.687 84.9879 217.425L92.876 215.452C93.2704 215.365 93.7087 215.452 94.0592 215.715C94.4098 215.978 94.6289 216.417 94.6289 216.811ZM91.8243 226.627C91.8243 225.882 91.3422 225.225 90.7725 225.225C90.159 225.225 89.7208 225.882 89.7208 226.627C89.7208 227.416 90.159 228.03 90.7725 228.03C91.3422 228.03 91.8243 227.416 91.8243 226.627ZM96.0313 221.018V218.213H100.238C101.772 218.213 103.043 219.484 103.043 221.018V235.041H104.445C105.19 235.041 105.848 235.699 105.848 236.444C105.848 237.232 105.19 237.846 104.445 237.846H101.641C100.852 237.846 100.238 237.232 100.238 236.444V221.018H96.0313Z" fill="#7472F2"/>
<rect x="134.143" y="215.734" width="210.685" height="21.5397" rx="10.7699" fill="#D3DFEB"/>
<rect x="66.3019" y="269.583" width="53.8493" height="53.8493" rx="26.9246" fill="white"/>
<rect x="66.3019" y="269.583" width="53.8493" height="53.8493" rx="26.9246" stroke="#E5ECF3" stroke-width="2.24372"/>
<rect x="70.7894" y="274.07" width="44.8744" height="44.8744" rx="22.4372" fill="#D5F6DF"/>
<rect x="70.7894" y="274.07" width="44.8744" height="44.8744" rx="22.4372" stroke="#D5F6DF" stroke-width="2.24372"/>
<path d="M93.3581 289.181C94.1031 288.568 95.0233 288.217 95.9874 288.217C96.7762 288.217 97.565 288.48 98.2224 288.875L101.421 290.934L101.597 291.022H101.641H101.816H105.146C106.286 291.022 107.25 291.986 107.25 293.125V298.735C107.25 299.918 106.286 300.838 105.146 300.838H103.306L95.5492 293.695L96.4257 292.994C96.7324 292.775 96.8201 292.337 96.5571 292.03C96.338 291.723 95.8998 291.636 95.593 291.898L91.2108 295.273C90.4658 295.842 89.3702 295.711 88.8005 294.922C88.2746 294.177 88.4061 293.169 89.1073 292.6L93.3581 289.181ZM94.366 294.615L100.238 300.006C101.071 300.794 101.159 302.109 100.37 302.986C99.6685 303.774 98.4853 303.862 97.6527 303.292C97.565 303.555 97.3898 303.818 97.2145 304.037C96.4257 304.87 95.111 304.958 94.2345 304.169L93.4895 303.468C93.4019 303.818 93.2266 304.125 93.0075 304.388C92.2187 305.221 90.904 305.308 90.0276 304.519L86.0397 300.838H81.3068C80.1236 300.838 79.2034 299.918 79.2034 298.735V293.125C79.2034 291.986 80.1236 291.022 81.3068 291.022H84.8127L87.9679 288.919C88.6252 288.48 89.4579 288.217 90.2467 288.261C90.8164 288.261 91.3861 288.349 91.8681 288.568L88.2308 291.504C86.96 292.556 86.697 294.44 87.6611 295.755C88.7129 297.157 90.7287 297.464 92.0872 296.368L94.366 294.615Z" fill="#2BD060"/>
<rect x="134.143" y="285.738" width="131.931" height="21.5397" rx="10.7699" fill="#D3DFEB"/>
<rect x="66.3019" y="339.587" width="53.8493" height="53.8493" rx="26.9246" fill="white"/>
<rect x="66.3019" y="339.587" width="53.8493" height="53.8493" rx="26.9246" stroke="#E5ECF3" stroke-width="2.24372"/>
<rect x="70.7894" y="344.074" width="44.8744" height="44.8744" rx="22.4372" fill="#D5E5FF"/>
<rect x="70.7894" y="344.074" width="44.8744" height="44.8744" rx="22.4372" stroke="#D5E5FF" stroke-width="2.24372"/>
<path d="M83.4103 361.026C83.4103 359.054 84.4621 357.214 86.215 356.206C87.9241 355.198 90.0714 355.198 91.8243 356.206C93.5334 357.214 94.6289 359.054 94.6289 361.026C94.6289 363.042 93.5334 364.882 91.8243 365.89C90.0714 366.898 87.9241 366.898 86.215 365.89C84.4621 364.882 83.4103 363.042 83.4103 361.026ZM79.2034 376.583C79.2034 372.245 82.6653 368.739 87.0038 368.739H90.9916C95.3301 368.739 98.8359 372.245 98.8359 376.583C98.8359 377.284 98.2224 377.854 97.5212 377.854H80.4742C79.773 377.854 79.2034 377.284 79.2034 376.583ZM101.29 369.089V366.285H98.4853C97.8718 366.285 97.4336 365.847 97.4336 365.233C97.4336 364.663 97.8718 364.181 98.4853 364.181H101.29V361.377C101.29 360.807 101.728 360.325 102.342 360.325C102.911 360.325 103.393 360.807 103.393 361.377V364.181H106.198C106.768 364.181 107.25 364.663 107.25 365.233C107.25 365.847 106.768 366.285 106.198 366.285H103.393V369.089C103.393 369.703 102.911 370.141 102.342 370.141C101.728 370.141 101.29 369.703 101.29 369.089Z" fill="#2F7BFF"/>
<rect x="134.143" y="355.742" width="291.459" height="21.5397" rx="10.7699" fill="#D3DFEB"/>
</g>
<defs>
<filter id="filter0_d_62_13668" x="2.6226e-06" y="-1.00136e-05" width="617.292" height="469.292" filterUnits="userSpaceOnUse" color-interpolation-filters="sRGB">
<feFlood flood-opacity="0" result="BackgroundImageFix"/>
<feColorMatrix in="SourceAlpha" type="matrix" values="0 0 0 0 0 0 0 0 0 0 0 0 0 0 0 0 0 0 127 0" result="hardAlpha"/>
<feOffset dx="1.34623" dy="2.69246"/>
<feGaussianBlur stdDeviation="16.1548"/>
<feComposite in2="hardAlpha" operator="out"/>
<feColorMatrix type="matrix" values="0 0 0 0 0.0705882 0 0 0 0 0.101961 0 0 0 0 0.203922 0 0 0 0.06 0"/>
<feBlend mode="normal" in2="BackgroundImageFix" result="effect1_dropShadow_62_13668"/>
<feBlend mode="normal" in="SourceGraphic" in2="effect1_dropShadow_62_13668" result="shape"/>
</filter>
</defs>
</svg>
