<svg width="682" height="348" viewBox="0 0 682 348" fill="none" xmlns="http://www.w3.org/2000/svg">
<g filter="url(#filter0_d_62_13781)">
<g clip-path="url(#clip0_62_13781)">
<rect x="84.159" y="40.9846" width="513.177" height="179.129" rx="12.2061" fill="white"/>
<rect x="83.527" y="40.9847" width="514.441" height="70.783" stroke="#DCE5EF" stroke-width="1.26398"/>
<path d="M103.751 66.3357C103.751 61.5353 103.751 59.1351 105.242 57.6438C106.733 56.1525 109.134 56.1525 113.934 56.1525H134.015C138.815 56.1525 141.216 56.1525 142.707 57.6438C144.198 59.1351 144.198 61.5353 144.198 66.3357V86.4167C144.198 91.2171 144.198 93.6173 142.707 95.1086C141.216 96.5999 138.815 96.5999 134.015 96.5999H113.934C109.134 96.5999 106.733 96.5999 105.242 95.1086C103.751 93.6173 103.751 91.2171 103.751 86.4167V66.3357Z" fill="#EDF2F7"/>
<path d="M103.751 66.3357C103.751 61.5353 103.751 59.1351 105.242 57.6438C106.733 56.1525 109.134 56.1525 113.934 56.1525H134.015C138.815 56.1525 141.216 56.1525 142.707 57.6438C144.198 59.1351 144.198 61.5353 144.198 66.3357V86.4167C144.198 91.2171 144.198 93.6173 142.707 95.1086C141.216 96.5999 138.815 96.5999 134.015 96.5999H113.934C109.134 96.5999 106.733 96.5999 105.242 95.1086C103.751 93.6173 103.751 91.2171 103.751 86.4167V66.3357Z" stroke="#EDF2F7" stroke-width="1.26398"/>
<path d="M120.657 67.7805C121.244 67.7805 121.763 68.299 121.763 68.8865V69.9925H126.186V68.8865C126.186 68.299 126.67 67.7805 127.292 67.7805C127.88 67.7805 128.398 68.299 128.398 68.8865V69.9925H130.057C130.956 69.9925 131.716 70.7529 131.716 71.6515V73.3105H116.233V71.6515C116.233 70.7529 116.958 69.9925 117.892 69.9925H119.551V68.8865C119.551 68.299 120.034 67.7805 120.657 67.7805ZM116.233 74.4164H131.716V83.8173C131.716 84.7505 130.956 85.4763 130.057 85.4763H117.892C116.958 85.4763 116.233 84.7505 116.233 83.8173V74.4164ZM118.998 76.6284C118.687 76.6284 118.445 76.9049 118.445 77.1814V79.3934C118.445 79.7044 118.687 79.9464 118.998 79.9464H128.951C129.228 79.9464 129.504 79.7044 129.504 79.3934V77.1814C129.504 76.9049 129.228 76.6284 128.951 76.6284H118.998Z" fill="#12B76A"/>
<rect x="159.366" y="69.18" width="223.98" height="14.3923" rx="7.19615" fill="#D3DFEB"/>
<rect x="104.383" y="131.991" width="472.73" height="67.8982" rx="7.5839" fill="#F6F9FB"/>
<path d="M135.213 156.555V171.263H132.548V159.147H132.462L129.022 161.345V158.903L132.677 156.555H135.213ZM144.384 171.543C143.201 171.543 142.186 171.244 141.339 170.645C140.496 170.042 139.847 169.173 139.392 168.038C138.942 166.899 138.717 165.527 138.717 163.923C138.722 162.319 138.949 160.955 139.399 159.83C139.854 158.7 140.503 157.838 141.346 157.244C142.193 156.65 143.206 156.354 144.384 156.354C145.561 156.354 146.574 156.65 147.421 157.244C148.269 157.838 148.918 158.7 149.368 159.83C149.823 160.959 150.05 162.324 150.05 163.923C150.05 165.532 149.823 166.906 149.368 168.045C148.918 169.18 148.269 170.047 147.421 170.645C146.579 171.244 145.566 171.543 144.384 171.543ZM144.384 169.295C145.303 169.295 146.028 168.843 146.56 167.938C147.096 167.028 147.364 165.69 147.364 163.923C147.364 162.755 147.242 161.773 146.998 160.979C146.754 160.184 146.409 159.585 145.964 159.183C145.518 158.776 144.992 158.573 144.384 158.573C143.469 158.573 142.746 159.028 142.215 159.937C141.683 160.842 141.415 162.171 141.41 163.923C141.406 165.096 141.523 166.082 141.762 166.882C142.006 167.682 142.351 168.285 142.796 168.692C143.242 169.094 143.771 169.295 144.384 169.295Z" fill="#6C869F"/>
<circle cx="139.526" cy="182.07" r="2.52797" fill="#91A4B7"/>
<path d="M204.547 156.555V171.263H201.883V159.147H201.797L198.357 161.345V158.903L202.012 156.555H204.547ZM214.264 156.555V171.263H211.6V159.147H211.514L208.074 161.345V158.903L211.729 156.555H214.264Z" fill="#6C869F"/>
<circle cx="206.975" cy="182.07" r="2.52797" fill="#91A4B7"/>
<rect opacity="0.1" x="255.828" y="149.207" width="35.3915" height="40.4475" rx="5.05593" fill="#12B76A"/>
<path d="M269.675 156.555V171.263H267.01V159.147H266.924L263.484 161.345V158.903L267.14 156.555H269.675ZM273.409 171.263V169.338L278.516 164.333C279.004 163.839 279.411 163.401 279.736 163.018C280.062 162.635 280.306 162.264 280.469 161.905C280.632 161.546 280.713 161.163 280.713 160.756C280.713 160.292 280.608 159.894 280.397 159.564C280.186 159.229 279.897 158.97 279.528 158.788C279.16 158.606 278.741 158.515 278.271 158.515C277.788 158.515 277.364 158.616 277 158.817C276.636 159.013 276.354 159.293 276.153 159.657C275.956 160.021 275.858 160.454 275.858 160.957H273.323C273.323 160.024 273.536 159.212 273.962 158.523C274.388 157.833 274.975 157.299 275.722 156.921C276.474 156.543 277.335 156.354 278.307 156.354C279.294 156.354 280.16 156.538 280.907 156.907C281.654 157.275 282.233 157.78 282.645 158.422C283.062 159.064 283.27 159.796 283.27 160.62C283.27 161.17 283.165 161.711 282.954 162.243C282.743 162.774 282.372 163.363 281.841 164.009C281.314 164.656 280.574 165.439 279.622 166.358L277.086 168.936V169.037H283.492V171.263H273.409Z" fill="#12B76A"/>
<circle cx="273.524" cy="182.07" r="2.52797" fill="#12B76A"/>
<path d="M336.818 156.555V171.263H334.153V159.147H334.067L330.627 161.345V158.903L334.282 156.555H336.818ZM345.831 171.464C344.796 171.464 343.877 171.287 343.073 170.932C342.273 170.578 341.641 170.085 341.177 169.453C340.712 168.821 340.466 168.091 340.437 167.263H343.137C343.161 167.66 343.293 168.007 343.532 168.304C343.772 168.596 344.09 168.823 344.488 168.986C344.885 169.149 345.33 169.23 345.823 169.23C346.35 169.23 346.817 169.139 347.224 168.957C347.631 168.771 347.949 168.512 348.179 168.182C348.409 167.851 348.521 167.471 348.517 167.04C348.521 166.595 348.406 166.202 348.172 165.862C347.937 165.522 347.597 165.257 347.152 165.065C346.712 164.873 346.18 164.778 345.558 164.778H344.258V162.724H345.558C346.07 162.724 346.518 162.635 346.901 162.458C347.289 162.281 347.593 162.032 347.813 161.711C348.033 161.386 348.141 161.01 348.136 160.584C348.141 160.167 348.047 159.806 347.856 159.499C347.669 159.188 347.403 158.946 347.059 158.774C346.719 158.601 346.319 158.515 345.859 158.515C345.409 158.515 344.993 158.597 344.61 158.759C344.227 158.922 343.918 159.154 343.683 159.456C343.449 159.753 343.324 160.107 343.31 160.519H340.746C340.765 159.695 341.002 158.972 341.457 158.35C341.917 157.723 342.529 157.235 343.295 156.885C344.062 156.531 344.921 156.354 345.874 156.354C346.855 156.354 347.707 156.538 348.43 156.907C349.158 157.27 349.721 157.761 350.118 158.379C350.516 158.996 350.714 159.679 350.714 160.426C350.719 161.254 350.475 161.948 349.982 162.508C349.493 163.068 348.852 163.435 348.057 163.607V163.722C349.091 163.866 349.884 164.249 350.434 164.871C350.989 165.489 351.265 166.257 351.26 167.176C351.26 168 351.025 168.737 350.556 169.388C350.092 170.035 349.45 170.542 348.631 170.911C347.818 171.28 346.884 171.464 345.831 171.464Z" fill="#6C869F"/>
<circle cx="340.973" cy="182.07" r="2.52797" fill="#91A4B7"/>
<path d="M403.219 156.555V171.263H400.554V159.147H400.468L397.028 161.345V158.903L400.684 156.555H403.219ZM406.688 168.534V166.415L412.928 156.555H414.695V159.571H413.618L409.417 166.229V166.343H418.128V168.534H406.688ZM413.704 171.263V167.888L413.733 166.94V156.555H416.246V171.263H413.704Z" fill="#6C869F"/>
<circle cx="407.522" cy="182.07" r="2.52797" fill="#91A4B7"/>
<rect x="449.605" y="142.103" width="50.373" height="47.6745" rx="7.5839" fill="#EDF2F7"/>
<path d="M471.004 156.555V171.263H468.339V159.147H468.253L464.813 161.345V158.903L468.469 156.555H471.004ZM479.852 171.464C478.894 171.464 478.037 171.284 477.281 170.925C476.524 170.562 475.923 170.064 475.478 169.432C475.038 168.8 474.803 168.077 474.774 167.263H477.36C477.408 167.866 477.668 168.359 478.142 168.742C478.616 169.12 479.186 169.309 479.852 169.309C480.374 169.309 480.838 169.19 481.245 168.95C481.652 168.711 481.973 168.378 482.207 167.952C482.442 167.526 482.557 167.04 482.552 166.494C482.557 165.939 482.44 165.446 482.2 165.015C481.961 164.584 481.633 164.246 481.216 164.002C480.8 163.753 480.321 163.629 479.78 163.629C479.339 163.624 478.906 163.705 478.48 163.873C478.054 164.041 477.716 164.261 477.467 164.534L475.062 164.139L475.83 156.555H484.362V158.781H478.035L477.611 162.681H477.697C477.97 162.36 478.356 162.094 478.853 161.884C479.351 161.668 479.897 161.56 480.491 161.56C481.381 161.56 482.176 161.771 482.875 162.192C483.574 162.609 484.125 163.183 484.527 163.916C484.929 164.649 485.13 165.486 485.13 166.43C485.13 167.402 484.905 168.268 484.455 169.029C484.01 169.786 483.39 170.382 482.595 170.818C481.805 171.249 480.891 171.464 479.852 171.464Z" fill="#6C869F"/>
<circle cx="474.971" cy="182.07" r="2.52797" fill="#91A4B7"/>
<rect x="516.627" y="142.103" width="50.373" height="47.6745" rx="7.5839" fill="#EDF2F7"/>
<path d="M537.395 156.555V171.263H534.731V159.147H534.644L531.204 161.345V158.903L534.86 156.555H537.395ZM546.516 171.464C545.812 171.459 545.125 171.337 544.455 171.098C543.784 170.854 543.181 170.459 542.645 169.913C542.109 169.362 541.682 168.632 541.366 167.722C541.05 166.808 540.895 165.676 540.9 164.325C540.9 163.066 541.034 161.943 541.302 160.957C541.57 159.971 541.955 159.138 542.458 158.458C542.961 157.773 543.566 157.251 544.275 156.892C544.988 156.533 545.786 156.354 546.667 156.354C547.591 156.354 548.409 156.536 549.123 156.899C549.841 157.263 550.42 157.761 550.861 158.393C551.301 159.02 551.574 159.729 551.679 160.519H549.058C548.924 159.954 548.649 159.504 548.232 159.169C547.82 158.829 547.299 158.659 546.667 158.659C545.647 158.659 544.862 159.102 544.311 159.988C543.765 160.873 543.49 162.089 543.485 163.636H543.586C543.82 163.215 544.124 162.853 544.498 162.551C544.871 162.25 545.292 162.018 545.762 161.855C546.236 161.687 546.736 161.604 547.263 161.604C548.124 161.604 548.898 161.809 549.582 162.221C550.272 162.633 550.818 163.2 551.22 163.923C551.622 164.641 551.821 165.465 551.816 166.394C551.821 167.361 551.6 168.23 551.155 169.001C550.71 169.767 550.09 170.37 549.295 170.81C548.5 171.251 547.574 171.469 546.516 171.464ZM546.501 169.309C547.023 169.309 547.49 169.183 547.902 168.929C548.314 168.675 548.639 168.333 548.878 167.902C549.118 167.471 549.235 166.987 549.23 166.451C549.235 165.925 549.12 165.448 548.886 165.022C548.656 164.596 548.337 164.258 547.931 164.009C547.524 163.76 547.059 163.636 546.537 163.636C546.149 163.636 545.788 163.71 545.453 163.859C545.118 164.007 544.826 164.213 544.577 164.476C544.328 164.735 544.131 165.036 543.988 165.381C543.849 165.721 543.777 166.085 543.772 166.473C543.777 166.985 543.897 167.457 544.131 167.888C544.366 168.318 544.689 168.663 545.101 168.922C545.513 169.18 545.979 169.309 546.501 169.309Z" fill="#6C869F"/>
<circle cx="541.521" cy="182.07" r="2.52797" fill="#91A4B7"/>
</g>
<rect x="84.159" y="40.9846" width="513.177" height="179.129" rx="12.2061" stroke="#D3DFEB" stroke-width="1.01718"/>
</g>
<defs>
<filter id="filter0_d_62_13781" x="1.90735e-06" y="1.90735e-06" width="681.495" height="347.447" filterUnits="userSpaceOnUse" color-interpolation-filters="sRGB">
<feFlood flood-opacity="0" result="BackgroundImageFix"/>
<feColorMatrix in="SourceAlpha" type="matrix" values="0 0 0 0 0 0 0 0 0 0 0 0 0 0 0 0 0 0 127 0" result="hardAlpha"/>
<feMorphology radius="16.1904" operator="erode" in="SourceAlpha" result="effect1_dropShadow_62_13781"/>
<feOffset dy="43.1744"/>
<feGaussianBlur stdDeviation="49.9204"/>
<feComposite in2="hardAlpha" operator="out"/>
<feColorMatrix type="matrix" values="0 0 0 0 0.0171459 0 0 0 0 0.210196 0 0 0 0 0.462646 0 0 0 0.1 0"/>
<feBlend mode="normal" in2="BackgroundImageFix" result="effect1_dropShadow_62_13781"/>
<feBlend mode="normal" in="SourceGraphic" in2="effect1_dropShadow_62_13781" result="shape"/>
</filter>
<clipPath id="clip0_62_13781">
<rect x="84.159" y="40.9846" width="513.177" height="179.129" rx="12.2061" fill="white"/>
</clipPath>
</defs>
</svg>
